<svg id="Warstwa_1" enable-background="new 0 0 283.46 283.46" height="283.46" viewBox="0 0 283.46 283.46" width="283.46" xmlns="http://www.w3.org/2000/svg"><g><path d="m2.835 48.376h277.794v186.712h-277.794z" fill="#d6d4d1"/><g><path d="m5.212 50.67h273.238v182.156h-273.238z" fill="#079d38"/><path d="m255.387 141.211-113.211-72.287c-.204-.133-.479-.133-.69 0l-113.203 72.287c-.188.118-.306.321-.306.541s.118.424.306.542l113.203 72.294c.103.063.22.094.346.094.117 0 .235-.031.345-.094l113.211-72.294c.181-.118.291-.322.291-.542s-.112-.424-.292-.541z" fill="#fddf07"/><path d="m115.811 128.738c-6.165 0-12.198.541-18.065 1.569-.949 3.655-1.451 7.491-1.451 11.445 0 25.156 20.388 45.537 45.537 45.537 20.411 0 37.692-13.43 43.474-31.942-18.429-16.537-42.784-26.609-69.495-26.609z" fill="#072f68"/><g><path d="m115.811 128.738c26.664 0 50.98 10.041 69.393 26.529.723-2.321 1.334-4.698 1.68-7.161-19.211-16.136-44.008-25.871-71.07-25.871-5.295 0-10.511.384-15.61 1.106-.988 2.228-1.749 4.565-2.377 6.958 5.841-1.02 11.85-1.561 17.984-1.561z" fill="#fff"/></g><path d="m115.811 122.235c27.079 0 51.884 9.743 71.104 25.895.297-2.087.463-4.213.463-6.377 0-25.149-20.396-45.537-45.544-45.537-18.592 0-34.578 11.155-41.646 27.126 5.104-.723 10.32-1.107 15.623-1.107z" fill="#072f68"/><path d="m118.399 126.777.04-.989 2.471.087.031-.871-2.471-.079.024-.745 2.965.102.031-.925-3.828-.141-.157 4.463 4.017.141.031-.934z" fill="#0c9c35"/><path d="m125.185 126.479-.557-2.832-.016-.039-1.184-.11-.384 4.385-.008.063.87.07.22-2.589.533 2.66.77.063.988-2.526-.22 2.533-.008.063.855.079.385-4.385.008-.063-1.185-.102z" fill="#0c9c35"/><path d="m133.202 127.208 2.016.345.141-.855-2.008-.345.094-.549 2.393.408.149-.847-3.193-.549-.055-.016-.675 3.907-.007.062 3.263.565.063.008.149-.855-2.479-.424z" fill="#0c9c35"/><path d="m172.887 142.481c.432.424.809.784.628 1.059-.142.22-.494.181-.949-.102-.313-.204-.524-.439-.571-.659-.022-.125 0-.251.069-.361l.031-.055-.927-.588-.03.047c-.188.29-.243.596-.173.91.125.581.649 1.091 1.099 1.381.36.22.896.494 1.403.494.447 0 .801-.204 1.052-.604.519-.808-.251-1.545-.862-2.134-.393-.376-.729-.706-.589-.91.095-.142.188-.212.33-.212.172 0 .392.118.558.228.273.172.689.533.424.949l-.03.055.896.572.037-.055c.204-.298.268-.62.196-.941-.103-.479-.511-.887-.854-1.106l-.063-.04c-.313-.204-.895-.581-1.459-.581-.416 0-.753.196-1.004.581-.515.786.208 1.5.788 2.072z" fill="#0c9c35"/><path d="m165.851 140.395 3.45 1.944.056.033.456-.808-2.747-1.554.487-.862 2.102 1.184.054.031.424-.753-2.149-1.216.36-.651 2.535 1.436.055.031.455-.808-3.286-1.867-.056-.023-2.166 3.828z" fill="#0c9c35"/><path d="m179.014 147.282c.557-.784-.174-1.553-.754-2.182-.368-.392-.689-.736-.549-.934.103-.133.203-.196.33-.196.142 0 .313.079.563.26.268.188.434.399.473.604.016.125-.018.251-.104.361l-.031.055.814.58.056.04.03-.047c.221-.298.308-.612.253-.935-.079-.485-.464-.917-.794-1.152l-.063-.047c-.313-.228-.9-.651-1.496-.651-.387 0-.716.18-.975.534-.542.753.143 1.498.688 2.102.408.447.762.824.573 1.09-.063.086-.157.134-.274.134-.172 0-.406-.103-.666-.282-.243-.182-.416-.361-.493-.542-.079-.188-.063-.354.047-.51l.03-.048-.895-.636-.04.047c-.196.274-.267.581-.212.902.096.581.598 1.114 1.028 1.428.368.259.917.573 1.442.573.414.001.759-.188 1.019-.548z" fill="#0c9c35"/><path d="m102.993 128.518c.078 0 .149-.008.228-.016 1.099-.133 1.867-1.239 1.726-2.463-.148-1.129-1.027-1.977-2.055-1.977-.071 0-.142 0-.22.016-.534.063-1.013.353-1.334.824-.329.463-.463 1.043-.393 1.631.142 1.13 1.021 1.985 2.048 1.985zm-1.091-2.228c0-.329.095-.643.259-.871.188-.259.463-.384.785-.384.722 0 1.035.651 1.035 1.255 0 .33-.086.644-.259.871-.188.259-.463.392-.776.392-.721 0-1.044-.651-1.044-1.263z" fill="#0c9c35"/><path d="m184.363 148.003c-.141-.549-.485-.988-.965-1.23-.259-.142-.549-.213-.854-.213-.793 0-1.562.503-1.961 1.264-.268.524-.346 1.122-.203 1.671.147.549.494.988.974 1.239.259.133.549.204.849.204.793 0 1.567-.494 1.961-1.264.271-.525.34-1.122.199-1.671zm-.909.895c-.188.611-.729 1.066-1.256 1.066-.188 0-.367-.055-.533-.173-.393-.267-.523-.698-.369-1.192.188-.604.725-1.066 1.248-1.066.188 0 .369.063.541.181.384.257.518.698.369 1.184z" fill="#0c9c35"/><path d="m116.022 125.592c0-.04 0-.079 0-.118.008-.322.008-.761-.337-1.326-.494-.792-1.451-.832-1.498-.84l-2.236.04.079 4.401.008.055h.063c.173 0 1.733 0 2.173-.039.533-.055 1.059-.353 1.389-.792.367-.479.359-1.044.359-1.381zm-1.906-1.341c.589.008.848.432.988.753.048.313.048.455.056.714l.008.047c-.048.353-.157.588-.385.8-.439.29-.651.29-.926.29s-.745.008-.909.008c-.009-.345-.04-2.047-.048-2.604.84-.008.872-.008 1.216-.008z" fill="#0c9c35"/><path d="m109.786 126.024c.126-.11.447-.455.55-.925.125-.573-.235-1.051-.393-1.177l-.023-.032c-.157-.141-.447-.408-.871-.408h-.039c-.447.023-2.636.172-2.659.172l-.055.008.243 4.456.926-.071-.11-1.6 1.632-.118c.078.141.408.722.447 1.09.023.243.023.463.023.463v.063h.902v-.063c0-.032.023-.792-.204-1.263-.165-.329-.298-.517-.369-.595zm-1.49-1.569c.086-.008.142-.008.149-.008.212-.008.455-.031.455-.031.008 0 .156.008.321.149 0 0 .148.11.141.314-.008.211-.125.392-.18.423-.126.102-.486.125-.612.133l-1.278.086-.07-.988c.226-.007.792-.055 1.074-.078z" fill="#0c9c35"/><path d="m152.978 134.425c.126.023.251.04.377.04.965 0 1.828-.761 2.047-1.813.252-1.2-.423-2.369-1.506-2.596-.125-.023-.251-.032-.376-.032-.973 0-1.836.753-2.057 1.805-.116.58-.03 1.176.252 1.663.289.494.737.823 1.263.933zm-.597-2.251c.095-.572.519-1.176 1.139-1.176.102 0 .212.016.32.055.597.204.729.785.652 1.263-.097.564-.535 1.176-1.14 1.176-.108 0-.212-.016-.329-.055-.594-.204-.728-.785-.642-1.263z" fill="#0c9c35"/><path d="m149.032 131.115c.157-.071.572-.291.815-.698.313-.51.126-1.075.032-1.248l-.024-.031c-.103-.18-.298-.549-.729-.683-.424-.125-2.541-.698-2.563-.706l-.063-.016-1.199 4.229-.023.063.902.243.416-1.561 1.584.432c.031.157.148.808.063 1.169-.063.243-.125.447-.125.447l-.031.063.854.298.03-.063c.009-.031.275-.737.212-1.255-.05-.377-.112-.589-.151-.683zm-1.938-2.259c.236.07.84.228 1.082.298.063.008.096.024.104.024.204.063.439.117.439.117s.148.063.25.243c0 0 .109.157.031.353-.069.196-.242.322-.313.337-.031.008-.069.016-.125.016-.212 0-.479-.094-.485-.094l-1.23-.337c.036-.165.17-.659.247-.957z" fill="#0c9c35"/><path d="m163.976 138.685c-.095.235-.196.423-.196.423l-.031.055.801.423.031-.047c.018-.031.385-.698.399-1.216.022-.369-.017-.596-.039-.698.165-.047.612-.196.918-.557.369-.455.274-1.043.212-1.231l-.016-.039c-.078-.204-.213-.588-.612-.785-.407-.188-2.416-1.075-2.433-1.083l-.055-.031-1.836 4-.022.055.848.376.65-1.475 1.499.667c0 .158.024.825-.118 1.163zm.353-3.154c.094.04.156.063.164.071.188.086.416.18.416.18 0 .008.135.086.213.283 0 0 .078.172-.022.353-.097.18-.282.274-.354.282-.022 0-.039.008-.056.008-.212 0-.541-.172-.549-.172l-1.177-.526.408-.902c.195.094.683.306.957.423z" fill="#0c9c35"/><path d="m144.475 127.522c-.11-.188-.313-.542-.737-.659-.438-.118-2.573-.643-2.589-.651l-.063-.008-1.114 4.314.902.219.385-1.561 1.623.392c.01 0 .166.039.361.039.148 0 .29-.023.4-.063.023-.008.572-.243.854-.745.299-.51.094-1.075-.008-1.247zm-2.77-.212c.235.063.809.204 1.075.267.07.016.109.023.117.023.212.055.439.11.439.11.008.008.147.055.267.243.017.024.103.173.04.345-.063.196-.236.33-.307.345-.039.016-.086.016-.148.016-.204 0-.463-.079-.471-.079l-1.24-.306c.033-.172.158-.666.228-.964z" fill="#0c9c35"/><path d="m158.917 136.402-.188.416-.021.055.683.298.62-1.428.18.079.299-.683-.148-.063.009-.016-.063-.031c-.078-.031-.164-.07-.242-.102l-.188-.086c-.095-.047-.196-.079-.299-.11l-.688-.298-.291.683.393.172c-.203.157-.438.251-.666.251-.195 0-.377-.063-.541-.18-.385-.259-.52-.69-.368-1.185.188-.612.729-1.067 1.247-1.067.188 0 .377.055.541.173.259.18.4.431.424.729l.008.039.031.016c.086.039.182.071.268.094.103.031.203.063.297.102l.314.149v-.086c.07-.847-.338-1.624-1.027-1.984-.26-.133-.541-.204-.848-.204-.792 0-1.568.494-1.961 1.263-.564 1.09-.221 2.393.761 2.902.267.141.55.204.847.204.208 0 .411-.032.617-.102z" fill="#0c9c35"/><g fill="#fff"><path d="m155.025 126.424 1.075-.785 1.09.785-.416-1.271 1.076-.785h-1.334l-.416-1.27-.408 1.27h-1.334l1.076.785z"/><path d="m105.833 132.911h-1.561l-.479-1.49-.486 1.49h-1.561l1.263.918-.487 1.483 1.271-.918 1.255.918-.479-1.483z"/><path d="m154.648 140.732-.344-1.075-.346 1.075h-1.129l.91.659-.345 1.074.91-.658.909.658-.345-1.074.91-.659z"/><path d="m113.332 147.941-.22-.698-.235.698h-.745l.604.432-.227.713.603-.431.597.431-.228-.706.604-.439z"/><path d="m108.304 152.05-.432-1.301-.062.015-.063-.015-.416 1.301h-1.56l1.262.926-.478 1.483 1.262-.917 1.263.917-.486-1.483 1.263-.926z"/><path d="m103.519 156.24-.416-1.254-.408 1.254h-1.318l1.067.785-.408 1.263 1.067-.785 1.075.785-.408-1.263 1.075-.785z"/><path d="m124.048 144.755-.408-1.239-.393 1.239h-1.309l1.058.761-.407 1.24 1.051-.76 1.05.76-.399-1.24 1.059-.761z"/><path d="m118.643 157.488-.376-1.154-.37 1.154h-1.215l.98.714-.376 1.153.981-.715.98.715-.369-1.153.98-.714z"/><path d="m117.223 163.12-.353-1.075-.338 1.075h-1.129l.911.659-.354 1.075.91-.667.918.667-.353-1.075.91-.659z"/><path d="m124.071 166.744-.478-1.484-.479 1.484h-1.561l1.256.918-.479 1.49 1.263-.918 1.262.918-.478-1.49 1.263-.918z"/><path d="m141.831 145.658-.416 1.27h-1.333l1.082.785-.408 1.272 1.075-.785 1.082.785-.414-1.272 1.082-.785h-1.342z"/><path d="m138.701 151.032h-1.122l-.352-1.075-.346 1.075h-1.13l.918.659-.353 1.073.911-.666.917.659-.353-1.066z"/><path d="m139.509 155.738.596.439-.227-.706.596-.439h-.738l-.227-.699-.228.699h-.745l.605.439-.236.706z"/><path d="m147.502 151.777-.408-1.272-.407 1.272h-1.343l1.084.784-.416 1.271 1.082-.785 1.082.785-.414-1.271 1.082-.784z"/><path d="m140.968 160.256-.479 1.483h-1.568l1.263.918-.487 1.491 1.271-.927 1.263.927-.486-1.491 1.263-.918h-1.562z"/><path d="m141.987 178.855-.187-.572-.181.572h-.604l.486.353-.18.573.479-.354.493.354-.188-.573.479-.353z"/><path d="m151.338 166.838-.353-1.075-.337 1.075h-1.129l.91.658-.354 1.076.91-.668.911.668-.347-1.076.91-.658z"/><path d="m154.995 171.834-.416-1.27-.416 1.27h-1.334l1.074.785-.416 1.27 1.092-.784 1.074.784-.408-1.27 1.074-.785z"/><path d="m159.731 167.002-.344-1.075-.345 1.075h-1.129l.909.66-.345 1.074.91-.658.91.658-.345-1.074.909-.66z"/><path d="m164.799 167.221-.353-1.065-.352 1.065h-1.122l.909.667-.345 1.075.91-.666.91.666-.344-1.075.908-.667z"/><path d="m164.564 170.265-.408 1.272h-1.342l1.083.783-.416 1.271 1.083-.785 1.083.785-.416-1.271 1.083-.783h-1.342z"/><path d="m165.02 176.291-.346-1.076-.345 1.076h-1.129l.909.658-.345 1.074.91-.666.91.666-.353-1.074.917-.658z"/><path d="m169.554 168.039-.346-1.069-.345 1.069h-1.13l.911.666-.347 1.066.911-.658.91.658-.346-1.066.911-.666z"/><path d="m173.264 165.684-.416-1.27-.408 1.27-1.122-.008v.032l-.062.086.933.674-.416 1.272 1.075-.785 1.083.785-.416-1.272 1.09-.784z"/><path d="m175.139 161.26-.416-1.27-.416 1.27h-1.333l1.082.785-.416 1.271 1.083-.784 1.074.784-.407-1.271 1.073-.785z"/><path d="m172 158.531 1.256.918-.479-1.491 1.263-.917h-1.56l-.48-1.484-.485 1.484h-1.561l1.261.917-.485 1.491z"/><path d="m179.594 157.731-.353-1.075-.345 1.075h-1.129l.909.658-.345 1.068.91-.66.91.66-.345-1.068.909-.658z"/></g></g></g></svg>