<?xml version="1.0" encoding="UTF-8"?>
<svg id="Camada_2" data-name="Camada 2" xmlns="http://www.w3.org/2000/svg" viewBox="0 0 559.79 162.03">
  <defs>
    <style>
      .cls-1, .cls-2 {
        fill: #17142b;
      }

      .cls-3 {
        letter-spacing: -.04em;
      }

      .cls-2 {
        font-family: CormorantSC-Regular, 'Cormorant SC';
        font-size: 34.95px;
      }

      .cls-4 {
        letter-spacing: -.11em;
      }

      .cls-5 {
        letter-spacing: -.03em;
      }
    </style>
  </defs>
  <g id="Camada_1-2" data-name="Camada 1">
    <g>
      <text class="cls-2" transform="translate(0 94.26)"><tspan x="0" y="0">Keller, </tspan><tspan class="cls-3" x="122.07" y="0">T</tspan><tspan x="143.01" y="0">elles &amp; </tspan><tspan class="cls-4" x="256.52" y="0">W</tspan><tspan class="cls-5" x="285.28" y="0">a</tspan><tspan x="303.59" y="0">tson Advogados</tspan></text>
      <g>
        <path class="cls-1" d="M55.7,27.62c0-4.93.53-8.59,1.6-10.97,1.07-2.38,3.12-4.07,6.17-5.06,3.04-.99,7.77-1.48,14.18-1.48.33,0,.49-.49.49-1.48s-.17-1.48-.49-1.48l-11.59.25c-6.91.33-12.58.49-17.02.49-3.95,0-9.37-.16-16.28-.49l-12.08-.25c-.33,0-.49.49-.49,1.48s.16,1.48.49,1.48c6.41,0,11.14.45,14.18,1.36,3.04.91,5.09,2.51,6.17,4.81,1.07,2.3,1.6,5.92,1.6,10.85v31.4h13.07v-30.9Z"/>
        <path class="cls-1" d="M256.69,27.62c0-5.43.62-9.21,1.85-11.34,1.23-2.14,3.58-3.49,7.03-4.07,3.45-.57,9.45-.86,18-.86,7.73,0,13.73,1.07,18,3.21,4.27,2.14,7.31,5.59,9.12,10.36,1.81,4.77,2.71,11.51,2.71,20.22,0,.33.49.49,1.48.49s1.48-.16,1.48-.49c0-5.92.25-13.6.74-23.06.49-9.45.99-16.48,1.48-21.09,0-.66-.41-.99-1.23-.99s-1.32.33-1.48.99c-.83,2.47-2.63,4.11-5.43,4.93-2.8.82-7.15,1.23-13.07,1.23l-16.77.25c-10.85.33-21.13.49-30.83.49-18.91,0-35.43-.25-49.57-.74-8.72,0-13.07-1.81-13.07-5.43,0-.82-.49-1.23-1.48-1.23s-1.48.41-1.48,1.23c0,4.93-.41,12.29-1.23,22.07-.83,9.78-1.56,16.89-2.22,21.33,0,.33.49.49,1.48.49s1.48-.16,1.48-.49c1.64-12.66,4.85-21.46,9.62-26.39,4.77-4.93,12.33-7.4,22.69-7.4,8.88,0,15,.25,18.37.74,3.37.49,5.71,1.77,7.03,3.82,1.31,2.06,1.97,5.8,1.97,11.22v31.4h13.32v-30.9Z"/>
        <path class="cls-1" d="M470.02,27.13c2.63-6.57,5.83-11.06,9.62-13.44,3.78-2.38,8.47-3.58,14.06-3.58.33,0,.49-.49.49-1.48s-.17-1.48-.49-1.48l-10.61.25c-4.28.33-8.06.49-11.34.49-2.96,0-6.08-.16-9.37-.49l-6.91-.25c-.33,0-.49.49-.49,1.48s.16,1.48.49,1.48c4.11,0,7.11.54,9,1.6,1.89,1.07,2.84,2.84,2.84,5.3,0,2.3-.74,5.18-2.22,8.63l-13.31,32.88h5.48l12.76-31.4Z"/>
        <path class="cls-1" d="M362,25.16c-1.32-3.12-1.97-5.51-1.97-7.15,0-2.96,1.31-5.01,3.95-6.17,2.63-1.15,6.49-1.73,11.59-1.73.49,0,.74-.49.74-1.48s-.25-1.48-.74-1.48l-10.6.25c-6.58.33-12.25.49-17.02.49-2.3,0-5.76-.16-10.36-.49l-10.6-.25c-.49,0-.74.49-.74,1.48s.25,1.48.74,1.48c5.09,0,9.25,1.32,12.45,3.95,3.21,2.63,6.2,7.15,9,13.56l14.11,30.9h14.93l-15.47-33.37Z"/>
        <path class="cls-1" d="M428.34,25.16c-2.63-6.08-3.95-9.86-3.95-11.34s.66-2.47,1.97-2.96c1.31-.49,3.62-.74,6.91-.74.49,0,.74-.49.74-1.48s-.25-1.48-.74-1.48l-6.91.25c-4.6.33-8.63.49-12.08.49-2.3,0-5.76-.16-10.36-.49l-10.6-.25c-.49,0-.74.49-.74,1.48s.25,1.48.74,1.48c5.09,0,9.25,1.32,12.45,3.95,3.21,2.63,6.2,7.15,9,13.56l14.11,30.9h14.93l-15.47-33.37Z"/>
        <path class="cls-1" d="M115.63,27.13c6.25-6.25,12.95-10.64,20.1-13.19,7.15-2.55,14.1-3.82,20.84-3.82.49,0,.74-.49.74-1.48s-.25-1.48-.74-1.48l-8.63.25c-5.59.33-10.94.49-16.03.49-5.43,0-11.26-.16-17.51-.49l-10.36-.25c-.33,0-.49.49-.49,1.48s.16,1.48.49,1.48c5.09,0,8.75.29,10.97.86,2.22.58,3.33,1.6,3.33,3.08,0,2.14-2.8,6-8.39,11.59l-33.01,32.88h6.4l32.28-31.4Z"/>
        <path class="cls-1" d="M243.38,141.31c0,4.93-.62,8.59-1.85,10.97-1.23,2.39-3.58,3.99-7.03,4.81-3.45.82-8.88,1.23-16.28,1.23-.33,0-.49.49-.49,1.48s.16,1.48.49,1.48c5.75,0,10.27-.08,13.56-.25l18-.25,18.99.25c3.12.17,7.4.25,12.82.25.33,0,.49-.49.49-1.48s-.17-1.48-.49-1.48c-7.4,0-12.82-.41-16.28-1.23-3.45-.82-5.76-2.38-6.91-4.69-1.15-2.3-1.73-6-1.73-11.1v-31.59h-13.32v31.59Z"/>
        <path class="cls-1" d="M103.55,125.53c6.91,8.72,12.78,16.52,17.63,23.43,4.85,6.91,7.85,10.69,9,11.34,1.15.66,4.6.99,10.36.99h27.62c.49,0,.74-.49.74-1.48s-.25-1.48-.74-1.48c-6.91,0-12.08-.53-15.54-1.6-3.45-1.07-8.47-4.81-15.04-11.22-6.58-6.41-16.12-17.43-28.61-33.05l-2.17-2.73h-15.96l12.71,15.8Z"/>
        <path class="cls-1" d="M559.05,7.15l-10.36.25c-4.28.33-8.14.49-11.59.49-4.28,0-9.21-.16-14.8-.49l-9.86-.25c-.49,0-.74.49-.74,1.48s.25,1.48.74,1.48c7.07,0,12.12.66,15.17,1.97,3.04,1.32,4.56,3.45,4.56,6.41,0,2.3-.58,4.69-1.73,7.15l-13.35,32.88h5.56l12.72-31.4c2.79-6.57,6.04-11.06,9.74-13.44,3.7-2.38,8.34-3.58,13.93-3.58.49,0,.74-.49.74-1.48s-.25-1.48-.74-1.48Z"/>
        <path class="cls-1" d="M482.89,142.79l-15.33-33.06h-15.3l23.43,51.32c.49.66,1.4.99,2.71.99,1.64,0,2.55-.33,2.71-.99l20.79-51.32h-5.6l-13.42,33.06Z"/>
        <path class="cls-1" d="M416.55,142.8l-15.34-33.07h-15.3l23.43,51.32c.49.66,1.4.99,2.71.99,1.64,0,2.55-.33,2.71-.99l20.75-51.32h-5.52l-13.45,33.07Z"/>
        <path class="cls-1" d="M42.63,141.31c0,4.93-.58,8.59-1.73,10.97-1.15,2.39-3.25,3.99-6.29,4.81-3.04.82-7.77,1.23-14.18,1.23-.33,0-.49.49-.49,1.48s.16,1.48.49,1.48c5.26,0,9.37-.08,12.33-.25l16.28-.25,16.77.25c2.96.17,6.91.25,11.84.25.33,0,.49-.49.49-1.48s-.17-1.48-.49-1.48c-6.58,0-11.34-.41-14.3-1.23-2.96-.82-4.97-2.38-6.04-4.69-1.07-2.3-1.6-6-1.6-11.1v-31.59h-13.07v31.59Z"/>
      </g>
    </g>
  </g>
</svg>