<?xml version="1.0" encoding="UTF-8"?>
<svg id="Camada_2" data-name="Camada 2" xmlns="http://www.w3.org/2000/svg" viewBox="0 0 606.74 150.95">
  <defs>
    <style>
      .cls-1 {
        fill: #fff;
      }
    </style>
  </defs>
  <g id="Camada_1-2" data-name="Camada 1">
    <g>
      <g>
        <g>
          <path class="cls-1" d="M4.27,19.63c-.21-.49-.62-.82-1.22-1.02-.61-.19-1.57-.29-2.89-.29-.07,0-.1-.1-.1-.31s.03-.31.1-.31l2.61.05c1.46.07,2.62.1,3.49.1,1.01,0,2.24-.03,3.7-.1l2.45-.05c.1,0,.16.1.16.31s-.05.31-.16.31c-1.29,0-2.23.1-2.84.31-.61.21-1.03.57-1.25,1.07-.23.5-.34,1.28-.34,2.32v24.02c0,1.08.1,1.86.31,2.35.21.49.62.82,1.22.99.61.17,1.57.26,2.89.26.1,0,.16.1.16.31s-.05.31-.16.31c-1.04,0-1.88-.02-2.5-.05l-3.65-.05-3.54.05c-.63.04-1.49.05-2.61.05-.07,0-.1-.1-.1-.31s.03-.31.1-.31c1.32,0,2.28-.09,2.89-.26.61-.17,1.02-.51,1.25-1.02.23-.5.34-1.28.34-2.32v-24.13c0-1.04-.1-1.81-.31-2.29ZM20.85,19.37c0-.69-1.03-1.04-3.08-1.04-.07,0-.1-.1-.1-.31s.03-.31.1-.31l2.24.05c1.39.07,2.66.1,3.81.1s2.34-.03,3.6-.1l1.93-.05c.1,0,.16.1.16.31s-.05.31-.16.31c-1.42,0-2.94.31-4.53.94-1.6.63-3.09,1.62-4.48,2.97l-13.34,13.08h-1.3l13.45-13.39c1.15-1.15,1.72-2,1.72-2.55ZM9.38,32.3l2.61-2.08,7.61,9.69c2.54,3.3,4.47,5.63,5.81,6.98s2.37,2.15,3.1,2.4c.73.24,1.79.36,3.18.36.1,0,.16.1.16.31s-.05.31-.16.31h-5.84c-.28,0-.77,0-1.48.03-.71.02-1.71-.87-3-2.66-1.29-1.79-2.52-3.43-3.7-4.92l-8.29-10.42Z"/>
          <path class="cls-1" d="M33.87,49.96c0-.21.03-.31.1-.31,1.15,0,1.98-.09,2.5-.26.52-.17.88-.51,1.07-1.02s.29-1.28.29-2.32v-15.95c0-1.04-.1-1.81-.29-2.29-.19-.49-.55-.82-1.07-1.02s-1.35-.29-2.5-.29c-.07,0-.1-.1-.1-.31s.03-.31.1-.31h18.14c.35,0,.52.14.52.42l.05,3.23c.03.66.05,1.49.05,2.5,0,.1-.1.16-.31.16s-.31-.05-.31-.16c-.14-1.6-.72-2.91-1.75-3.93-1.03-1.02-2.28-1.54-3.78-1.54h-1.46c-1.22,0-2.1.1-2.66.29-.56.19-.94.53-1.15,1.02-.21.49-.31,1.25-.31,2.29v15.69c0,1.01.1,1.76.31,2.27.21.5.6.85,1.17,1.04.57.19,1.45.29,2.63.29h2.5c1.42,0,2.68-.56,3.78-1.69,1.1-1.13,1.83-2.6,2.21-4.4,0-.1.1-.16.29-.16s.29.05.29.16c-.24,2.5-.36,4.55-.36,6.15,0,.28-.05.48-.16.6-.1.12-.31.18-.62.18h-19.07c-.07,0-.1-.1-.1-.31ZM47.76,38.73c-1.37-.23-4.06-.34-8.05-.34v-1.09c3.96,0,6.63-.09,8-.26,1.37-.17,2.14-.26,2.32-.26s.26.36.26,1.09c0,.8-.09,1.2-.26,1.2-.14,0-.89-.11-2.27-.34Z"/>
          <path class="cls-1" d="M65.48,48.09c.19.49.55.83,1.09,1.04.54.21,1.35.31,2.42.31h3.49c1.81,0,3.26-.57,4.35-1.72,1.1-1.15,1.83-2.73,2.21-4.74,0-.07.07-.1.21-.1.1,0,.2.02.29.05.09.03.13.09.13.16-.24,1.6-.37,3.74-.37,6.41,0,.28-.06.48-.18.6s-.32.18-.6.18h-20.38c-.07,0-.1-.1-.1-.31s.03-.31.1-.31c1.15,0,1.98-.09,2.5-.26.52-.17.87-.51,1.04-1.02.17-.5.26-1.28.26-2.32v-15.95c0-1.04-.1-1.81-.29-2.29-.19-.49-.55-.82-1.07-1.02-.52-.19-1.34-.29-2.45-.29-.07,0-.1-.1-.1-.31s.03-.31.1-.31l2.34.05c1.32.07,2.34.1,3.07.1.87,0,1.96-.03,3.28-.1l2.19-.05c.1,0,.16.1.16.31s-.05.31-.16.31c-1.15,0-1.98.1-2.5.29s-.88.54-1.07,1.04c-.19.5-.29,1.28-.29,2.32v15.69c0,1.01.09,1.75.29,2.24Z"/>
          <path class="cls-1" d="M89.61,48.09c.19.49.55.83,1.09,1.04.54.21,1.35.31,2.42.31h3.49c1.81,0,3.26-.57,4.35-1.72,1.1-1.15,1.83-2.73,2.21-4.74,0-.07.07-.1.21-.1.1,0,.2.02.29.05.09.03.13.09.13.16-.24,1.6-.37,3.74-.37,6.41,0,.28-.06.48-.18.6s-.32.18-.6.18h-20.38c-.07,0-.1-.1-.1-.31s.03-.31.1-.31c1.15,0,1.98-.09,2.5-.26.52-.17.87-.51,1.04-1.02.17-.5.26-1.28.26-2.32v-15.95c0-1.04-.1-1.81-.29-2.29-.19-.49-.55-.82-1.07-1.02-.52-.19-1.34-.29-2.45-.29-.07,0-.1-.1-.1-.31s.03-.31.1-.31l2.34.05c1.32.07,2.34.1,3.07.1.87,0,1.96-.03,3.28-.1l2.19-.05c.1,0,.16.1.16.31s-.05.31-.16.31c-1.15,0-1.98.1-2.5.29s-.88.54-1.07,1.04c-.19.5-.29,1.28-.29,2.32v15.69c0,1.01.09,1.75.29,2.24Z"/>
          <path class="cls-1" d="M106.31,49.96c0-.21.03-.31.1-.31,1.15,0,1.98-.09,2.5-.26.52-.17.88-.51,1.07-1.02s.29-1.28.29-2.32v-15.95c0-1.04-.1-1.81-.29-2.29-.19-.49-.55-.82-1.07-1.02s-1.35-.29-2.5-.29c-.07,0-.1-.1-.1-.31s.03-.31.1-.31h18.14c.35,0,.52.14.52.42l.05,3.23c.03.66.05,1.49.05,2.5,0,.1-.1.16-.31.16s-.31-.05-.31-.16c-.14-1.6-.72-2.91-1.75-3.93-1.03-1.02-2.28-1.54-3.78-1.54h-1.46c-1.22,0-2.1.1-2.66.29-.56.19-.94.53-1.15,1.02-.21.49-.31,1.25-.31,2.29v15.69c0,1.01.1,1.76.31,2.27.21.5.6.85,1.17,1.04.57.19,1.45.29,2.63.29h2.5c1.42,0,2.68-.56,3.78-1.69,1.1-1.13,1.83-2.6,2.21-4.4,0-.1.1-.16.29-.16s.29.05.29.16c-.24,2.5-.36,4.55-.36,6.15,0,.28-.05.48-.16.6-.1.12-.31.18-.62.18h-19.07c-.07,0-.1-.1-.1-.31ZM120.2,38.73c-1.37-.23-4.06-.34-8.05-.34v-1.09c3.96,0,6.63-.09,8-.26,1.37-.17,2.14-.26,2.32-.26s.26.36.26,1.09c0,.8-.09,1.2-.26,1.2-.14,0-.89-.11-2.27-.34Z"/>
          <path class="cls-1" d="M141.7,49.96c0,.21-.03.31-.1.31-.97,0-1.72-.02-2.24-.05l-3.28-.05-3.07.05c-.59.04-1.39.05-2.4.05-.07,0-.1-.1-.1-.31s.03-.31.1-.31c1.15,0,1.99-.09,2.53-.26.54-.17.91-.51,1.12-1.02s.31-1.28.31-2.32v-15.95c0-1.04-.1-1.81-.29-2.29-.19-.49-.56-.82-1.1-1.02s-1.38-.29-2.53-.29c-.07,0-.1-.1-.1-.31s.03-.31.1-.31l2.4.05c1.25.07,2.26.1,3.02.1.63,0,1.21-.02,1.75-.05.54-.03,1-.07,1.38-.1,1.11-.1,2.14-.16,3.08-.16,2.26,0,3.98.44,5.16,1.3,1.18.87,1.77,2.12,1.77,3.75,0,1.42-.42,2.74-1.25,3.96-.83,1.22-1.98,2.18-3.44,2.89-1.46.71-3.06,1.07-4.8,1.07-1.11,0-2.07-.07-2.87-.21l-.05-1.04c.87.24,1.96.36,3.28.36,2.15,0,3.66-.48,4.51-1.43.85-.95,1.28-2.35,1.28-4.19,0-3.82-1.65-5.73-4.95-5.73-1.32,0-2.18.28-2.58.83-.4.56-.6,1.53-.6,2.92v15.84c0,1.08.09,1.86.26,2.35.17.49.52.82,1.04.99.52.17,1.37.26,2.55.26.07,0,.1.1.1.31ZM157.18,49.96c0,.21-.03.31-.1.31h-6.1c-.62,0-1.75-1.08-3.39-3.23-1.63-2.15-3.58-5.11-5.84-8.86l2.76-1.09c2.01,3.3,3.7,5.84,5.05,7.61,1.36,1.77,2.61,3.04,3.78,3.8,1.16.77,2.41,1.15,3.73,1.15.07,0,.1.1.1.31Z"/>
          <path class="cls-1" d="M164.32,47.75c.59.78.89,1.92.89,3.41s-.33,3.03-.99,4.4c-.66,1.37-1.63,2.75-2.92,4.14-.03.03-.09.05-.16.05-.1,0-.19-.05-.26-.16s-.07-.19,0-.26c.76-1.08,1.29-2.1,1.56-3.07.28-.97.42-2.07.42-3.28,0-.94-.13-1.69-.39-2.27-.26-.57-.62-1.07-1.07-1.48l1.98-.37c.03.59-.12,1.04-.47,1.36-.35.31-.8.47-1.35.47-.66,0-1.17-.18-1.54-.55-.37-.36-.55-.86-.55-1.49,0-1.39.8-2.08,2.4-2.08,1.04,0,1.86.39,2.45,1.17Z"/>
          <path class="cls-1" d="M185.24,20.31c-1.1,1.11-1.89,3-2.37,5.68,0,.07-.1.1-.29.1s-.29-.03-.29-.1c.14-1.25.29-2.88.47-4.9.17-2.01.26-3.53.26-4.53,0-.17.09-.26.29-.26s.29.09.29.26c0,.76.94,1.15,2.81,1.15,2.99.1,6.48.16,10.47.16,2.05,0,4.22-.03,6.52-.1l3.54-.05c1.25,0,2.18-.09,2.79-.26.61-.17,1-.52,1.17-1.04.03-.14.14-.21.31-.21s.26.07.26.21c-.1,1.01-.21,2.54-.31,4.59-.1,2.05-.16,3.72-.16,5,0,.07-.1.1-.31.1s-.31-.03-.31-.1c-.1-2.71-.66-4.61-1.67-5.71s-2.68-1.64-5-1.64c-1.56,0-2.68.07-3.34.21-.66.14-1.11.44-1.35.89-.24.45-.37,1.22-.37,2.29v24.02c0,1.08.12,1.86.37,2.35.24.49.71.82,1.41.99.69.17,1.79.26,3.28.26.1,0,.16.1.16.31s-.05.31-.16.31c-1.15,0-2.07-.02-2.76-.05l-4.07-.05-3.91.05c-.69.04-1.65.05-2.87.05-.07,0-.1-.1-.1-.31s.03-.31.1-.31c1.49,0,2.59-.09,3.28-.26.69-.17,1.17-.51,1.43-1.02s.39-1.28.39-2.32v-24.13c0-1.08-.12-1.83-.36-2.27-.24-.43-.7-.71-1.36-.83s-1.79-.18-3.39-.18c-2.16,0-3.78.56-4.87,1.67Z"/>
          <path class="cls-1" d="M213.25,49.96c0-.21.03-.31.1-.31,1.15,0,1.98-.09,2.5-.26.52-.17.88-.51,1.07-1.02s.29-1.28.29-2.32v-15.95c0-1.04-.1-1.81-.29-2.29-.19-.49-.55-.82-1.07-1.02s-1.35-.29-2.5-.29c-.07,0-.1-.1-.1-.31s.03-.31.1-.31h18.14c.35,0,.52.14.52.42l.05,3.23c.03.66.05,1.49.05,2.5,0,.1-.1.16-.31.16s-.31-.05-.31-.16c-.14-1.6-.72-2.91-1.75-3.93-1.03-1.02-2.28-1.54-3.78-1.54h-1.46c-1.22,0-2.1.1-2.66.29-.56.19-.94.53-1.15,1.02-.21.49-.31,1.25-.31,2.29v15.69c0,1.01.1,1.76.31,2.27.21.5.6.85,1.17,1.04.57.19,1.45.29,2.63.29h2.5c1.42,0,2.68-.56,3.78-1.69,1.1-1.13,1.83-2.6,2.21-4.4,0-.1.1-.16.29-.16s.29.05.29.16c-.24,2.5-.36,4.55-.36,6.15,0,.28-.05.48-.16.6-.1.12-.31.18-.62.18h-19.07c-.07,0-.1-.1-.1-.31ZM227.14,38.73c-1.37-.23-4.06-.34-8.05-.34v-1.09c3.96,0,6.63-.09,8-.26,1.37-.17,2.14-.26,2.32-.26s.26.36.26,1.09c0,.8-.09,1.2-.26,1.2-.14,0-.89-.11-2.27-.34Z"/>
          <path class="cls-1" d="M244.86,48.09c.19.49.55.83,1.09,1.04.54.21,1.35.31,2.42.31h3.49c1.81,0,3.26-.57,4.35-1.72,1.1-1.15,1.83-2.73,2.21-4.74,0-.07.07-.1.21-.1.1,0,.2.02.29.05.09.03.13.09.13.16-.24,1.6-.37,3.74-.37,6.41,0,.28-.06.48-.18.6s-.32.18-.6.18h-20.38c-.07,0-.1-.1-.1-.31s.03-.31.1-.31c1.15,0,1.98-.09,2.5-.26.52-.17.87-.51,1.04-1.02.17-.5.26-1.28.26-2.32v-15.95c0-1.04-.1-1.81-.29-2.29-.19-.49-.55-.82-1.07-1.02-.52-.19-1.34-.29-2.45-.29-.07,0-.1-.1-.1-.31s.03-.31.1-.31l2.34.05c1.32.07,2.34.1,3.07.1.87,0,1.96-.03,3.28-.1l2.19-.05c.1,0,.16.1.16.31s-.05.31-.16.31c-1.15,0-1.98.1-2.5.29s-.88.54-1.07,1.04c-.19.5-.29,1.28-.29,2.32v15.69c0,1.01.09,1.75.29,2.24Z"/>
          <path class="cls-1" d="M268.99,48.09c.19.49.55.83,1.09,1.04.54.21,1.35.31,2.42.31h3.49c1.81,0,3.26-.57,4.35-1.72,1.1-1.15,1.83-2.73,2.21-4.74,0-.07.07-.1.21-.1.1,0,.2.02.29.05.09.03.13.09.13.16-.24,1.6-.37,3.74-.37,6.41,0,.28-.06.48-.18.6s-.32.18-.6.18h-20.38c-.07,0-.1-.1-.1-.31s.03-.31.1-.31c1.15,0,1.98-.09,2.5-.26.52-.17.87-.51,1.04-1.02.17-.5.26-1.28.26-2.32v-15.95c0-1.04-.1-1.81-.29-2.29-.19-.49-.55-.82-1.07-1.02-.52-.19-1.34-.29-2.45-.29-.07,0-.1-.1-.1-.31s.03-.31.1-.31l2.34.05c1.32.07,2.34.1,3.07.1.87,0,1.96-.03,3.28-.1l2.19-.05c.1,0,.16.1.16.31s-.05.31-.16.31c-1.15,0-1.98.1-2.5.29s-.88.54-1.07,1.04c-.19.5-.29,1.28-.29,2.32v15.69c0,1.01.09,1.75.29,2.24Z"/>
          <path class="cls-1" d="M285.69,49.96c0-.21.03-.31.1-.31,1.15,0,1.98-.09,2.5-.26.52-.17.88-.51,1.07-1.02s.29-1.28.29-2.32v-15.95c0-1.04-.1-1.81-.29-2.29-.19-.49-.55-.82-1.07-1.02s-1.35-.29-2.5-.29c-.07,0-.1-.1-.1-.31s.03-.31.1-.31h18.14c.35,0,.52.14.52.42l.05,3.23c.03.66.05,1.49.05,2.5,0,.1-.1.16-.31.16s-.31-.05-.31-.16c-.14-1.6-.72-2.91-1.75-3.93-1.03-1.02-2.28-1.54-3.78-1.54h-1.46c-1.22,0-2.1.1-2.66.29-.56.19-.94.53-1.15,1.02-.21.49-.31,1.25-.31,2.29v15.69c0,1.01.1,1.76.31,2.27.21.5.6.85,1.17,1.04.57.19,1.45.29,2.63.29h2.5c1.42,0,2.68-.56,3.78-1.69,1.1-1.13,1.83-2.6,2.21-4.4,0-.1.1-.16.29-.16s.29.05.29.16c-.24,2.5-.36,4.55-.36,6.15,0,.28-.05.48-.16.6-.1.12-.31.18-.62.18h-19.07c-.07,0-.1-.1-.1-.31ZM299.58,38.73c-1.37-.23-4.06-.34-8.05-.34v-1.09c3.96,0,6.63-.09,8-.26,1.37-.17,2.14-.26,2.32-.26s.26.36.26,1.09c0,.8-.09,1.2-.26,1.2-.14,0-.89-.11-2.27-.34Z"/>
          <path class="cls-1" d="M315.76,33.73c1.01.92,2.52,1.89,4.53,2.89,1.42.73,2.56,1.39,3.41,1.98.85.59,1.57,1.32,2.16,2.19.59.87.89,1.91.89,3.13,0,1.29-.36,2.46-1.07,3.52-.71,1.06-1.73,1.9-3.05,2.53-1.32.62-2.87.94-4.64.94-2.47,0-4.55-.61-6.25-1.82-.17-.07-.29-.17-.34-.31-.05-.14-.1-.36-.13-.68l-.52-5.16c-.03-.14.04-.23.23-.26.19-.03.32.02.39.16.49,2.02,1.45,3.73,2.89,5.13,1.44,1.41,3.05,2.11,4.82,2.11,1.22,0,2.27-.36,3.15-1.07.89-.71,1.33-1.81,1.33-3.31,0-1.6-.52-2.9-1.56-3.91-1.04-1.01-2.55-2.03-4.53-3.07-1.39-.76-2.49-1.43-3.31-2.01-.82-.57-1.5-1.28-2.06-2.11-.56-.83-.83-1.84-.83-3.02,0-1.98.76-3.53,2.29-4.64,1.53-1.11,3.39-1.67,5.58-1.67,1.77,0,3.51.4,5.21,1.2.31.17.51.31.6.42.09.1.15.26.18.47l.31,4.53c0,.14-.1.23-.29.26-.19.03-.31-.02-.34-.16-.17-.87-.57-1.76-1.17-2.68-.61-.92-1.38-1.69-2.32-2.32s-1.98-.94-3.13-.94c-1.25,0-2.22.38-2.92,1.15-.7.77-1.04,1.74-1.04,2.92,0,1.49.5,2.7,1.51,3.62Z"/>
          <g>
            <path class="cls-1" d="M127.13,76.98c.99.61,1.49,1.68,1.49,3.21,0,1.08-.26,2.03-.78,2.87s-1.16,1.56-1.9,2.16c-.75.61-1.76,1.33-3.05,2.16-1.29.87-2.31,1.62-3.07,2.24-.76.62-1.41,1.36-1.93,2.21-.52.85-.78,1.82-.78,2.89,0,1.67.59,3.01,1.77,4.04,1.18,1.03,2.67,1.54,4.48,1.54s3.3-.45,4.69-1.36c1.39-.9,2.48-2.07,3.28-3.49.8-1.42,1.2-2.9,1.2-4.43,0-2.15-1.04-3.23-3.13-3.23-.1,0-.17-.1-.18-.31s.04-.31.18-.31l8.96-.05c.14,0,.21.1.21.31s-.07.31-.21.31c-.9,0-1.57.1-2.01.31-.43.21-.73.48-.89.81-.16.33-.37.91-.65,1.75-.87,2.85-2.36,5.41-4.48,7.69-2.12,2.28-5.09,3.41-8.91,3.41-2.47,0-4.32-.52-5.55-1.56-1.23-1.04-1.85-2.33-1.85-3.86s.49-2.72,1.46-3.78c.97-1.06,2.43-2.28,4.38-3.67,1.98-1.42,3.48-2.69,4.51-3.8,1.03-1.11,1.54-2.45,1.54-4.01,0-1.22-.33-2.18-.99-2.89-.66-.71-1.53-1.07-2.61-1.07-.9,0-1.61.3-2.11.89-.5.59-.76,1.46-.76,2.61,0,1.88.86,4.1,2.58,6.67,1.72,2.57,3.97,5.04,6.75,7.4,2.12,1.81,4.19,3.22,6.2,4.25,2.01,1.03,3.54,1.56,4.59,1.59.1,0,.16.1.16.31s-.05.31-.16.31h-5.37c-.76,0-1.87-.43-3.31-1.28-1.44-.85-3.07-2.09-4.87-3.73-1.67-1.46-3.32-3.11-4.95-4.95-1.63-1.84-2.8-3.51-3.49-5-.63-1.36-.94-2.61-.94-3.75,0-1.25.33-2.35.99-3.31.66-.96,1.54-1.69,2.63-2.21,1.09-.52,2.25-.78,3.47-.78,1.28,0,2.42.3,3.41.91Z"/>
            <path class="cls-1" d="M169.84,101.24c-.28,0-.47-.07-.57-.21l-12.98-28.19c-.62-1.39-1.25-2.35-1.88-2.89-.63-.54-1.48-.81-2.55-.81-.1,0-.16-.1-.16-.31s.05-.31.16-.31l1.98.05c.97.07,1.75.1,2.35.1,1.25,0,2.61-.03,4.06-.1l2.14-.05c.1,0,.16.1.16.31s-.05.31-.16.31c-1.04,0-1.82.12-2.32.36-.5.24-.76.66-.76,1.25,0,.52.17,1.15.52,1.88l11.57,24.86-1.88,2.5,6.83-17.04.78,1.15-6.72,16.94c-.03.14-.23.21-.57.21ZM200.74,68.83c0,.21-.03.31-.1.31-1.18,0-2.21.31-3.07.94-.87.63-1.62,1.69-2.24,3.18l-11.1,27.78c-.03.14-.23.21-.57.21-.28,0-.47-.07-.57-.21l-12.92-28.19c-.63-1.36-1.25-2.31-1.88-2.87-.62-.56-1.44-.83-2.45-.83-.1,0-.16-.1-.16-.31s.05-.31.16-.31l1.98.05c.9.07,1.65.1,2.24.1.97,0,1.98-.03,3.02-.1l1.41-.05c.1,0,.16.1.16.31s-.05.31-.16.31c-.63,0-1.08.06-1.36.18-.28.12-.42.34-.42.65,0,.42.31,1.3.94,2.66l11.62,24.86-1.88,2.5,10.79-26.94c.28-.73.42-1.3.42-1.72,0-.76-.32-1.32-.96-1.67-.64-.35-1.64-.52-3-.52-.1,0-.16-.1-.16-.31s.05-.31.16-.31l2.19.05c1.18.07,2.24.1,3.18.1.69,0,1.49-.03,2.4-.1l2.24-.05c.07,0,.1.1.1.31ZM181.2,70.65c0-1.01-.75-1.51-2.24-1.51-.1,0-.16-.1-.16-.31s.05-.31.16-.31l1.2.05c.69.07,1.42.1,2.19.1.69,0,1.49-.03,2.4-.1l2.14-.05c.07,0,.1.1.1.31s-.03.31-.1.31c-1.18,0-2.18.3-3,.91-.82.61-1.54,1.68-2.16,3.21l-4.33,10.84-.78-1.15,3.96-10.01c.42-.94.62-1.7.62-2.29Z"/>
            <path class="cls-1" d="M223.98,100.77c0,.21-.07.31-.21.31-.63,0-1.63-.03-3.02-.1-1.39-.07-2.4-.1-3.02-.1-.55,0-1.29.03-2.19.1-.9.07-1.6.1-2.08.1-.14,0-.21-.1-.21-.31s.07-.31.21-.31c.94,0,1.62-.11,2.06-.34.44-.23.65-.62.65-1.17,0-.49-.23-1.23-.68-2.24l-7.92-17.09,1.35-1.15-6.51,16.21c-.56,1.32-.83,2.42-.83,3.28s.31,1.55.94,1.93c.62.38,1.58.57,2.87.57.17,0,.26.1.26.31s-.09.31-.26.31c-.52,0-1.23-.03-2.14-.1-.97-.07-1.88-.1-2.71-.1s-1.89.03-3.08.1c-1.04.07-1.88.1-2.5.1-.17,0-.26-.1-.26-.31s.09-.31.26-.31c1.08,0,1.93-.15,2.55-.44.62-.29,1.21-.88,1.75-1.75.54-.87,1.19-2.22,1.95-4.07l7.5-18.29c.07-.14.17-.21.31-.21s.23.07.26.21l8.39,18.03c.9,1.95,1.62,3.35,2.16,4.22.54.87,1.09,1.47,1.67,1.8.57.33,1.33.5,2.27.5.14,0,.21.1.21.31ZM204.65,88.16h9.48l.37.94h-10.68l.83-.94Z"/>
            <path class="cls-1" d="M226.8,77.92c-.76.36-1.36.98-1.8,1.85-.43.87-.77,2.1-1.02,3.7,0,.07-.1.1-.29.1s-.29-.03-.29-.1c.1-.8.23-2.08.36-3.86.14-1.77.21-3.13.21-4.07,0-.17.1-.26.31-.26s.31.09.31.26c0,.45.26.74.78.86.52.12,1.16.18,1.93.18,3.06.07,5.68.1,7.87.1l4.53-.05c.63-.03,1.44-.05,2.45-.05,1.25,0,2.17-.08,2.76-.23.59-.16.97-.5,1.15-1.02.07-.1.19-.16.37-.16s.26.05.26.16c-.21,3.75-.31,6.46-.31,8.13,0,.07-.1.1-.29.1s-.29-.03-.29-.1c-.03-1.56-.22-2.78-.55-3.65s-.88-1.49-1.64-1.88-1.82-.57-3.18-.57c-1.49,0-2.49.23-3,.7s-.76,1.42-.76,2.84v15.95c0,1.08.1,1.86.31,2.35.21.49.62.82,1.22.99.61.17,1.59.26,2.94.26.1,0,.16.1.16.31s-.05.31-.16.31c-1.08,0-1.91-.02-2.5-.05l-3.65-.05-3.49.05c-.63.04-1.5.05-2.61.05-.07,0-.1-.1-.1-.31s.03-.31.1-.31c1.32,0,2.29-.09,2.92-.26.63-.17,1.05-.51,1.28-1.02s.34-1.28.34-2.32v-16.05c0-1.01-.08-1.75-.23-2.21-.16-.47-.48-.79-.96-.96-.49-.17-1.27-.26-2.35-.26-1.32,0-2.36.18-3.13.55Z"/>
            <path class="cls-1" d="M255.56,84.54c1.01.92,2.52,1.89,4.53,2.89,1.42.73,2.56,1.39,3.41,1.98.85.59,1.57,1.32,2.16,2.19.59.87.89,1.91.89,3.13,0,1.29-.36,2.46-1.07,3.52-.71,1.06-1.73,1.9-3.05,2.53-1.32.62-2.87.94-4.64.94-2.47,0-4.55-.61-6.25-1.82-.17-.07-.29-.17-.34-.31-.05-.14-.1-.36-.13-.68l-.52-5.16c-.03-.14.04-.23.23-.26.19-.03.32.02.39.16.49,2.02,1.45,3.73,2.89,5.13,1.44,1.41,3.05,2.11,4.82,2.11,1.22,0,2.27-.36,3.15-1.07.89-.71,1.33-1.81,1.33-3.31,0-1.6-.52-2.9-1.56-3.91-1.04-1.01-2.55-2.03-4.53-3.07-1.39-.76-2.49-1.43-3.31-2.01-.82-.57-1.5-1.28-2.06-2.11-.56-.83-.83-1.84-.83-3.02,0-1.98.76-3.53,2.29-4.64,1.53-1.11,3.39-1.67,5.58-1.67,1.77,0,3.51.4,5.21,1.2.31.17.51.31.6.42.09.1.15.26.18.47l.31,4.53c0,.14-.1.23-.29.26-.19.03-.31-.02-.34-.16-.17-.87-.57-1.76-1.17-2.68-.61-.92-1.38-1.69-2.32-2.32s-1.98-.94-3.13-.94c-1.25,0-2.22.38-2.92,1.15-.7.77-1.04,1.74-1.04,2.92,0,1.49.5,2.7,1.51,3.62Z"/>
            <path class="cls-1" d="M276.23,99.99c-1.89-1.15-3.36-2.69-4.4-4.64-1.04-1.95-1.56-4.05-1.56-6.31,0-2.71.7-5.05,2.11-7.01,1.41-1.96,3.19-3.45,5.37-4.46,2.17-1.01,4.39-1.51,6.64-1.51,2.43,0,4.58.6,6.44,1.8,1.86,1.2,3.28,2.75,4.27,4.66.99,1.91,1.49,3.91,1.49,5.99,0,2.33-.63,4.51-1.88,6.54-1.25,2.03-2.94,3.65-5.06,4.85-2.12,1.2-4.43,1.8-6.93,1.8s-4.6-.57-6.49-1.72ZM290.56,97.75c1.61-1.91,2.42-4.55,2.42-7.92,0-2.33-.41-4.45-1.22-6.36-.82-1.91-2.01-3.44-3.57-4.59-1.56-1.15-3.42-1.72-5.58-1.72-2.78,0-4.93.93-6.46,2.79-1.53,1.86-2.29,4.46-2.29,7.79,0,2.4.41,4.57,1.22,6.51.82,1.95,2,3.49,3.54,4.64s3.36,1.72,5.45,1.72c2.71,0,4.87-.96,6.49-2.87Z"/>
            <path class="cls-1" d="M322.74,101.81c-.17.03-.3.02-.37-.05l-17.09-20.79c-1.11-1.32-2.08-2.26-2.89-2.81-.82-.56-1.61-.83-2.37-.83-.07,0-.1-.1-.1-.31s.03-.31.1-.31l2.92.05,2.76-.05c.24,0,.44.07.6.21.16.14.39.44.7.89.28.45.66.99,1.15,1.62l14.33,17.67.52,4.59c0,.07-.09.12-.26.16ZM303.56,77.84l1.04.16v17.41c0,1.84.26,3.14.78,3.91.52.77,1.42,1.15,2.71,1.15.07,0,.1.1.1.31s-.03.31-.1.31c-.76,0-1.36-.02-1.77-.05l-2.19-.05-2.24.05c-.45.04-1.08.05-1.88.05-.07,0-.1-.1-.1-.31s.03-.31.1-.31c1.28,0,2.2-.38,2.73-1.15.54-.76.81-2.07.81-3.91v-17.56ZM323,101.66l-1.04-1.61v-17.67c0-1.84-.25-3.14-.76-3.91-.5-.76-1.4-1.15-2.68-1.15-.1,0-.16-.1-.16-.31s.05-.31.16-.31l1.77.05c.9.07,1.63.1,2.19.1s1.32-.03,2.29-.1l1.82-.05c.1,0,.16.1.16.31s-.05.31-.16.31c-1.29,0-2.21.38-2.76,1.15-.55.76-.83,2.07-.83,3.91v19.28Z"/>
          </g>
        </g>
        <g>
          <path class="cls-1" d="M221.72,134.31c0,.1-.03.15-.1.15-.31,0-.79-.02-1.45-.05-.66-.03-1.13-.05-1.43-.05-.36,0-.82.02-1.38.05-.52.03-.93.05-1.2.05-.07,0-.1-.05-.1-.15s.03-.15.1-.15c.62,0,1.07-.06,1.34-.17.27-.11.41-.32.41-.61,0-.25-.1-.59-.29-1.03l-5.46-11.53.61-.76-4.77,11.28c-.23.56-.34,1.02-.34,1.38,0,.97.8,1.45,2.41,1.45.08,0,.12.05.12.15s-.04.15-.12.15c-.29,0-.72-.02-1.28-.05-.62-.03-1.16-.05-1.62-.05-.43,0-.92.02-1.47.05-.49.03-.9.05-1.23.05-.08,0-.12-.05-.12-.15s.04-.15.12-.15c.46,0,.85-.09,1.17-.26.32-.17.62-.48.91-.91.29-.43.6-1.06.95-1.88l5.19-12.24s.09-.07.17-.07.13.02.15.07l5.8,12.22c.56,1.21,1.03,2.03,1.43,2.45.39.42.86.63,1.4.63.07,0,.1.05.1.15ZM210.05,125.81h5.06l.17.52h-5.6l.37-.52Z"/>
          <path class="cls-1" d="M226.88,134.49c-.2-.02-.44-.03-.74-.05-.3-.02-.63-.02-1.01-.02l-1.45.02c-.28.02-.66.02-1.13.02-.03,0-.05-.05-.05-.15s.02-.15.05-.15c.56,0,.96-.04,1.22-.12.25-.08.43-.24.52-.48.09-.24.13-.6.13-1.09v-7.52c0-.49-.05-.85-.13-1.08-.09-.23-.26-.39-.52-.48s-.65-.14-1.19-.14c-.03,0-.05-.05-.05-.15s.02-.15.05-.15l1.11.02c.62.03,1.11.05,1.45.05.51,0,1.02-.02,1.52-.07.66-.03,1.15-.05,1.47-.05,1.38,0,2.56.25,3.56.74,1,.49,1.76,1.17,2.29,2.04.52.87.79,1.85.79,2.95s-.27,2.15-.81,3.05c-.54.9-1.29,1.61-2.25,2.11-.96.51-2.05.76-3.28.76-.46,0-.98-.02-1.55-.07ZM231.73,132.84c.85-.92,1.28-2.23,1.28-3.93s-.42-2.99-1.27-4.06c-.84-1.06-2.11-1.6-3.8-1.6-.75,0-1.28.12-1.59.37-.3.25-.45.7-.45,1.38v7.2c0,.74.15,1.26.45,1.56.3.3.9.45,1.78.45,1.54,0,2.74-.46,3.59-1.38Z"/>
          <path class="cls-1" d="M248.37,123.11c0,.1-.02.15-.05.15-.48,0-.88.14-1.22.41s-.64.73-.9,1.39l-3.71,9.39c-.02.07-.11.1-.27.1s-.25-.03-.27-.1l-4.47-9.44c-.33-.69-.61-1.15-.86-1.39-.25-.24-.58-.36-1.01-.36-.05,0-.07-.05-.07-.15s.02-.15.07-.15l.93.02c.46.03.82.05,1.08.05.41,0,.91-.02,1.5-.05l.98-.02s.05.05.05.15-.02.15-.05.15c-.85,0-1.28.25-1.28.76,0,.18.07.43.2.74l3.88,8.04-.76,1.38,3.54-9.27c.11-.34.17-.59.17-.74,0-.61-.55-.91-1.65-.91-.05,0-.07-.05-.07-.15s.02-.15.07-.15l.88.02c.49.03.93.05,1.33.05.26,0,.59-.02.98-.05l.91-.02s.05.05.05.15Z"/>
          <path class="cls-1" d="M251.92,133.95c-.89-.54-1.59-1.27-2.08-2.19-.49-.92-.74-1.91-.74-2.97,0-1.28.33-2.38,1-3.31.66-.93,1.51-1.63,2.53-2.1,1.02-.48,2.07-.71,3.13-.71,1.15,0,2.16.28,3.04.85.88.57,1.55,1.3,2.02,2.2.47.9.7,1.84.7,2.83,0,1.1-.3,2.13-.88,3.08-.59.96-1.39,1.72-2.38,2.29-1,.57-2.09.85-3.27.85s-2.17-.27-3.06-.81ZM258.68,132.89c.76-.9,1.14-2.15,1.14-3.74,0-1.1-.19-2.1-.58-3-.39-.9-.95-1.62-1.68-2.16-.74-.54-1.61-.81-2.63-.81-1.31,0-2.33.44-3.05,1.31-.72.88-1.08,2.1-1.08,3.68,0,1.13.19,2.16.58,3.07.38.92.94,1.65,1.67,2.19s1.59.81,2.57.81c1.28,0,2.3-.45,3.06-1.35Z"/>
          <path class="cls-1" d="M266.27,133.93c-.98-.55-1.72-1.27-2.22-2.18-.51-.9-.76-1.85-.76-2.85,0-1.28.29-2.39.86-3.33.57-.94,1.39-1.66,2.46-2.16,1.06-.5,2.32-.75,3.76-.75.69,0,1.34.07,1.97.2s1.15.32,1.57.57c.1.05.16.11.18.2s.04.2.06.34l.25,2.31s-.05.08-.14.09c-.09,0-.14-.01-.16-.06-.36-1.13-.9-1.96-1.62-2.48-.72-.52-1.62-.79-2.7-.79-1.44,0-2.6.5-3.47,1.49-.87.99-1.3,2.35-1.3,4.07,0,1.13.22,2.13.65,3.01.43.88,1.05,1.56,1.84,2.05.79.49,1.72.74,2.79.74.82,0,1.42-.07,1.81-.22.38-.15.65-.43.79-.85s.21-1.07.21-1.95c0-.43-.04-.73-.13-.9-.09-.17-.28-.29-.57-.34-.29-.06-.79-.09-1.51-.09-.1,0-.15-.07-.15-.2,0-.05.01-.09.04-.14.02-.04.05-.06.09-.06.85.07,1.71.1,2.58.1.39,0,1.05-.02,1.97-.05.03,0,.06.02.09.06.02.04.04.08.04.11,0,.11-.04.17-.12.17-.33-.02-.56,0-.69.07-.13.07-.21.2-.25.41-.03.21-.05.57-.05,1.09,0,.74.02,1.25.05,1.55.03.29.05.5.05.61,0,.1-.01.16-.04.18-.02.02-.1.06-.23.11-1.08.46-2.6.69-4.55.69-1.31,0-2.45-.27-3.43-.82Z"/>
          <path class="cls-1" d="M289.86,134.31c0,.1-.03.15-.1.15-.3,0-.77-.02-1.43-.05-.66-.03-1.13-.05-1.43-.05-.26,0-.61.02-1.03.05-.43.03-.75.05-.98.05-.07,0-.1-.05-.1-.15s.03-.15.1-.15c.44,0,.77-.05.97-.16.21-.11.31-.29.31-.55,0-.23-.11-.58-.32-1.06l-3.74-8.06.64-.54-3.07,7.64c-.26.62-.39,1.14-.39,1.55s.15.73.44.91c.29.18.75.27,1.35.27.08,0,.12.05.12.15s-.04.15-.12.15c-.25,0-.58-.02-1.01-.05-.46-.03-.89-.05-1.28-.05s-.89.02-1.45.05c-.49.03-.88.05-1.18.05-.08,0-.12-.05-.12-.15s.04-.15.12-.15c.51,0,.91-.07,1.2-.21.29-.14.57-.41.82-.82.25-.41.56-1.05.92-1.92l3.54-8.63c.03-.07.08-.1.15-.1s.11.03.12.1l3.96,8.5c.43.92.77,1.58,1.02,1.99.25.41.52.69.79.85.27.16.63.23,1.07.23.07,0,.1.05.1.15ZM280.74,128.37h4.47l.17.44h-5.04l.39-.44Z"/>
          <path class="cls-1" d="M295.02,134.49c-.2-.02-.44-.03-.74-.05-.3-.02-.63-.02-1.01-.02l-1.45.02c-.28.02-.66.02-1.13.02-.03,0-.05-.05-.05-.15s.02-.15.05-.15c.56,0,.96-.04,1.22-.12.25-.08.43-.24.52-.48.09-.24.13-.6.13-1.09v-7.52c0-.49-.05-.85-.13-1.08-.09-.23-.26-.39-.52-.48s-.65-.14-1.19-.14c-.03,0-.05-.05-.05-.15s.02-.15.05-.15l1.11.02c.62.03,1.11.05,1.45.05.51,0,1.02-.02,1.52-.07.66-.03,1.15-.05,1.47-.05,1.38,0,2.56.25,3.56.74,1,.49,1.76,1.17,2.29,2.04.52.87.79,1.85.79,2.95s-.27,2.15-.81,3.05c-.54.9-1.29,1.61-2.25,2.11-.96.51-2.05.76-3.28.76-.46,0-.98-.02-1.55-.07ZM299.86,132.84c.85-.92,1.28-2.23,1.28-3.93s-.42-2.99-1.27-4.06c-.84-1.06-2.11-1.6-3.8-1.6-.75,0-1.28.12-1.59.37-.3.25-.45.7-.45,1.38v7.2c0,.74.15,1.26.45,1.56.3.3.9.45,1.78.45,1.54,0,2.74-.46,3.59-1.38Z"/>
          <path class="cls-1" d="M307.49,133.95c-.89-.54-1.59-1.27-2.08-2.19-.49-.92-.74-1.91-.74-2.97,0-1.28.33-2.38,1-3.31.66-.93,1.51-1.63,2.53-2.1,1.02-.48,2.07-.71,3.13-.71,1.15,0,2.16.28,3.04.85.88.57,1.55,1.3,2.02,2.2.47.9.7,1.84.7,2.83,0,1.1-.3,2.13-.88,3.08-.59.96-1.39,1.72-2.38,2.29-1,.57-2.09.85-3.27.85s-2.17-.27-3.06-.81ZM314.25,132.89c.76-.9,1.14-2.15,1.14-3.74,0-1.1-.19-2.1-.58-3-.39-.9-.95-1.62-1.68-2.16-.74-.54-1.61-.81-2.63-.81-1.31,0-2.33.44-3.05,1.31-.72.88-1.08,2.1-1.08,3.68,0,1.13.19,2.16.58,3.07.38.92.94,1.65,1.67,2.19s1.59.81,2.57.81c1.28,0,2.3-.45,3.06-1.35Z"/>
          <path class="cls-1" d="M321.57,126.66c.48.43,1.19.89,2.14,1.36.67.34,1.21.66,1.61.93.4.28.74.62,1.02,1.03.28.41.42.9.42,1.48,0,.61-.17,1.16-.5,1.66-.34.5-.82.9-1.44,1.19-.62.29-1.35.44-2.19.44-1.16,0-2.15-.29-2.95-.86-.08-.03-.14-.08-.16-.15-.02-.07-.05-.17-.06-.32l-.25-2.43c-.02-.07.02-.11.11-.12.09-.02.15,0,.18.07.23.95.68,1.76,1.36,2.42.68.66,1.44,1,2.27,1,.57,0,1.07-.17,1.49-.5.42-.34.63-.86.63-1.56,0-.75-.25-1.37-.74-1.84-.49-.47-1.2-.96-2.14-1.45-.66-.36-1.18-.68-1.56-.95-.38-.27-.71-.6-.97-1-.26-.39-.39-.87-.39-1.43,0-.93.36-1.66,1.08-2.19.72-.52,1.6-.79,2.63-.79.84,0,1.66.19,2.46.57.15.08.24.15.28.2.04.05.07.12.09.22l.15,2.14c0,.07-.05.11-.13.12-.09.02-.14,0-.16-.07-.08-.41-.27-.83-.55-1.27-.29-.43-.65-.8-1.09-1.09s-.93-.44-1.47-.44c-.59,0-1.05.18-1.38.54-.33.36-.49.82-.49,1.38,0,.7.24,1.27.71,1.71Z"/>
        </g>
      </g>
      <g>
        <path class="cls-1" d="M375.86,46.7c-.44-1.02-1.3-1.74-2.58-2.14-1.28-.4-3.31-.6-6.08-.6-.15,0-.22-.22-.22-.66s.07-.66.22-.66l5.48.11c3.07.15,5.52.22,7.35.22,2.12,0,4.71-.07,7.78-.22l5.15-.11c.22,0,.33.22.33.66s-.11.66-.33.66c-2.7,0-4.7.22-5.97.66-1.28.44-2.16,1.19-2.63,2.25-.48,1.06-.71,2.69-.71,4.88v50.54c0,2.27.22,3.91.66,4.93.44,1.02,1.3,1.72,2.58,2.08,1.28.37,3.31.55,6.08.55.22,0,.33.22.33.66s-.11.66-.33.66c-2.19,0-3.95-.04-5.26-.11l-7.67-.11-7.45.11c-1.32.07-3.14.11-5.48.11-.15,0-.22-.22-.22-.66s.07-.66.22-.66c2.78,0,4.8-.18,6.08-.55,1.28-.36,2.15-1.08,2.63-2.14.47-1.06.71-2.69.71-4.88v-50.76c0-2.19-.22-3.8-.66-4.82ZM410.72,46.15c0-1.46-2.16-2.19-6.47-2.19-.15,0-.22-.22-.22-.66s.07-.66.22-.66l4.71.11c2.92.15,5.59.22,8,.22s4.93-.07,7.56-.22l4.06-.11c.22,0,.33.22.33.66s-.11.66-.33.66c-3,0-6.18.66-9.54,1.97-3.36,1.32-6.51,3.4-9.43,6.25l-28.07,27.52h-2.74l28.28-28.18c2.41-2.41,3.62-4.2,3.62-5.37ZM386.6,73.34l5.48-4.39,16.01,20.39c5.33,6.94,9.41,11.84,12.22,14.69,2.81,2.85,4.99,4.53,6.52,5.04,1.53.51,3.76.77,6.69.77.22,0,.33.22.33.66s-.11.66-.33.66h-12.28c-.59,0-1.63.02-3.12.05-1.5.04-3.6-1.83-6.3-5.59-2.7-3.76-5.3-7.22-7.78-10.36l-17.43-21.93Z"/>
        <path class="cls-1" d="M444.87,48.12c-2.3,2.34-3.97,6.32-4.99,11.95,0,.15-.2.22-.6.22s-.6-.07-.6-.22c.29-2.63.62-6.07.99-10.31.36-4.24.55-7.42.55-9.54,0-.36.2-.55.6-.55s.6.18.6.55c0,1.61,1.97,2.41,5.92,2.41,6.29.22,13.63.33,22.04.33,4.31,0,8.88-.07,13.7-.22l7.46-.11c2.63,0,4.59-.18,5.87-.55,1.28-.36,2.1-1.1,2.47-2.19.07-.29.29-.44.66-.44s.55.15.55.44c-.22,2.12-.44,5.34-.66,9.65-.22,4.31-.33,7.82-.33,10.52,0,.15-.22.22-.66.22s-.66-.07-.66-.22c-.22-5.7-1.39-9.7-3.51-12-2.12-2.3-5.63-3.45-10.52-3.45-3.29,0-5.63.15-7.02.44-1.39.29-2.34.91-2.85,1.86-.51.95-.77,2.56-.77,4.82v50.54c0,2.27.25,3.91.77,4.93.51,1.02,1.5,1.72,2.96,2.08,1.46.37,3.76.55,6.91.55.22,0,.33.22.33.66s-.11.66-.33.66c-2.41,0-4.35-.04-5.81-.11l-8.55-.11-8.22.11c-1.46.07-3.47.11-6.03.11-.15,0-.22-.22-.22-.66s.07-.66.22-.66c3.14,0,5.44-.18,6.91-.55,1.46-.36,2.47-1.08,3.02-2.14.55-1.06.82-2.69.82-4.88v-50.76c0-2.26-.26-3.85-.77-4.77-.51-.91-1.46-1.5-2.85-1.75-1.39-.26-3.76-.38-7.13-.38-4.53,0-7.95,1.17-10.25,3.51Z"/>
        <path class="cls-1" d="M541.73,111.49c-.59,0-.99-.15-1.21-.44l-27.3-59.31c-1.32-2.92-2.63-4.95-3.95-6.08-1.32-1.13-3.11-1.7-5.37-1.7-.22,0-.33-.22-.33-.66s.11-.66.33-.66l4.17.11c2.05.15,3.69.22,4.93.22,2.63,0,5.48-.07,8.55-.22l4.5-.11c.22,0,.33.22.33.66s-.11.66-.33.66c-2.19,0-3.82.26-4.88.77-1.06.51-1.59,1.39-1.59,2.63,0,1.1.36,2.41,1.1,3.95l24.34,52.29-3.95,5.26,14.36-35.85,1.64,2.41-14.14,35.63c-.07.29-.48.44-1.21.44ZM606.74,43.3c0,.44-.07.66-.22.66-2.49,0-4.64.66-6.47,1.97-1.83,1.32-3.4,3.55-4.71,6.69l-23.35,58.43c-.07.29-.48.44-1.21.44-.59,0-.99-.15-1.21-.44l-27.19-59.31c-1.32-2.85-2.63-4.86-3.95-6.03-1.32-1.17-3.03-1.75-5.15-1.75-.22,0-.33-.22-.33-.66s.11-.66.33-.66l4.17.11c1.9.15,3.47.22,4.71.22,2.05,0,4.17-.07,6.36-.22l2.96-.11c.22,0,.33.22.33.66s-.11.66-.33.66c-1.32,0-2.27.13-2.85.38-.59.26-.88.71-.88,1.37,0,.88.66,2.74,1.97,5.59l24.45,52.29-3.95,5.26,22.69-56.68c.58-1.53.88-2.74.88-3.62,0-1.61-.68-2.78-2.03-3.51-1.35-.73-3.45-1.1-6.3-1.1-.22,0-.33-.22-.33-.66s.11-.66.33-.66l4.6.11c2.48.15,4.71.22,6.69.22,1.46,0,3.14-.07,5.04-.22l4.71-.11c.15,0,.22.22.22.66ZM565.63,47.14c0-2.12-1.57-3.18-4.71-3.18-.22,0-.33-.22-.33-.66s.11-.66.33-.66l2.52.11c1.46.15,3,.22,4.6.22,1.46,0,3.14-.07,5.04-.22l4.5-.11c.15,0,.22.22.22.66s-.07.66-.22.66c-2.49,0-4.59.64-6.3,1.92-1.72,1.28-3.23,3.53-4.55,6.74l-9.1,22.8-1.64-2.41,8.33-21.05c.88-1.97,1.32-3.58,1.32-4.82Z"/>
      </g>
      <rect class="cls-1" x="346.76" width="2.69" height="150.95"/>
    </g>
  </g>
</svg>