<?xml version="1.0" encoding="UTF-8"?>
<svg id="Camada_2" data-name="Camada 2" xmlns="http://www.w3.org/2000/svg" viewBox="0 0 916.43 71.86">
  <defs>
    <style>
      .cls-1 {
        fill: #fff;
      }
    </style>
  </defs>
  <g id="Camada_1-2" data-name="Camada 1">
    <g>
      <path class="cls-1" d="M7.05,5.67c-.34-.8-1.02-1.36-2.02-1.68-1-.31-2.59-.47-4.77-.47-.12,0-.17-.17-.17-.52s.06-.52.17-.52l4.3.09c2.41.12,4.33.17,5.76.17,1.66,0,3.7-.06,6.1-.17l4.04-.09c.17,0,.26.17.26.52s-.09.52-.26.52c-2.12,0-3.68.17-4.68.52-1,.34-1.69.93-2.06,1.76-.37.83-.56,2.11-.56,3.82v39.62c0,1.78.17,3.07.52,3.87.34.8,1.02,1.35,2.02,1.63,1,.29,2.59.43,4.77.43.17,0,.26.17.26.52s-.09.52-.26.52c-1.72,0-3.09-.03-4.12-.09l-6.02-.09-5.85.09c-1.03.06-2.46.09-4.3.09-.12,0-.17-.17-.17-.52s.06-.52.17-.52c2.18,0,3.77-.14,4.77-.43,1-.29,1.69-.84,2.06-1.68.37-.83.56-2.11.56-3.83V9.45c0-1.72-.17-2.98-.52-3.78ZM34.38,5.24c0-1.15-1.69-1.72-5.07-1.72-.12,0-.17-.17-.17-.52s.06-.52.17-.52l3.7.09c2.29.12,4.38.17,6.27.17s3.87-.06,5.93-.17l3.18-.09c.17,0,.26.17.26.52s-.09.52-.26.52c-2.35,0-4.84.52-7.48,1.55-2.64,1.03-5.1,2.66-7.39,4.9L11.52,31.54h-2.15L31.54,9.45c1.89-1.89,2.84-3.29,2.84-4.21ZM15.47,26.56l4.3-3.44,12.55,15.99c4.18,5.44,7.38,9.28,9.58,11.52,2.21,2.23,3.91,3.55,5.11,3.95,1.2.4,2.95.6,5.24.6.17,0,.26.17.26.52s-.09.52-.26.52h-9.63c-.46,0-1.28.01-2.45.04-1.17.03-2.82-1.43-4.94-4.38-2.12-2.95-4.16-5.66-6.1-8.12l-13.67-17.19Z"/>
      <path class="cls-1" d="M55.87,55.7c0-.34.06-.52.17-.52,1.89,0,3.27-.14,4.12-.43.86-.29,1.45-.84,1.76-1.68.31-.83.47-2.11.47-3.83v-26.3c0-1.72-.16-2.98-.47-3.78-.32-.8-.9-1.36-1.76-1.68-.86-.31-2.23-.47-4.12-.47-.12,0-.17-.17-.17-.52s.06-.52.17-.52h29.91c.57,0,.86.23.86.69l.09,5.33c.06,1.09.09,2.46.09,4.13,0,.17-.17.26-.52.26s-.52-.09-.52-.26c-.23-2.63-1.19-4.8-2.88-6.49-1.69-1.69-3.77-2.54-6.23-2.54h-2.41c-2.01,0-3.47.16-4.38.47-.92.32-1.55.87-1.89,1.68-.34.8-.52,2.06-.52,3.78v25.87c0,1.66.17,2.91.52,3.74.34.83.99,1.4,1.93,1.72.95.32,2.39.47,4.34.47h4.13c2.35,0,4.43-.93,6.23-2.79,1.8-1.86,3.02-4.28,3.65-7.26,0-.17.16-.26.47-.26s.47.09.47.26c-.4,4.13-.6,7.51-.6,10.14,0,.46-.09.79-.26.99-.17.2-.52.3-1.03.3h-31.46c-.12,0-.17-.17-.17-.52ZM78.78,37.17c-2.26-.37-6.69-.56-13.28-.56v-1.81c6.53,0,10.93-.14,13.19-.43,2.26-.29,3.54-.43,3.83-.43s.43.6.43,1.81c0,1.32-.14,1.98-.43,1.98-.23,0-1.48-.19-3.74-.56Z"/>
      <path class="cls-1" d="M108,52.6c.31.8.92,1.38,1.8,1.72.89.34,2.22.52,4,.52h5.76c2.98,0,5.37-.95,7.18-2.84,1.81-1.89,3.02-4.5,3.65-7.82,0-.11.11-.17.34-.17.17,0,.33.03.47.09.14.06.21.14.21.26-.4,2.64-.6,6.16-.6,10.57,0,.46-.1.79-.3.99s-.53.3-.99.3h-33.61c-.12,0-.17-.17-.17-.52s.06-.52.17-.52c1.89,0,3.27-.14,4.12-.43.86-.29,1.43-.84,1.72-1.68.29-.83.43-2.11.43-3.83v-26.3c0-1.72-.16-2.98-.47-3.78-.32-.8-.9-1.36-1.76-1.68-.86-.31-2.21-.47-4.04-.47-.12,0-.17-.17-.17-.52s.06-.52.17-.52l3.87.09c2.18.12,3.87.17,5.07.17,1.43,0,3.24-.06,5.42-.17l3.61-.09c.17,0,.26.17.26.52s-.09.52-.26.52c-1.89,0-3.27.16-4.13.47-.86.32-1.45.89-1.76,1.72-.32.83-.47,2.11-.47,3.82v25.87c0,1.66.16,2.89.47,3.7Z"/>
      <path class="cls-1" d="M147.79,52.6c.31.8.92,1.38,1.8,1.72.89.34,2.22.52,4,.52h5.76c2.98,0,5.37-.95,7.18-2.84,1.81-1.89,3.02-4.5,3.65-7.82,0-.11.11-.17.34-.17.17,0,.33.03.47.09.14.06.21.14.21.26-.4,2.64-.6,6.16-.6,10.57,0,.46-.1.79-.3.99s-.53.3-.99.3h-33.61c-.12,0-.17-.17-.17-.52s.06-.52.17-.52c1.89,0,3.27-.14,4.12-.43.86-.29,1.43-.84,1.72-1.68.29-.83.43-2.11.43-3.83v-26.3c0-1.72-.16-2.98-.47-3.78-.32-.8-.9-1.36-1.76-1.68-.86-.31-2.21-.47-4.04-.47-.12,0-.17-.17-.17-.52s.06-.52.17-.52l3.87.09c2.18.12,3.87.17,5.07.17,1.43,0,3.24-.06,5.42-.17l3.61-.09c.17,0,.26.17.26.52s-.09.52-.26.52c-1.89,0-3.27.16-4.13.47-.86.32-1.45.89-1.76,1.72-.32.83-.47,2.11-.47,3.82v25.87c0,1.66.16,2.89.47,3.7Z"/>
      <path class="cls-1" d="M175.34,55.7c0-.34.06-.52.17-.52,1.89,0,3.27-.14,4.12-.43.86-.29,1.45-.84,1.76-1.68.31-.83.47-2.11.47-3.83v-26.3c0-1.72-.16-2.98-.47-3.78-.32-.8-.9-1.36-1.76-1.68-.86-.31-2.23-.47-4.12-.47-.12,0-.17-.17-.17-.52s.06-.52.17-.52h29.91c.57,0,.86.23.86.69l.09,5.33c.06,1.09.09,2.46.09,4.13,0,.17-.17.26-.52.26s-.52-.09-.52-.26c-.23-2.63-1.19-4.8-2.88-6.49-1.69-1.69-3.77-2.54-6.23-2.54h-2.41c-2.01,0-3.47.16-4.38.47-.92.32-1.55.87-1.89,1.68-.34.8-.52,2.06-.52,3.78v25.87c0,1.66.17,2.91.52,3.74.34.83.99,1.4,1.93,1.72.95.32,2.39.47,4.34.47h4.13c2.35,0,4.43-.93,6.23-2.79,1.8-1.86,3.02-4.28,3.65-7.26,0-.17.16-.26.47-.26s.47.09.47.26c-.4,4.13-.6,7.51-.6,10.14,0,.46-.09.79-.26.99-.17.2-.52.3-1.03.3h-31.46c-.12,0-.17-.17-.17-.52ZM198.25,37.17c-2.26-.37-6.69-.56-13.28-.56v-1.81c6.53,0,10.93-.14,13.19-.43,2.26-.29,3.54-.43,3.83-.43s.43.6.43,1.81c0,1.32-.14,1.98-.43,1.98-.23,0-1.48-.19-3.74-.56Z"/>
      <path class="cls-1" d="M233.7,55.7c0,.34-.06.52-.17.52-1.6,0-2.84-.03-3.7-.09l-5.42-.09-5.07.09c-.97.06-2.29.09-3.95.09-.12,0-.17-.17-.17-.52s.06-.52.17-.52c1.89,0,3.28-.14,4.17-.43.89-.29,1.5-.84,1.85-1.68.34-.83.52-2.11.52-3.83v-26.3c0-1.72-.16-2.98-.47-3.78-.32-.8-.92-1.36-1.81-1.68-.89-.31-2.28-.47-4.17-.47-.12,0-.17-.17-.17-.52s.06-.52.17-.52l3.95.09c2.06.12,3.72.17,4.99.17,1.03,0,1.99-.03,2.88-.09.89-.06,1.65-.11,2.28-.17,1.83-.17,3.52-.26,5.07-.26,3.72,0,6.56.72,8.51,2.15,1.95,1.43,2.92,3.5,2.92,6.19,0,2.35-.69,4.53-2.06,6.53-1.38,2.01-3.27,3.6-5.67,4.77-2.41,1.18-5.04,1.76-7.91,1.76-1.83,0-3.41-.11-4.73-.34l-.09-1.72c1.43.4,3.24.6,5.42.6,3.55,0,6.03-.79,7.43-2.36,1.4-1.58,2.11-3.88,2.11-6.92,0-6.3-2.72-9.46-8.17-9.46-2.18,0-3.6.46-4.25,1.38-.66.92-.99,2.52-.99,4.81v26.13c0,1.78.14,3.07.43,3.87.29.8.86,1.35,1.72,1.63.86.29,2.26.43,4.21.43.11,0,.17.17.17.52ZM259.23,55.7c0,.34-.06.52-.17.52h-10.06c-1.03,0-2.89-1.78-5.59-5.33-2.69-3.55-5.9-8.42-9.63-14.61l4.56-1.8c3.32,5.44,6.1,9.63,8.34,12.55,2.23,2.92,4.31,5.02,6.23,6.27,1.92,1.26,3.97,1.89,6.15,1.89.11,0,.17.17.17.52Z"/>
      <path class="cls-1" d="M271.01,52.04c.97,1.29,1.46,3.17,1.46,5.63s-.55,5-1.63,7.26c-1.09,2.26-2.69,4.54-4.81,6.83-.06.06-.14.09-.26.09-.17,0-.32-.09-.43-.26-.12-.17-.12-.32,0-.43,1.26-1.78,2.12-3.47,2.58-5.07.46-1.6.69-3.41.69-5.42,0-1.55-.21-2.79-.64-3.74-.43-.95-1.02-1.76-1.76-2.45l3.27-.6c.06.98-.2,1.72-.77,2.23-.57.52-1.32.77-2.23.77-1.09,0-1.93-.3-2.54-.9s-.9-1.42-.9-2.45c0-2.29,1.32-3.44,3.95-3.44,1.72,0,3.06.64,4.04,1.93Z"/>
      <path class="cls-1" d="M305.52,6.79c-1.81,1.83-3.11,4.96-3.91,9.37,0,.12-.16.17-.47.17s-.47-.06-.47-.17c.23-2.06.49-4.76.77-8.08.29-3.32.43-5.82.43-7.48,0-.29.16-.43.47-.43s.47.14.47.43c0,1.26,1.55,1.89,4.64,1.89,4.93.17,10.69.26,17.28.26,3.38,0,6.96-.06,10.74-.17l5.84-.09c2.06,0,3.6-.14,4.6-.43,1-.29,1.65-.86,1.93-1.72.06-.23.23-.34.52-.34s.43.12.43.34c-.17,1.66-.34,4.18-.52,7.56-.17,3.38-.26,6.13-.26,8.25,0,.12-.17.17-.52.17s-.52-.06-.52-.17c-.17-4.47-1.09-7.61-2.75-9.41-1.66-1.81-4.41-2.71-8.25-2.71-2.58,0-4.41.12-5.5.34-1.09.23-1.83.72-2.23,1.46-.4.75-.6,2.01-.6,3.78v39.62c0,1.78.2,3.07.6,3.87.4.8,1.17,1.35,2.32,1.63,1.15.29,2.95.43,5.42.43.17,0,.26.17.26.52s-.09.52-.26.52c-1.89,0-3.41-.03-4.55-.09l-6.71-.09-6.45.09c-1.15.06-2.72.09-4.73.09-.12,0-.17-.17-.17-.52s.06-.52.17-.52c2.46,0,4.27-.14,5.42-.43,1.15-.29,1.93-.84,2.36-1.68.43-.83.64-2.11.64-3.83V9.45c0-1.78-.2-3.02-.6-3.74-.4-.72-1.15-1.17-2.24-1.38-1.09-.2-2.95-.3-5.59-.3-3.55,0-6.23.92-8.04,2.75Z"/>
      <path class="cls-1" d="M351.72,55.7c0-.34.06-.52.17-.52,1.89,0,3.27-.14,4.12-.43.86-.29,1.45-.84,1.76-1.68.31-.83.47-2.11.47-3.83v-26.3c0-1.72-.16-2.98-.47-3.78-.32-.8-.9-1.36-1.76-1.68-.86-.31-2.23-.47-4.12-.47-.12,0-.17-.17-.17-.52s.06-.52.17-.52h29.91c.57,0,.86.23.86.69l.09,5.33c.06,1.09.09,2.46.09,4.13,0,.17-.17.26-.52.26s-.52-.09-.52-.26c-.23-2.63-1.19-4.8-2.88-6.49-1.69-1.69-3.77-2.54-6.23-2.54h-2.41c-2.01,0-3.47.16-4.38.47-.92.32-1.55.87-1.89,1.68-.34.8-.52,2.06-.52,3.78v25.87c0,1.66.17,2.91.52,3.74.34.83.99,1.4,1.93,1.72.95.32,2.39.47,4.34.47h4.13c2.35,0,4.43-.93,6.23-2.79,1.8-1.86,3.02-4.28,3.65-7.26,0-.17.16-.26.47-.26s.47.09.47.26c-.4,4.13-.6,7.51-.6,10.14,0,.46-.09.79-.26.99-.17.2-.52.3-1.03.3h-31.46c-.12,0-.17-.17-.17-.52ZM374.62,37.17c-2.26-.37-6.69-.56-13.28-.56v-1.81c6.53,0,10.93-.14,13.19-.43,2.26-.29,3.54-.43,3.83-.43s.43.6.43,1.81c0,1.32-.14,1.98-.43,1.98-.23,0-1.48-.19-3.74-.56Z"/>
      <path class="cls-1" d="M403.85,52.6c.31.8.92,1.38,1.8,1.72.89.34,2.22.52,4,.52h5.76c2.98,0,5.37-.95,7.18-2.84,1.81-1.89,3.02-4.5,3.65-7.82,0-.11.11-.17.34-.17.17,0,.33.03.47.09.14.06.21.14.21.26-.4,2.64-.6,6.16-.6,10.57,0,.46-.1.79-.3.99s-.53.3-.99.3h-33.61c-.12,0-.17-.17-.17-.52s.06-.52.17-.52c1.89,0,3.27-.14,4.12-.43.86-.29,1.43-.84,1.72-1.68.29-.83.43-2.11.43-3.83v-26.3c0-1.72-.16-2.98-.47-3.78-.32-.8-.9-1.36-1.76-1.68-.86-.31-2.21-.47-4.04-.47-.12,0-.17-.17-.17-.52s.06-.52.17-.52l3.87.09c2.18.12,3.87.17,5.07.17,1.43,0,3.24-.06,5.42-.17l3.61-.09c.17,0,.26.17.26.52s-.09.52-.26.52c-1.89,0-3.27.16-4.13.47-.86.32-1.45.89-1.76,1.72-.32.83-.47,2.11-.47,3.82v25.87c0,1.66.16,2.89.47,3.7Z"/>
      <path class="cls-1" d="M443.64,52.6c.31.8.92,1.38,1.8,1.72.89.34,2.22.52,4,.52h5.76c2.98,0,5.37-.95,7.18-2.84,1.81-1.89,3.02-4.5,3.65-7.82,0-.11.11-.17.34-.17.17,0,.33.03.47.09.14.06.21.14.21.26-.4,2.64-.6,6.16-.6,10.57,0,.46-.1.79-.3.99s-.53.3-.99.3h-33.61c-.12,0-.17-.17-.17-.52s.06-.52.17-.52c1.89,0,3.27-.14,4.12-.43.86-.29,1.43-.84,1.72-1.68.29-.83.43-2.11.43-3.83v-26.3c0-1.72-.16-2.98-.47-3.78-.32-.8-.9-1.36-1.76-1.68-.86-.31-2.21-.47-4.04-.47-.12,0-.17-.17-.17-.52s.06-.52.17-.52l3.87.09c2.18.12,3.87.17,5.07.17,1.43,0,3.24-.06,5.42-.17l3.61-.09c.17,0,.26.17.26.52s-.09.52-.26.52c-1.89,0-3.27.16-4.13.47-.86.32-1.45.89-1.76,1.72-.32.83-.47,2.11-.47,3.82v25.87c0,1.66.16,2.89.47,3.7Z"/>
      <path class="cls-1" d="M471.19,55.7c0-.34.06-.52.17-.52,1.89,0,3.27-.14,4.12-.43.86-.29,1.45-.84,1.76-1.68.31-.83.47-2.11.47-3.83v-26.3c0-1.72-.16-2.98-.47-3.78-.32-.8-.9-1.36-1.76-1.68-.86-.31-2.23-.47-4.12-.47-.12,0-.17-.17-.17-.52s.06-.52.17-.52h29.91c.57,0,.86.23.86.69l.09,5.33c.06,1.09.09,2.46.09,4.13,0,.17-.17.26-.52.26s-.52-.09-.52-.26c-.23-2.63-1.19-4.8-2.88-6.49-1.69-1.69-3.77-2.54-6.23-2.54h-2.41c-2.01,0-3.47.16-4.38.47-.92.32-1.55.87-1.89,1.68-.34.8-.52,2.06-.52,3.78v25.87c0,1.66.17,2.91.52,3.74.34.83.99,1.4,1.93,1.72.95.32,2.39.47,4.34.47h4.13c2.35,0,4.43-.93,6.23-2.79,1.8-1.86,3.02-4.28,3.65-7.26,0-.17.16-.26.47-.26s.47.09.47.26c-.4,4.13-.6,7.51-.6,10.14,0,.46-.09.79-.26.99-.17.2-.52.3-1.03.3h-31.46c-.12,0-.17-.17-.17-.52ZM494.1,37.17c-2.26-.37-6.69-.56-13.28-.56v-1.81c6.53,0,10.93-.14,13.19-.43,2.26-.29,3.54-.43,3.83-.43s.43.6.43,1.81c0,1.32-.14,1.98-.43,1.98-.23,0-1.48-.19-3.74-.56Z"/>
      <path class="cls-1" d="M520.78,28.92c1.66,1.52,4.15,3.11,7.48,4.77,2.35,1.2,4.22,2.29,5.63,3.27,1.4.98,2.59,2.18,3.57,3.61.97,1.43,1.46,3.15,1.46,5.16,0,2.12-.59,4.05-1.76,5.8-1.18,1.75-2.85,3.14-5.03,4.17-2.18,1.03-4.73,1.55-7.65,1.55-4.07,0-7.51-1-10.31-3.01-.29-.11-.47-.29-.56-.52-.09-.23-.16-.6-.21-1.12l-.86-8.51c-.06-.23.07-.37.39-.43.31-.06.53.03.64.26.8,3.32,2.39,6.15,4.77,8.47,2.38,2.32,5.03,3.48,7.95,3.48,2.01,0,3.74-.59,5.2-1.76,1.46-1.17,2.19-2.99,2.19-5.46,0-2.63-.86-4.78-2.58-6.45-1.72-1.66-4.21-3.35-7.48-5.07-2.29-1.26-4.11-2.36-5.46-3.31-1.35-.95-2.48-2.11-3.4-3.48-.92-1.38-1.38-3.04-1.38-4.99,0-3.27,1.26-5.82,3.78-7.65,2.52-1.83,5.59-2.75,9.2-2.75,2.92,0,5.79.66,8.6,1.98.52.29.84.52.99.69.14.17.24.43.3.77l.52,7.48c0,.23-.16.37-.47.43-.32.06-.5-.03-.56-.26-.29-1.43-.93-2.91-1.93-4.43-1-1.52-2.28-2.79-3.83-3.83-1.55-1.03-3.27-1.55-5.16-1.55-2.06,0-3.67.63-4.81,1.89-1.15,1.26-1.72,2.87-1.72,4.81,0,2.46.83,4.46,2.49,5.97Z"/>
      <path class="cls-1" d="M587.18,16.46c1.63,1,2.45,2.77,2.45,5.29,0,1.78-.43,3.35-1.29,4.73-.86,1.38-1.91,2.56-3.14,3.57-1.23,1-2.91,2.19-5.03,3.57-2.12,1.43-3.81,2.66-5.07,3.7-1.26,1.03-2.32,2.25-3.18,3.65-.86,1.4-1.29,3-1.29,4.77,0,2.75.97,4.97,2.92,6.66,1.95,1.69,4.41,2.54,7.39,2.54s5.44-.74,7.74-2.23c2.29-1.49,4.1-3.41,5.42-5.76,1.32-2.35,1.98-4.78,1.98-7.31,0-3.55-1.72-5.33-5.16-5.33-.17,0-.27-.17-.3-.52-.03-.34.07-.52.3-.52l14.78-.09c.23,0,.34.17.34.52s-.12.52-.34.52c-1.49,0-2.59.17-3.31.52-.72.34-1.2.79-1.46,1.33-.26.55-.62,1.5-1.07,2.88-1.43,4.7-3.9,8.93-7.39,12.68-3.5,3.75-8.4,5.63-14.7,5.63-4.07,0-7.12-.86-9.15-2.58-2.03-1.72-3.05-3.84-3.05-6.36s.8-4.48,2.41-6.23c1.6-1.75,4.01-3.77,7.22-6.06,3.27-2.35,5.74-4.44,7.43-6.27,1.69-1.83,2.54-4.04,2.54-6.62,0-2-.54-3.6-1.63-4.77-1.09-1.17-2.52-1.76-4.3-1.76-1.49,0-2.65.49-3.48,1.46-.83.98-1.25,2.41-1.25,4.3,0,3.09,1.42,6.76,4.25,11,2.84,4.24,6.55,8.31,11.13,12.21,3.5,2.98,6.91,5.32,10.23,7.01,3.32,1.69,5.84,2.56,7.56,2.62.17,0,.26.17.26.52s-.09.52-.26.52h-8.85c-1.26,0-3.08-.7-5.46-2.11-2.38-1.4-5.06-3.45-8.04-6.15-2.75-2.41-5.47-5.13-8.17-8.17-2.69-3.04-4.61-5.79-5.76-8.25-1.03-2.23-1.55-4.3-1.55-6.19,0-2.06.54-3.88,1.63-5.46,1.09-1.58,2.54-2.79,4.34-3.65,1.8-.86,3.71-1.29,5.72-1.29,2.12,0,4,.5,5.63,1.5Z"/>
      <path class="cls-1" d="M657.62,56.47c-.46,0-.77-.12-.95-.34l-21.4-46.5c-1.03-2.29-2.06-3.88-3.09-4.77-1.03-.89-2.44-1.33-4.21-1.33-.17,0-.26-.17-.26-.52s.09-.52.26-.52l3.27.09c1.6.12,2.89.17,3.87.17,2.06,0,4.3-.06,6.71-.17l3.52-.09c.17,0,.26.17.26.52s-.09.52-.26.52c-1.72,0-3,.2-3.82.6-.83.4-1.25,1.09-1.25,2.06,0,.86.29,1.89.86,3.09l19.08,41-3.09,4.13,11.26-28.11,1.29,1.89-11.09,27.94c-.06.23-.37.34-.95.34ZM708.59,3.01c0,.34-.06.52-.17.52-1.95,0-3.64.52-5.07,1.55-1.43,1.03-2.66,2.78-3.7,5.24l-18.31,45.81c-.06.23-.37.34-.95.34-.46,0-.77-.12-.95-.34l-21.32-46.5c-1.03-2.23-2.06-3.81-3.09-4.73-1.03-.92-2.38-1.38-4.04-1.38-.17,0-.26-.17-.26-.52s.09-.52.26-.52l3.27.09c1.49.12,2.72.17,3.7.17,1.6,0,3.27-.06,4.99-.17l2.32-.09c.17,0,.26.17.26.52s-.09.52-.26.52c-1.03,0-1.78.1-2.23.3-.46.2-.69.56-.69,1.07,0,.69.52,2.15,1.55,4.38l19.17,41-3.09,4.13,17.79-44.44c.46-1.2.69-2.15.69-2.84,0-1.26-.53-2.18-1.59-2.75-1.06-.57-2.71-.86-4.94-.86-.17,0-.26-.17-.26-.52s.09-.52.26-.52l3.61.09c1.95.12,3.7.17,5.24.17,1.15,0,2.46-.06,3.95-.17l3.7-.09c.11,0,.17.17.17.52ZM676.36,6.02c0-1.66-1.23-2.49-3.7-2.49-.17,0-.26-.17-.26-.52s.09-.52.26-.52l1.98.09c1.15.12,2.35.17,3.61.17,1.15,0,2.46-.06,3.95-.17l3.52-.09c.11,0,.17.17.17.52s-.06.52-.17.52c-1.95,0-3.6.5-4.94,1.5-1.35,1-2.54,2.77-3.57,5.29l-7.13,17.88-1.29-1.89,6.53-16.5c.69-1.55,1.03-2.81,1.03-3.78Z"/>
      <path class="cls-1" d="M746.93,55.7c0,.34-.12.52-.34.52-1.03,0-2.69-.06-4.99-.17-2.29-.11-3.95-.17-4.99-.17-.92,0-2.12.06-3.61.17-1.49.12-2.64.17-3.44.17-.23,0-.34-.17-.34-.52s.11-.52.34-.52c1.55,0,2.68-.19,3.4-.56.72-.37,1.07-1.02,1.07-1.93,0-.8-.37-2.03-1.12-3.7l-13.07-28.19,2.23-1.89-10.74,26.73c-.92,2.18-1.38,3.98-1.38,5.42s.52,2.55,1.55,3.18c1.03.63,2.61.95,4.73.95.29,0,.43.17.43.52s-.14.52-.43.52c-.86,0-2.03-.06-3.52-.17-1.61-.11-3.09-.17-4.47-.17s-3.12.06-5.07.17c-1.72.12-3.09.17-4.13.17-.29,0-.43-.17-.43-.52s.14-.52.43-.52c1.78,0,3.18-.24,4.21-.73,1.03-.49,1.99-1.45,2.88-2.88.89-1.43,1.96-3.67,3.22-6.7l12.38-30.17c.11-.23.29-.34.52-.34s.37.12.43.34l13.84,29.74c1.49,3.21,2.68,5.53,3.57,6.96.89,1.43,1.8,2.42,2.75,2.97.95.55,2.19.82,3.74.82.23,0,.34.17.34.52ZM715.04,34.9h15.64l.6,1.55h-17.62l1.38-1.55Z"/>
      <path class="cls-1" d="M751.57,18.01c-1.26.6-2.25,1.62-2.96,3.05-.72,1.43-1.28,3.47-1.68,6.1,0,.12-.16.17-.47.17s-.47-.06-.47-.17c.17-1.32.37-3.44.6-6.36.23-2.92.34-5.16.34-6.7,0-.29.17-.43.52-.43s.52.14.52.43c0,.75.43,1.22,1.29,1.42.86.2,1.92.3,3.18.3,5.04.12,9.37.17,12.98.17l7.48-.09c1.03-.06,2.38-.09,4.04-.09,2.06,0,3.58-.13,4.56-.39.97-.26,1.6-.82,1.89-1.68.11-.17.31-.26.6-.26s.43.09.43.26c-.34,6.19-.52,10.66-.52,13.41,0,.12-.16.17-.47.17s-.47-.06-.47-.17c-.06-2.58-.36-4.58-.9-6.02-.54-1.43-1.45-2.46-2.71-3.09-1.26-.63-3.01-.95-5.24-.95-2.46,0-4.11.39-4.94,1.16-.83.77-1.25,2.34-1.25,4.68v26.3c0,1.78.17,3.07.52,3.87.34.8,1.02,1.35,2.02,1.63,1,.29,2.62.43,4.86.43.17,0,.26.17.26.52s-.09.52-.26.52c-1.78,0-3.15-.03-4.13-.09l-6.02-.09-5.76.09c-1.03.06-2.46.09-4.3.09-.12,0-.17-.17-.17-.52s.06-.52.17-.52c2.18,0,3.78-.14,4.81-.43,1.03-.29,1.73-.84,2.11-1.68.37-.83.56-2.11.56-3.83v-26.47c0-1.66-.13-2.88-.39-3.65-.26-.77-.79-1.3-1.59-1.59-.8-.29-2.09-.43-3.87-.43-2.18,0-3.9.3-5.16.9Z"/>
      <path class="cls-1" d="M799.01,28.92c1.66,1.52,4.15,3.11,7.48,4.77,2.35,1.2,4.22,2.29,5.63,3.27,1.4.98,2.59,2.18,3.57,3.61.97,1.43,1.46,3.15,1.46,5.16,0,2.12-.59,4.05-1.76,5.8-1.18,1.75-2.85,3.14-5.03,4.17-2.18,1.03-4.73,1.55-7.65,1.55-4.07,0-7.51-1-10.31-3.01-.29-.11-.47-.29-.56-.52-.09-.23-.16-.6-.21-1.12l-.86-8.51c-.06-.23.07-.37.39-.43.31-.06.53.03.64.26.8,3.32,2.39,6.15,4.77,8.47,2.38,2.32,5.03,3.48,7.95,3.48,2.01,0,3.74-.59,5.2-1.76,1.46-1.17,2.19-2.99,2.19-5.46,0-2.63-.86-4.78-2.58-6.45-1.72-1.66-4.21-3.35-7.48-5.07-2.29-1.26-4.11-2.36-5.46-3.31-1.35-.95-2.48-2.11-3.4-3.48-.92-1.38-1.38-3.04-1.38-4.99,0-3.27,1.26-5.82,3.78-7.65,2.52-1.83,5.59-2.75,9.2-2.75,2.92,0,5.79.66,8.6,1.98.52.29.84.52.99.69.14.17.24.43.3.77l.52,7.48c0,.23-.16.37-.47.43-.32.06-.5-.03-.56-.26-.29-1.43-.93-2.91-1.93-4.43-1-1.52-2.28-2.79-3.83-3.83-1.55-1.03-3.27-1.55-5.16-1.55-2.06,0-3.67.63-4.81,1.89-1.15,1.26-1.72,2.87-1.72,4.81,0,2.46.83,4.46,2.49,5.97Z"/>
      <path class="cls-1" d="M833.09,54.41c-3.12-1.89-5.54-4.44-7.26-7.65-1.72-3.21-2.58-6.67-2.58-10.4,0-4.47,1.16-8.32,3.48-11.56,2.32-3.24,5.27-5.69,8.85-7.35,3.58-1.66,7.23-2.49,10.96-2.49,4.01,0,7.55.99,10.62,2.97,3.06,1.98,5.42,4.54,7.05,7.69,1.63,3.15,2.45,6.45,2.45,9.88,0,3.84-1.03,7.44-3.09,10.79-2.06,3.35-4.84,6.02-8.34,7.99-3.5,1.98-7.31,2.97-11.43,2.97s-7.58-.95-10.7-2.84ZM856.73,50.71c2.67-3.15,4-7.51,4-13.06,0-3.84-.67-7.33-2.02-10.49-1.35-3.15-3.31-5.67-5.89-7.56-2.58-1.89-5.64-2.84-9.2-2.84-4.58,0-8.14,1.53-10.66,4.6-2.52,3.07-3.78,7.35-3.78,12.85,0,3.95.67,7.54,2.02,10.74,1.35,3.21,3.29,5.76,5.84,7.65,2.55,1.89,5.54,2.84,8.98,2.84,4.47,0,8.04-1.58,10.7-4.73Z"/>
      <path class="cls-1" d="M909.81,57.42c-.29.06-.49.03-.6-.09l-28.19-34.3c-1.83-2.18-3.42-3.72-4.77-4.64-1.35-.92-2.65-1.38-3.91-1.38-.12,0-.17-.17-.17-.52s.06-.52.17-.52l4.81.09,4.56-.09c.4,0,.73.12.99.34.26.23.65.72,1.16,1.46.46.75,1.09,1.63,1.89,2.66l23.64,29.14.86,7.56c0,.11-.14.2-.43.26ZM878.18,17.88l1.72.26v28.71c0,3.04.43,5.19,1.29,6.45.86,1.26,2.35,1.89,4.47,1.89.11,0,.17.17.17.52s-.06.52-.17.52c-1.26,0-2.23-.03-2.92-.09l-3.61-.09-3.7.09c-.75.06-1.78.09-3.09.09-.12,0-.17-.17-.17-.52s.06-.52.17-.52c2.12,0,3.62-.63,4.51-1.89.89-1.26,1.33-3.41,1.33-6.45v-28.97ZM910.24,57.16l-1.72-2.66v-29.14c0-3.04-.42-5.19-1.25-6.45-.83-1.26-2.31-1.89-4.43-1.89-.17,0-.26-.17-.26-.52s.09-.52.26-.52l2.92.09c1.49.12,2.69.17,3.61.17s2.18-.06,3.78-.17l3.01-.09c.17,0,.26.17.26.52s-.09.52-.26.52c-2.12,0-3.64.63-4.56,1.89-.92,1.26-1.38,3.41-1.38,6.45v31.8Z"/>
    </g>
  </g>
</svg>