<?xml version="1.0" encoding="UTF-8"?>
<svg id="Camada_2" data-name="Camada 2" xmlns="http://www.w3.org/2000/svg" viewBox="0 0 572.24 107.29">
  <defs>
    <style>
      .cls-1 {
        fill: #fff;
      }
    </style>
  </defs>
  <g id="Camada_1-2" data-name="Camada 1">
    <g>
      <g>
        <path class="cls-1" d="M4.27,14.27c-.21-.49-.62-.82-1.22-1.02-.61-.19-1.57-.29-2.89-.29-.07,0-.1-.1-.1-.31s.03-.31.1-.31l2.61.05c1.46.07,2.62.1,3.49.1,1.01,0,2.24-.03,3.7-.1l2.45-.05c.1,0,.16.1.16.31s-.05.31-.16.31c-1.29,0-2.23.1-2.84.31-.61.21-1.03.57-1.25,1.07-.23.5-.34,1.28-.34,2.32v24.02c0,1.08.1,1.86.31,2.35.21.49.62.82,1.22.99.61.17,1.57.26,2.89.26.1,0,.16.1.16.31s-.05.31-.16.31c-1.04,0-1.88-.02-2.5-.05l-3.65-.05-3.54.05c-.63.04-1.49.05-2.61.05-.07,0-.1-.1-.1-.31s.03-.31.1-.31c1.32,0,2.28-.09,2.89-.26.61-.17,1.02-.51,1.25-1.02.23-.5.34-1.28.34-2.32v-24.13c0-1.04-.1-1.81-.31-2.29ZM20.85,14.01c0-.69-1.03-1.04-3.08-1.04-.07,0-.1-.1-.1-.31s.03-.31.1-.31l2.24.05c1.39.07,2.66.1,3.81.1s2.34-.03,3.6-.1l1.93-.05c.1,0,.16.1.16.31s-.05.31-.16.31c-1.42,0-2.94.31-4.53.94-1.6.63-3.09,1.62-4.48,2.97l-13.34,13.08h-1.3l13.45-13.39c1.15-1.15,1.72-2,1.72-2.55ZM9.38,26.93l2.61-2.08,7.61,9.69c2.54,3.3,4.47,5.63,5.81,6.98s2.37,2.15,3.1,2.4c.73.24,1.79.36,3.18.36.1,0,.16.1.16.31s-.05.31-.16.31h-5.84c-.28,0-.77,0-1.48.03-.71.02-1.71-.87-3-2.66-1.29-1.79-2.52-3.43-3.7-4.92l-8.29-10.42Z"/>
        <path class="cls-1" d="M33.87,44.6c0-.21.03-.31.1-.31,1.15,0,1.98-.09,2.5-.26.52-.17.88-.51,1.07-1.02s.29-1.28.29-2.32v-15.95c0-1.04-.1-1.81-.29-2.29-.19-.49-.55-.82-1.07-1.02s-1.35-.29-2.5-.29c-.07,0-.1-.1-.1-.31s.03-.31.1-.31h18.14c.35,0,.52.14.52.42l.05,3.23c.03.66.05,1.49.05,2.5,0,.1-.1.16-.31.16s-.31-.05-.31-.16c-.14-1.6-.72-2.91-1.75-3.93-1.03-1.02-2.28-1.54-3.78-1.54h-1.46c-1.22,0-2.1.1-2.66.29-.56.19-.94.53-1.15,1.02-.21.49-.31,1.25-.31,2.29v15.69c0,1.01.1,1.76.31,2.27.21.5.6.85,1.17,1.04.57.19,1.45.29,2.63.29h2.5c1.42,0,2.68-.56,3.78-1.69,1.1-1.13,1.83-2.6,2.21-4.4,0-.1.1-.16.29-.16s.29.05.29.16c-.24,2.5-.36,4.55-.36,6.15,0,.28-.05.48-.16.6-.1.12-.31.18-.62.18h-19.07c-.07,0-.1-.1-.1-.31ZM47.76,33.37c-1.37-.23-4.06-.34-8.05-.34v-1.09c3.96,0,6.63-.09,8-.26,1.37-.17,2.14-.26,2.32-.26s.26.36.26,1.09c0,.8-.09,1.2-.26,1.2-.14,0-.89-.11-2.27-.34Z"/>
        <path class="cls-1" d="M65.48,42.72c.19.49.55.83,1.09,1.04.54.21,1.35.31,2.42.31h3.49c1.81,0,3.26-.57,4.35-1.72,1.1-1.15,1.83-2.73,2.21-4.74,0-.07.07-.1.21-.1.1,0,.2.02.29.05.09.03.13.09.13.16-.24,1.6-.37,3.74-.37,6.41,0,.28-.06.48-.18.6s-.32.18-.6.18h-20.38c-.07,0-.1-.1-.1-.31s.03-.31.1-.31c1.15,0,1.98-.09,2.5-.26.52-.17.87-.51,1.04-1.02.17-.5.26-1.28.26-2.32v-15.95c0-1.04-.1-1.81-.29-2.29-.19-.49-.55-.82-1.07-1.02-.52-.19-1.34-.29-2.45-.29-.07,0-.1-.1-.1-.31s.03-.31.1-.31l2.34.05c1.32.07,2.34.1,3.07.1.87,0,1.96-.03,3.28-.1l2.19-.05c.1,0,.16.1.16.31s-.05.31-.16.31c-1.15,0-1.98.1-2.5.29s-.88.54-1.07,1.04c-.19.5-.29,1.28-.29,2.32v15.69c0,1.01.09,1.75.29,2.24Z"/>
        <path class="cls-1" d="M89.61,42.72c.19.49.55.83,1.09,1.04.54.21,1.35.31,2.42.31h3.49c1.81,0,3.26-.57,4.35-1.72,1.1-1.15,1.83-2.73,2.21-4.74,0-.07.07-.1.21-.1.1,0,.2.02.29.05.09.03.13.09.13.16-.24,1.6-.37,3.74-.37,6.41,0,.28-.06.48-.18.6s-.32.18-.6.18h-20.38c-.07,0-.1-.1-.1-.31s.03-.31.1-.31c1.15,0,1.98-.09,2.5-.26.52-.17.87-.51,1.04-1.02.17-.5.26-1.28.26-2.32v-15.95c0-1.04-.1-1.81-.29-2.29-.19-.49-.55-.82-1.07-1.02-.52-.19-1.34-.29-2.45-.29-.07,0-.1-.1-.1-.31s.03-.31.1-.31l2.34.05c1.32.07,2.34.1,3.07.1.87,0,1.96-.03,3.28-.1l2.19-.05c.1,0,.16.1.16.31s-.05.31-.16.31c-1.15,0-1.98.1-2.5.29s-.88.54-1.07,1.04c-.19.5-.29,1.28-.29,2.32v15.69c0,1.01.09,1.75.29,2.24Z"/>
        <path class="cls-1" d="M106.31,44.6c0-.21.03-.31.1-.31,1.15,0,1.98-.09,2.5-.26.52-.17.88-.51,1.07-1.02s.29-1.28.29-2.32v-15.95c0-1.04-.1-1.81-.29-2.29-.19-.49-.55-.82-1.07-1.02s-1.35-.29-2.5-.29c-.07,0-.1-.1-.1-.31s.03-.31.1-.31h18.14c.35,0,.52.14.52.42l.05,3.23c.03.66.05,1.49.05,2.5,0,.1-.1.16-.31.16s-.31-.05-.31-.16c-.14-1.6-.72-2.91-1.75-3.93-1.03-1.02-2.28-1.54-3.78-1.54h-1.46c-1.22,0-2.1.1-2.66.29-.56.19-.94.53-1.15,1.02-.21.49-.31,1.25-.31,2.29v15.69c0,1.01.1,1.76.31,2.27.21.5.6.85,1.17,1.04.57.19,1.45.29,2.63.29h2.5c1.42,0,2.68-.56,3.78-1.69,1.1-1.13,1.83-2.6,2.21-4.4,0-.1.1-.16.29-.16s.29.05.29.16c-.24,2.5-.36,4.55-.36,6.15,0,.28-.05.48-.16.6-.1.12-.31.18-.62.18h-19.07c-.07,0-.1-.1-.1-.31ZM120.2,33.37c-1.37-.23-4.06-.34-8.05-.34v-1.09c3.96,0,6.63-.09,8-.26,1.37-.17,2.14-.26,2.32-.26s.26.36.26,1.09c0,.8-.09,1.2-.26,1.2-.14,0-.89-.11-2.27-.34Z"/>
        <path class="cls-1" d="M141.7,44.6c0,.21-.03.31-.1.31-.97,0-1.72-.02-2.24-.05l-3.28-.05-3.07.05c-.59.04-1.39.05-2.4.05-.07,0-.1-.1-.1-.31s.03-.31.1-.31c1.15,0,1.99-.09,2.53-.26.54-.17.91-.51,1.12-1.02s.31-1.28.31-2.32v-15.95c0-1.04-.1-1.81-.29-2.29-.19-.49-.56-.82-1.1-1.02s-1.38-.29-2.53-.29c-.07,0-.1-.1-.1-.31s.03-.31.1-.31l2.4.05c1.25.07,2.26.1,3.02.1.63,0,1.21-.02,1.75-.05.54-.03,1-.07,1.38-.1,1.11-.1,2.14-.16,3.08-.16,2.26,0,3.98.44,5.16,1.3,1.18.87,1.77,2.12,1.77,3.75,0,1.42-.42,2.74-1.25,3.96-.83,1.22-1.98,2.18-3.44,2.89-1.46.71-3.06,1.07-4.8,1.07-1.11,0-2.07-.07-2.87-.21l-.05-1.04c.87.24,1.96.36,3.28.36,2.15,0,3.66-.48,4.51-1.43.85-.95,1.28-2.35,1.28-4.19,0-3.82-1.65-5.73-4.95-5.73-1.32,0-2.18.28-2.58.83-.4.56-.6,1.53-.6,2.92v15.84c0,1.08.09,1.86.26,2.35.17.49.52.82,1.04.99.52.17,1.37.26,2.55.26.07,0,.1.1.1.31ZM157.18,44.6c0,.21-.03.31-.1.31h-6.1c-.62,0-1.75-1.08-3.39-3.23-1.63-2.15-3.58-5.11-5.84-8.86l2.76-1.09c2.01,3.3,3.7,5.84,5.05,7.61,1.36,1.77,2.61,3.04,3.78,3.8,1.16.77,2.41,1.15,3.73,1.15.07,0,.1.1.1.31Z"/>
        <path class="cls-1" d="M164.32,42.38c.59.78.89,1.92.89,3.41s-.33,3.03-.99,4.4c-.66,1.37-1.63,2.75-2.92,4.14-.03.03-.09.05-.16.05-.1,0-.19-.05-.26-.16s-.07-.19,0-.26c.76-1.08,1.29-2.1,1.56-3.07.28-.97.42-2.07.42-3.28,0-.94-.13-1.69-.39-2.27-.26-.57-.62-1.07-1.07-1.48l1.98-.37c.03.59-.12,1.04-.47,1.36-.35.31-.8.47-1.35.47-.66,0-1.17-.18-1.54-.55-.37-.36-.55-.86-.55-1.49,0-1.39.8-2.08,2.4-2.08,1.04,0,1.86.39,2.45,1.17Z"/>
        <path class="cls-1" d="M185.24,14.95c-1.1,1.11-1.89,3-2.37,5.68,0,.07-.1.1-.29.1s-.29-.03-.29-.1c.14-1.25.29-2.88.47-4.9.17-2.01.26-3.53.26-4.53,0-.17.09-.26.29-.26s.29.09.29.26c0,.76.94,1.15,2.81,1.15,2.99.1,6.48.16,10.47.16,2.05,0,4.22-.03,6.52-.1l3.54-.05c1.25,0,2.18-.09,2.79-.26.61-.17,1-.52,1.17-1.04.03-.14.14-.21.31-.21s.26.07.26.21c-.1,1.01-.21,2.54-.31,4.59-.1,2.05-.16,3.72-.16,5,0,.07-.1.1-.31.1s-.31-.03-.31-.1c-.1-2.71-.66-4.61-1.67-5.71s-2.68-1.64-5-1.64c-1.56,0-2.68.07-3.34.21-.66.14-1.11.44-1.35.89-.24.45-.37,1.22-.37,2.29v24.02c0,1.08.12,1.86.37,2.35.24.49.71.82,1.41.99.69.17,1.79.26,3.28.26.1,0,.16.1.16.31s-.05.31-.16.31c-1.15,0-2.07-.02-2.76-.05l-4.07-.05-3.91.05c-.69.04-1.65.05-2.87.05-.07,0-.1-.1-.1-.31s.03-.31.1-.31c1.49,0,2.59-.09,3.28-.26.69-.17,1.17-.51,1.43-1.02s.39-1.28.39-2.32v-24.13c0-1.08-.12-1.83-.36-2.27-.24-.43-.7-.71-1.36-.83s-1.79-.18-3.39-.18c-2.16,0-3.78.56-4.87,1.67Z"/>
        <path class="cls-1" d="M213.25,44.6c0-.21.03-.31.1-.31,1.15,0,1.98-.09,2.5-.26.52-.17.88-.51,1.07-1.02s.29-1.28.29-2.32v-15.95c0-1.04-.1-1.81-.29-2.29-.19-.49-.55-.82-1.07-1.02s-1.35-.29-2.5-.29c-.07,0-.1-.1-.1-.31s.03-.31.1-.31h18.14c.35,0,.52.14.52.42l.05,3.23c.03.66.05,1.49.05,2.5,0,.1-.1.16-.31.16s-.31-.05-.31-.16c-.14-1.6-.72-2.91-1.75-3.93-1.03-1.02-2.28-1.54-3.78-1.54h-1.46c-1.22,0-2.1.1-2.66.29-.56.19-.94.53-1.15,1.02-.21.49-.31,1.25-.31,2.29v15.69c0,1.01.1,1.76.31,2.27.21.5.6.85,1.17,1.04.57.19,1.45.29,2.63.29h2.5c1.42,0,2.68-.56,3.78-1.69,1.1-1.13,1.83-2.6,2.21-4.4,0-.1.1-.16.29-.16s.29.05.29.16c-.24,2.5-.36,4.55-.36,6.15,0,.28-.05.48-.16.6-.1.12-.31.18-.62.18h-19.07c-.07,0-.1-.1-.1-.31ZM227.14,33.37c-1.37-.23-4.06-.34-8.05-.34v-1.09c3.96,0,6.63-.09,8-.26,1.37-.17,2.14-.26,2.32-.26s.26.36.26,1.09c0,.8-.09,1.2-.26,1.2-.14,0-.89-.11-2.27-.34Z"/>
        <path class="cls-1" d="M244.86,42.72c.19.49.55.83,1.09,1.04.54.21,1.35.31,2.42.31h3.49c1.81,0,3.26-.57,4.35-1.72,1.1-1.15,1.83-2.73,2.21-4.74,0-.07.07-.1.21-.1.1,0,.2.02.29.05.09.03.13.09.13.16-.24,1.6-.37,3.74-.37,6.41,0,.28-.06.48-.18.6s-.32.18-.6.18h-20.38c-.07,0-.1-.1-.1-.31s.03-.31.1-.31c1.15,0,1.98-.09,2.5-.26.52-.17.87-.51,1.04-1.02.17-.5.26-1.28.26-2.32v-15.95c0-1.04-.1-1.81-.29-2.29-.19-.49-.55-.82-1.07-1.02-.52-.19-1.34-.29-2.45-.29-.07,0-.1-.1-.1-.31s.03-.31.1-.31l2.34.05c1.32.07,2.34.1,3.07.1.87,0,1.96-.03,3.28-.1l2.19-.05c.1,0,.16.1.16.31s-.05.31-.16.31c-1.15,0-1.98.1-2.5.29s-.88.54-1.07,1.04c-.19.5-.29,1.28-.29,2.32v15.69c0,1.01.09,1.75.29,2.24Z"/>
        <path class="cls-1" d="M268.99,42.72c.19.49.55.83,1.09,1.04.54.21,1.35.31,2.42.31h3.49c1.81,0,3.26-.57,4.35-1.72,1.1-1.15,1.83-2.73,2.21-4.74,0-.07.07-.1.21-.1.1,0,.2.02.29.05.09.03.13.09.13.16-.24,1.6-.37,3.74-.37,6.41,0,.28-.06.48-.18.6s-.32.18-.6.18h-20.38c-.07,0-.1-.1-.1-.31s.03-.31.1-.31c1.15,0,1.98-.09,2.5-.26.52-.17.87-.51,1.04-1.02.17-.5.26-1.28.26-2.32v-15.95c0-1.04-.1-1.81-.29-2.29-.19-.49-.55-.82-1.07-1.02-.52-.19-1.34-.29-2.45-.29-.07,0-.1-.1-.1-.31s.03-.31.1-.31l2.34.05c1.32.07,2.34.1,3.07.1.87,0,1.96-.03,3.28-.1l2.19-.05c.1,0,.16.1.16.31s-.05.31-.16.31c-1.15,0-1.98.1-2.5.29s-.88.54-1.07,1.04c-.19.5-.29,1.28-.29,2.32v15.69c0,1.01.09,1.75.29,2.24Z"/>
        <path class="cls-1" d="M285.69,44.6c0-.21.03-.31.1-.31,1.15,0,1.98-.09,2.5-.26.52-.17.88-.51,1.07-1.02s.29-1.28.29-2.32v-15.95c0-1.04-.1-1.81-.29-2.29-.19-.49-.55-.82-1.07-1.02s-1.35-.29-2.5-.29c-.07,0-.1-.1-.1-.31s.03-.31.1-.31h18.14c.35,0,.52.14.52.42l.05,3.23c.03.66.05,1.49.05,2.5,0,.1-.1.16-.31.16s-.31-.05-.31-.16c-.14-1.6-.72-2.91-1.75-3.93-1.03-1.02-2.28-1.54-3.78-1.54h-1.46c-1.22,0-2.1.1-2.66.29-.56.19-.94.53-1.15,1.02-.21.49-.31,1.25-.31,2.29v15.69c0,1.01.1,1.76.31,2.27.21.5.6.85,1.17,1.04.57.19,1.45.29,2.63.29h2.5c1.42,0,2.68-.56,3.78-1.69,1.1-1.13,1.83-2.6,2.21-4.4,0-.1.1-.16.29-.16s.29.05.29.16c-.24,2.5-.36,4.55-.36,6.15,0,.28-.05.48-.16.6-.1.12-.31.18-.62.18h-19.07c-.07,0-.1-.1-.1-.31ZM299.58,33.37c-1.37-.23-4.06-.34-8.05-.34v-1.09c3.96,0,6.63-.09,8-.26,1.37-.17,2.14-.26,2.32-.26s.26.36.26,1.09c0,.8-.09,1.2-.26,1.2-.14,0-.89-.11-2.27-.34Z"/>
        <path class="cls-1" d="M315.76,28.37c1.01.92,2.52,1.89,4.53,2.89,1.42.73,2.56,1.39,3.41,1.98.85.59,1.57,1.32,2.16,2.19.59.87.89,1.91.89,3.13,0,1.29-.36,2.46-1.07,3.52-.71,1.06-1.73,1.9-3.05,2.53-1.32.62-2.87.94-4.64.94-2.47,0-4.55-.61-6.25-1.82-.17-.07-.29-.17-.34-.31-.05-.14-.1-.36-.13-.68l-.52-5.16c-.03-.14.04-.23.23-.26.19-.03.32.02.39.16.49,2.02,1.45,3.73,2.89,5.13,1.44,1.41,3.05,2.11,4.82,2.11,1.22,0,2.27-.36,3.15-1.07.89-.71,1.33-1.81,1.33-3.31,0-1.6-.52-2.9-1.56-3.91-1.04-1.01-2.55-2.03-4.53-3.07-1.39-.76-2.49-1.43-3.31-2.01-.82-.57-1.5-1.28-2.06-2.11-.56-.83-.83-1.84-.83-3.02,0-1.98.76-3.53,2.29-4.64,1.53-1.11,3.39-1.67,5.58-1.67,1.77,0,3.51.4,5.21,1.2.31.17.51.31.6.42.09.1.15.26.18.47l.31,4.53c0,.14-.1.23-.29.26-.19.03-.31-.02-.34-.16-.17-.87-.57-1.76-1.17-2.68-.61-.92-1.38-1.69-2.32-2.32s-1.98-.94-3.13-.94c-1.25,0-2.22.38-2.92,1.15-.7.77-1.04,1.74-1.04,2.92,0,1.49.5,2.7,1.51,3.62Z"/>
        <g>
          <path class="cls-1" d="M127.13,71.62c.99.61,1.49,1.68,1.49,3.21,0,1.08-.26,2.03-.78,2.87s-1.16,1.56-1.9,2.16c-.75.61-1.76,1.33-3.05,2.16-1.29.87-2.31,1.62-3.07,2.24-.76.62-1.41,1.36-1.93,2.21-.52.85-.78,1.82-.78,2.89,0,1.67.59,3.01,1.77,4.04,1.18,1.03,2.67,1.54,4.48,1.54s3.3-.45,4.69-1.36c1.39-.9,2.48-2.07,3.28-3.49.8-1.42,1.2-2.9,1.2-4.43,0-2.15-1.04-3.23-3.13-3.23-.1,0-.17-.1-.18-.31s.04-.31.18-.31l8.96-.05c.14,0,.21.1.21.31s-.07.31-.21.31c-.9,0-1.57.1-2.01.31-.43.21-.73.48-.89.81-.16.33-.37.91-.65,1.75-.87,2.85-2.36,5.41-4.48,7.69-2.12,2.28-5.09,3.41-8.91,3.41-2.47,0-4.32-.52-5.55-1.56-1.23-1.04-1.85-2.33-1.85-3.86s.49-2.72,1.46-3.78c.97-1.06,2.43-2.28,4.38-3.67,1.98-1.42,3.48-2.69,4.51-3.8,1.03-1.11,1.54-2.45,1.54-4.01,0-1.22-.33-2.18-.99-2.89-.66-.71-1.53-1.07-2.61-1.07-.9,0-1.61.3-2.11.89-.5.59-.76,1.46-.76,2.61,0,1.88.86,4.1,2.58,6.67,1.72,2.57,3.97,5.04,6.75,7.4,2.12,1.81,4.19,3.22,6.2,4.25,2.01,1.03,3.54,1.56,4.59,1.59.1,0,.16.1.16.31s-.05.31-.16.31h-5.37c-.76,0-1.87-.43-3.31-1.28-1.44-.85-3.07-2.09-4.87-3.73-1.67-1.46-3.32-3.11-4.95-4.95-1.63-1.84-2.8-3.51-3.49-5-.63-1.36-.94-2.61-.94-3.75,0-1.25.33-2.35.99-3.31.66-.96,1.54-1.69,2.63-2.21,1.09-.52,2.25-.78,3.47-.78,1.28,0,2.42.3,3.41.91Z"/>
          <path class="cls-1" d="M169.84,95.88c-.28,0-.47-.07-.57-.21l-12.98-28.19c-.62-1.39-1.25-2.35-1.88-2.89-.63-.54-1.48-.81-2.55-.81-.1,0-.16-.1-.16-.31s.05-.31.16-.31l1.98.05c.97.07,1.75.1,2.35.1,1.25,0,2.61-.03,4.06-.1l2.14-.05c.1,0,.16.1.16.31s-.05.31-.16.31c-1.04,0-1.82.12-2.32.36-.5.24-.76.66-.76,1.25,0,.52.17,1.15.52,1.88l11.57,24.86-1.88,2.5,6.83-17.04.78,1.15-6.72,16.94c-.03.14-.23.21-.57.21ZM200.74,63.46c0,.21-.03.31-.1.31-1.18,0-2.21.31-3.07.94-.87.63-1.62,1.69-2.24,3.18l-11.1,27.78c-.03.14-.23.21-.57.21-.28,0-.47-.07-.57-.21l-12.92-28.19c-.63-1.36-1.25-2.31-1.88-2.87-.62-.56-1.44-.83-2.45-.83-.1,0-.16-.1-.16-.31s.05-.31.16-.31l1.98.05c.9.07,1.65.1,2.24.1.97,0,1.98-.03,3.02-.1l1.41-.05c.1,0,.16.1.16.31s-.05.31-.16.31c-.63,0-1.08.06-1.36.18-.28.12-.42.34-.42.65,0,.42.31,1.3.94,2.66l11.62,24.86-1.88,2.5,10.79-26.94c.28-.73.42-1.3.42-1.72,0-.76-.32-1.32-.96-1.67-.64-.35-1.64-.52-3-.52-.1,0-.16-.1-.16-.31s.05-.31.16-.31l2.19.05c1.18.07,2.24.1,3.18.1.69,0,1.49-.03,2.4-.1l2.24-.05c.07,0,.1.1.1.31ZM181.2,65.28c0-1.01-.75-1.51-2.24-1.51-.1,0-.16-.1-.16-.31s.05-.31.16-.31l1.2.05c.69.07,1.42.1,2.19.1.69,0,1.49-.03,2.4-.1l2.14-.05c.07,0,.1.1.1.31s-.03.31-.1.31c-1.18,0-2.18.3-3,.91-.82.61-1.54,1.68-2.16,3.21l-4.33,10.84-.78-1.15,3.96-10.01c.42-.94.62-1.7.62-2.29Z"/>
          <path class="cls-1" d="M223.98,95.41c0,.21-.07.31-.21.31-.63,0-1.63-.03-3.02-.1-1.39-.07-2.4-.1-3.02-.1-.55,0-1.29.03-2.19.1-.9.07-1.6.1-2.08.1-.14,0-.21-.1-.21-.31s.07-.31.21-.31c.94,0,1.62-.11,2.06-.34.44-.23.65-.62.65-1.17,0-.49-.23-1.23-.68-2.24l-7.92-17.09,1.35-1.15-6.51,16.21c-.56,1.32-.83,2.42-.83,3.28s.31,1.55.94,1.93c.62.38,1.58.57,2.87.57.17,0,.26.1.26.31s-.09.31-.26.31c-.52,0-1.23-.03-2.14-.1-.97-.07-1.88-.1-2.71-.1s-1.89.03-3.08.1c-1.04.07-1.88.1-2.5.1-.17,0-.26-.1-.26-.31s.09-.31.26-.31c1.08,0,1.93-.15,2.55-.44.62-.29,1.21-.88,1.75-1.75.54-.87,1.19-2.22,1.95-4.07l7.5-18.29c.07-.14.17-.21.31-.21s.23.07.26.21l8.39,18.03c.9,1.95,1.62,3.35,2.16,4.22.54.87,1.09,1.47,1.67,1.8.57.33,1.33.5,2.27.5.14,0,.21.1.21.31ZM204.65,82.79h9.48l.37.94h-10.68l.83-.94Z"/>
          <path class="cls-1" d="M226.8,72.55c-.76.36-1.36.98-1.8,1.85-.43.87-.77,2.1-1.02,3.7,0,.07-.1.1-.29.1s-.29-.03-.29-.1c.1-.8.23-2.08.36-3.86.14-1.77.21-3.13.21-4.07,0-.17.1-.26.31-.26s.31.09.31.26c0,.45.26.74.78.86.52.12,1.16.18,1.93.18,3.06.07,5.68.1,7.87.1l4.53-.05c.63-.03,1.44-.05,2.45-.05,1.25,0,2.17-.08,2.76-.23.59-.16.97-.5,1.15-1.02.07-.1.19-.16.37-.16s.26.05.26.16c-.21,3.75-.31,6.46-.31,8.13,0,.07-.1.1-.29.1s-.29-.03-.29-.1c-.03-1.56-.22-2.78-.55-3.65s-.88-1.49-1.64-1.88-1.82-.57-3.18-.57c-1.49,0-2.49.23-3,.7s-.76,1.42-.76,2.84v15.95c0,1.08.1,1.86.31,2.35.21.49.62.82,1.22.99.61.17,1.59.26,2.94.26.1,0,.16.1.16.31s-.05.31-.16.31c-1.08,0-1.91-.02-2.5-.05l-3.65-.05-3.49.05c-.63.04-1.5.05-2.61.05-.07,0-.1-.1-.1-.31s.03-.31.1-.31c1.32,0,2.29-.09,2.92-.26.63-.17,1.05-.51,1.28-1.02s.34-1.28.34-2.32v-16.05c0-1.01-.08-1.75-.23-2.21-.16-.47-.48-.79-.96-.96-.49-.17-1.27-.26-2.35-.26-1.32,0-2.36.18-3.13.55Z"/>
          <path class="cls-1" d="M255.56,79.17c1.01.92,2.52,1.89,4.53,2.89,1.42.73,2.56,1.39,3.41,1.98.85.59,1.57,1.32,2.16,2.19.59.87.89,1.91.89,3.13,0,1.29-.36,2.46-1.07,3.52-.71,1.06-1.73,1.9-3.05,2.53-1.32.62-2.87.94-4.64.94-2.47,0-4.55-.61-6.25-1.82-.17-.07-.29-.17-.34-.31-.05-.14-.1-.36-.13-.68l-.52-5.16c-.03-.14.04-.23.23-.26.19-.03.32.02.39.16.49,2.02,1.45,3.73,2.89,5.13,1.44,1.41,3.05,2.11,4.82,2.11,1.22,0,2.27-.36,3.15-1.07.89-.71,1.33-1.81,1.33-3.31,0-1.6-.52-2.9-1.56-3.91-1.04-1.01-2.55-2.03-4.53-3.07-1.39-.76-2.49-1.43-3.31-2.01-.82-.57-1.5-1.28-2.06-2.11-.56-.83-.83-1.84-.83-3.02,0-1.98.76-3.53,2.29-4.64,1.53-1.11,3.39-1.67,5.58-1.67,1.77,0,3.51.4,5.21,1.2.31.17.51.31.6.42.09.1.15.26.18.47l.31,4.53c0,.14-.1.23-.29.26-.19.03-.31-.02-.34-.16-.17-.87-.57-1.76-1.17-2.68-.61-.92-1.38-1.69-2.32-2.32s-1.98-.94-3.13-.94c-1.25,0-2.22.38-2.92,1.15-.7.77-1.04,1.74-1.04,2.92,0,1.49.5,2.7,1.51,3.62Z"/>
          <path class="cls-1" d="M276.23,94.63c-1.89-1.15-3.36-2.69-4.4-4.64-1.04-1.95-1.56-4.05-1.56-6.31,0-2.71.7-5.05,2.11-7.01,1.41-1.96,3.19-3.45,5.37-4.46,2.17-1.01,4.39-1.51,6.64-1.51,2.43,0,4.58.6,6.44,1.8,1.86,1.2,3.28,2.75,4.27,4.66.99,1.91,1.49,3.91,1.49,5.99,0,2.33-.63,4.51-1.88,6.54-1.25,2.03-2.94,3.65-5.06,4.85-2.12,1.2-4.43,1.8-6.93,1.8s-4.6-.57-6.49-1.72ZM290.56,92.38c1.61-1.91,2.42-4.55,2.42-7.92,0-2.33-.41-4.45-1.22-6.36-.82-1.91-2.01-3.44-3.57-4.59-1.56-1.15-3.42-1.72-5.58-1.72-2.78,0-4.93.93-6.46,2.79-1.53,1.86-2.29,4.46-2.29,7.79,0,2.4.41,4.57,1.22,6.51.82,1.95,2,3.49,3.54,4.64s3.36,1.72,5.45,1.72c2.71,0,4.87-.96,6.49-2.87Z"/>
          <path class="cls-1" d="M322.74,96.45c-.17.03-.3.02-.37-.05l-17.09-20.79c-1.11-1.32-2.08-2.26-2.89-2.81-.82-.56-1.61-.83-2.37-.83-.07,0-.1-.1-.1-.31s.03-.31.1-.31l2.92.05,2.76-.05c.24,0,.44.07.6.21.16.14.39.44.7.89.28.45.66.99,1.15,1.62l14.33,17.67.52,4.59c0,.07-.09.12-.26.16ZM303.56,72.48l1.04.16v17.41c0,1.84.26,3.14.78,3.91.52.77,1.42,1.15,2.71,1.15.07,0,.1.1.1.31s-.03.31-.1.31c-.76,0-1.36-.02-1.77-.05l-2.19-.05-2.24.05c-.45.04-1.08.05-1.88.05-.07,0-.1-.1-.1-.31s.03-.31.1-.31c1.28,0,2.2-.38,2.73-1.15.54-.76.81-2.07.81-3.91v-17.56ZM323,96.29l-1.04-1.61v-17.67c0-1.84-.25-3.14-.76-3.91-.5-.76-1.4-1.15-2.68-1.15-.1,0-.16-.1-.16-.31s.05-.31.16-.31l1.77.05c.9.07,1.63.1,2.19.1s1.32-.03,2.29-.1l1.82-.05c.1,0,.16.1.16.31s-.05.31-.16.31c-1.29,0-2.21.38-2.76,1.15-.55.76-.83,2.07-.83,3.91v19.28Z"/>
        </g>
      </g>
      <g>
        <path class="cls-1" d="M374.57,29.01c-.38-.88-1.11-1.49-2.21-1.83-1.1-.34-2.83-.52-5.21-.52-.13,0-.19-.19-.19-.56s.06-.56.19-.56l4.69.09c2.63.13,4.72.19,6.29.19,1.81,0,4.04-.06,6.66-.19l4.41-.09c.19,0,.28.19.28.56s-.09.56-.28.56c-2.32,0-4.02.19-5.12.56-1.1.38-1.85,1.02-2.25,1.92-.41.91-.61,2.3-.61,4.18v43.27c0,1.94.19,3.35.56,4.22.38.88,1.11,1.47,2.21,1.78,1.09.31,2.83.47,5.21.47.19,0,.28.19.28.56s-.09.56-.28.56c-1.88,0-3.38-.03-4.51-.09l-6.57-.09-6.38.09c-1.13.06-2.69.09-4.69.09-.13,0-.19-.19-.19-.56s.06-.56.19-.56c2.38,0,4.11-.16,5.21-.47,1.09-.31,1.84-.92,2.25-1.83.41-.91.61-2.3.61-4.18v-43.46c0-1.88-.19-3.25-.56-4.13ZM404.42,28.54c0-1.25-1.85-1.88-5.54-1.88-.13,0-.19-.19-.19-.56s.06-.56.19-.56l4.04.09c2.5.13,4.79.19,6.85.19s4.22-.06,6.48-.19l3.47-.09c.19,0,.28.19.28.56s-.09.56-.28.56c-2.57,0-5.29.56-8.17,1.69-2.88,1.13-5.57,2.91-8.07,5.35l-24.03,23.56h-2.35l24.22-24.12c2.06-2.06,3.1-3.6,3.1-4.6ZM383.77,51.82l4.69-3.75,13.7,17.46c4.57,5.95,8.06,10.14,10.47,12.58,2.41,2.44,4.27,3.88,5.58,4.32,1.31.44,3.22.66,5.73.66.19,0,.28.19.28.56s-.09.56-.28.56h-10.51c-.5,0-1.39.01-2.67.05-1.28.03-3.08-1.56-5.4-4.79-2.32-3.22-4.54-6.18-6.66-8.87l-14.92-18.77Z"/>
        <path class="cls-1" d="M433.65,30.23c-1.97,2-3.4,5.41-4.27,10.23,0,.13-.17.19-.52.19s-.52-.06-.52-.19c.25-2.25.53-5.19.84-8.82.31-3.63.47-6.35.47-8.17,0-.31.17-.47.52-.47s.52.16.52.47c0,1.38,1.69,2.07,5.07,2.07,5.38.19,11.67.28,18.87.28,3.69,0,7.6-.06,11.73-.19l6.38-.09c2.25,0,3.93-.16,5.02-.47,1.09-.31,1.8-.94,2.11-1.88.06-.25.25-.38.56-.38s.47.13.47.38c-.19,1.82-.38,4.57-.56,8.26-.19,3.69-.28,6.7-.28,9.01,0,.13-.19.19-.56.19s-.56-.06-.56-.19c-.19-4.88-1.19-8.31-3-10.28-1.82-1.97-4.82-2.96-9.01-2.96-2.82,0-4.82.13-6.01.38-1.19.25-2,.78-2.44,1.6-.44.81-.66,2.19-.66,4.13v43.27c0,1.94.22,3.35.66,4.22.44.88,1.28,1.47,2.53,1.78,1.25.31,3.22.47,5.91.47.19,0,.28.19.28.56s-.09.56-.28.56c-2.06,0-3.72-.03-4.97-.09l-7.32-.09-7.04.09c-1.25.06-2.97.09-5.16.09-.13,0-.19-.19-.19-.56s.06-.56.19-.56c2.69,0,4.66-.16,5.91-.47,1.25-.31,2.11-.92,2.58-1.83.47-.91.7-2.3.7-4.18v-43.46c0-1.94-.22-3.3-.66-4.08-.44-.78-1.25-1.28-2.44-1.5-1.19-.22-3.22-.33-6.1-.33-3.88,0-6.81,1-8.78,3Z"/>
        <path class="cls-1" d="M516.58,84.48c-.5,0-.84-.13-1.03-.38l-23.37-50.78c-1.13-2.5-2.25-4.24-3.38-5.21-1.13-.97-2.66-1.45-4.6-1.45-.19,0-.28-.19-.28-.56s.09-.56.28-.56l3.57.09c1.75.13,3.16.19,4.22.19,2.25,0,4.69-.06,7.32-.19l3.85-.09c.19,0,.28.19.28.56s-.09.56-.28.56c-1.88,0-3.27.22-4.18.66-.91.44-1.36,1.19-1.36,2.25,0,.94.31,2.07.94,3.38l20.84,44.77-3.38,4.51,12.3-30.69,1.41,2.06-12.11,30.51c-.06.25-.41.38-1.03.38ZM572.24,26.1c0,.38-.06.56-.19.56-2.13,0-3.97.56-5.54,1.69-1.56,1.13-2.91,3.04-4.04,5.73l-19.99,50.03c-.06.25-.41.38-1.03.38-.5,0-.84-.13-1.03-.38l-23.28-50.78c-1.13-2.44-2.25-4.16-3.38-5.16-1.13-1-2.6-1.5-4.41-1.5-.19,0-.28-.19-.28-.56s.09-.56.28-.56l3.57.09c1.63.13,2.97.19,4.04.19,1.75,0,3.57-.06,5.44-.19l2.53-.09c.19,0,.28.19.28.56s-.09.56-.28.56c-1.13,0-1.94.11-2.44.33-.5.22-.75.61-.75,1.17,0,.75.56,2.35,1.69,4.79l20.93,44.77-3.38,4.51,19.43-48.53c.5-1.31.75-2.35.75-3.1,0-1.38-.58-2.38-1.74-3-1.16-.62-2.96-.94-5.4-.94-.19,0-.28-.19-.28-.56s.09-.56.28-.56l3.94.09c2.13.13,4.04.19,5.73.19,1.25,0,2.69-.06,4.32-.19l4.04-.09c.12,0,.19.19.19.56ZM537.04,29.38c0-1.81-1.35-2.72-4.04-2.72-.19,0-.28-.19-.28-.56s.09-.56.28-.56l2.16.09c1.25.13,2.57.19,3.94.19,1.25,0,2.69-.06,4.32-.19l3.85-.09c.12,0,.19.19.19.56s-.06.56-.19.56c-2.13,0-3.93.55-5.4,1.64-1.47,1.1-2.77,3.02-3.9,5.77l-7.79,19.52-1.41-2.06,7.13-18.02c.75-1.69,1.13-3.07,1.13-4.13Z"/>
      </g>
      <rect class="cls-1" x="346.76" width="2.69" height="107.29"/>
    </g>
  </g>
</svg>