<?xml version="1.0" encoding="UTF-8"?>
<svg id="Camada_2" data-name="Camada 2" xmlns="http://www.w3.org/2000/svg" viewBox="0 0 636.5 108.99">
  <defs>
    <style>
      .cls-1 {
        fill: #fff;
      }
    </style>
  </defs>
  <g id="Camada_1-2" data-name="Camada 1">
    <g>
      <g>
        <path class="cls-1" d="M498.23,35.8c-.26-.61-.78-1.04-1.54-1.28-.77-.24-1.98-.36-3.64-.36-.09,0-.13-.13-.13-.39s.04-.39.13-.39l3.28.07c1.84.09,3.3.13,4.4.13,1.27,0,2.82-.04,4.66-.13l3.09-.07c.13,0,.2.13.2.39s-.07.39-.2.39c-1.62,0-2.81.13-3.58.39-.77.26-1.29.71-1.58,1.35-.29.64-.43,1.61-.43,2.92v30.27c0,1.36.13,2.34.39,2.95.26.61.78,1.03,1.54,1.25.77.22,1.98.33,3.64.33.13,0,.2.13.2.39s-.07.39-.2.39c-1.31,0-2.36-.02-3.15-.07l-4.6-.07-4.46.07c-.79.04-1.88.07-3.28.07-.09,0-.13-.13-.13-.39s.04-.39.13-.39c1.66,0,2.88-.11,3.64-.33.77-.22,1.29-.65,1.58-1.28.28-.63.43-1.61.43-2.92v-30.4c0-1.31-.13-2.28-.39-2.89ZM519.11,35.47c0-.88-1.29-1.31-3.87-1.31-.09,0-.13-.13-.13-.39s.04-.39.13-.39l2.82.07c1.75.09,3.35.13,4.79.13s2.95-.04,4.53-.13l2.43-.07c.13,0,.2.13.2.39s-.07.39-.2.39c-1.8,0-3.7.39-5.71,1.18-2.01.79-3.9,2.04-5.65,3.74l-16.81,16.48h-1.64l16.94-16.87c1.44-1.44,2.17-2.52,2.17-3.22ZM504.67,51.76l3.28-2.63,9.59,12.21c3.19,4.16,5.64,7.09,7.32,8.8,1.68,1.71,2.99,2.71,3.91,3.02.92.31,2.25.46,4.01.46.13,0,.2.13.2.39s-.07.39-.2.39h-7.35c-.35,0-.97.01-1.87.03-.9.02-2.16-1.09-3.78-3.35-1.62-2.25-3.17-4.32-4.66-6.2l-10.44-13.13Z"/>
        <path class="cls-1" d="M539.56,36.66c-1.38,1.4-2.37,3.79-2.99,7.16,0,.09-.12.13-.36.13s-.36-.04-.36-.13c.17-1.58.37-3.63.59-6.17.22-2.54.33-4.44.33-5.71,0-.22.12-.33.36-.33s.36.11.36.33c0,.96,1.18,1.44,3.55,1.44,3.76.13,8.16.2,13.2.2,2.58,0,5.32-.04,8.21-.13l4.46-.07c1.58,0,2.75-.11,3.51-.33.77-.22,1.26-.66,1.48-1.31.04-.17.17-.26.39-.26s.33.09.33.26c-.13,1.27-.26,3.2-.39,5.78-.13,2.58-.2,4.68-.2,6.3,0,.09-.13.13-.39.13s-.39-.04-.39-.13c-.13-3.41-.83-5.81-2.1-7.19-1.27-1.38-3.37-2.07-6.3-2.07-1.97,0-3.37.09-4.2.26-.83.18-1.4.55-1.71,1.12-.31.57-.46,1.53-.46,2.89v30.27c0,1.36.15,2.34.46,2.95.31.61.9,1.03,1.77,1.25.88.22,2.25.33,4.14.33.13,0,.2.13.2.39s-.07.39-.2.39c-1.44,0-2.6-.02-3.48-.07l-5.12-.07-4.92.07c-.88.04-2.08.07-3.61.07-.09,0-.13-.13-.13-.39s.04-.39.13-.39c1.88,0,3.26-.11,4.14-.33.88-.22,1.48-.65,1.81-1.28.33-.63.49-1.61.49-2.92v-30.4c0-1.36-.15-2.31-.46-2.86-.31-.55-.88-.9-1.71-1.05-.83-.15-2.25-.23-4.27-.23-2.71,0-4.76.7-6.14,2.1Z"/>
        <path class="cls-1" d="M597.57,74.61c-.35,0-.59-.09-.72-.26l-16.35-35.52c-.79-1.75-1.58-2.96-2.36-3.64-.79-.68-1.86-1.02-3.22-1.02-.13,0-.2-.13-.2-.39s.07-.39.2-.39l2.49.07c1.22.09,2.21.13,2.95.13,1.58,0,3.28-.04,5.12-.13l2.69-.07c.13,0,.2.13.2.39s-.07.39-.2.39c-1.31,0-2.29.15-2.92.46-.64.31-.95.83-.95,1.58,0,.66.22,1.44.66,2.36l14.58,31.32-2.36,3.15,8.6-21.47.98,1.44-8.47,21.34c-.04.17-.29.26-.72.26ZM636.5,33.77c0,.26-.04.39-.13.39-1.49,0-2.78.39-3.87,1.18-1.09.79-2.04,2.12-2.82,4.01l-13.99,35c-.04.17-.29.26-.72.26-.35,0-.59-.09-.72-.26l-16.28-35.52c-.79-1.71-1.58-2.91-2.36-3.61-.79-.7-1.82-1.05-3.09-1.05-.13,0-.2-.13-.2-.39s.07-.39.2-.39l2.49.07c1.14.09,2.08.13,2.82.13,1.23,0,2.49-.04,3.81-.13l1.77-.07c.13,0,.2.13.2.39s-.07.39-.2.39c-.79,0-1.36.08-1.71.23-.35.15-.53.43-.53.82,0,.53.39,1.64,1.18,3.35l14.64,31.32-2.36,3.15,13.59-33.95c.35-.92.53-1.64.53-2.17,0-.96-.41-1.66-1.21-2.1-.81-.44-2.07-.66-3.78-.66-.13,0-.2-.13-.2-.39s.07-.39.2-.39l2.76.07c1.49.09,2.82.13,4.01.13.88,0,1.88-.04,3.02-.13l2.82-.07c.09,0,.13.13.13.39ZM611.88,36.06c0-1.27-.94-1.9-2.82-1.9-.13,0-.2-.13-.2-.39s.07-.39.2-.39l1.51.07c.88.09,1.79.13,2.76.13.88,0,1.88-.04,3.02-.13l2.69-.07c.09,0,.13.13.13.39s-.04.39-.13.39c-1.49,0-2.75.38-3.78,1.15-1.03.77-1.94,2.11-2.72,4.04l-5.45,13.66-.98-1.44,4.99-12.61c.53-1.18.79-2.14.79-2.89Z"/>
      </g>
      <rect class="cls-1" x="472.74" y=".85" width="2.69" height="107.29"/>
      <g>
        <path class="cls-1" d="M86.82,11.88c-.21-.49-.63-.84-1.24-1.03-.62-.19-1.6-.29-2.94-.29-.07,0-.11-.11-.11-.32s.04-.32.11-.32l2.65.05c1.48.07,2.66.11,3.55.11,1.02,0,2.28-.03,3.76-.11l2.49-.05c.11,0,.16.11.16.32s-.05.32-.16.32c-1.31,0-2.27.11-2.89.32-.62.21-1.04.57-1.27,1.08-.23.51-.34,1.3-.34,2.36v24.4c0,1.09.11,1.89.32,2.38.21.49.63.83,1.24,1.01.62.18,1.6.26,2.94.26.11,0,.16.11.16.32s-.05.32-.16.32c-1.06,0-1.91-.02-2.54-.05l-3.71-.05-3.6.05c-.63.04-1.52.05-2.65.05-.07,0-.11-.11-.11-.32s.03-.32.11-.32c1.34,0,2.32-.09,2.94-.26.62-.18,1.04-.52,1.27-1.03.23-.51.34-1.3.34-2.36V14.21c0-1.06-.11-1.83-.32-2.33ZM103.65,11.62c0-.71-1.04-1.06-3.12-1.06-.07,0-.11-.11-.11-.32s.04-.32.11-.32l2.28.05c1.41.07,2.7.11,3.86.11s2.38-.03,3.65-.11l1.96-.05c.11,0,.16.11.16.32s-.05.32-.16.32c-1.45,0-2.98.32-4.6.95-1.62.63-3.14,1.64-4.55,3.02l-13.55,13.29h-1.32l13.66-13.6c1.17-1.16,1.75-2.03,1.75-2.59ZM92,24.75l2.65-2.12,7.73,9.85c2.58,3.35,4.54,5.72,5.9,7.09,1.36,1.38,2.41,2.19,3.15,2.44.74.25,1.82.37,3.23.37.11,0,.16.11.16.32s-.05.32-.16.32h-5.93c-.28,0-.79,0-1.51.03-.72.02-1.74-.88-3.04-2.7-1.31-1.82-2.56-3.48-3.76-5l-8.42-10.59Z"/>
        <path class="cls-1" d="M116.88,42.69c0-.21.03-.32.11-.32,1.17,0,2.01-.09,2.54-.26.53-.18.89-.52,1.08-1.03.19-.51.29-1.3.29-2.36v-16.2c0-1.06-.1-1.83-.29-2.33-.19-.49-.56-.84-1.08-1.03-.53-.19-1.38-.29-2.54-.29-.07,0-.11-.11-.11-.32s.03-.32.11-.32h18.42c.35,0,.53.14.53.42l.05,3.28c.04.67.05,1.52.05,2.54,0,.11-.11.16-.32.16s-.32-.05-.32-.16c-.14-1.62-.73-2.96-1.77-4-1.04-1.04-2.32-1.56-3.84-1.56h-1.48c-1.24,0-2.14.1-2.7.29-.57.19-.95.54-1.17,1.03-.21.49-.32,1.27-.32,2.33v15.93c0,1.02.11,1.79.32,2.3.21.51.61.87,1.19,1.06.58.19,1.47.29,2.67.29h2.54c1.45,0,2.73-.57,3.84-1.72,1.11-1.15,1.86-2.64,2.25-4.47,0-.11.1-.16.29-.16s.29.05.29.16c-.25,2.54-.37,4.62-.37,6.25,0,.28-.05.49-.16.61-.11.12-.32.19-.64.19h-19.37c-.07,0-.11-.11-.11-.32ZM130.99,31.28c-1.39-.23-4.12-.34-8.18-.34v-1.11c4.02,0,6.73-.09,8.12-.26,1.39-.18,2.18-.26,2.36-.26s.26.37.26,1.11c0,.81-.09,1.22-.26,1.22-.14,0-.91-.11-2.3-.34Z"/>
        <path class="cls-1" d="M148.99,40.79c.19.49.56.85,1.11,1.06s1.37.32,2.46.32h3.55c1.83,0,3.31-.58,4.42-1.75s1.86-2.77,2.25-4.82c0-.07.07-.11.21-.11.11,0,.2.02.29.05.09.04.13.09.13.16-.25,1.62-.37,3.79-.37,6.51,0,.28-.06.49-.19.61-.12.12-.33.19-.61.19h-20.7c-.07,0-.11-.11-.11-.32s.03-.32.11-.32c1.17,0,2.01-.09,2.54-.26.53-.18.88-.52,1.06-1.03.18-.51.26-1.3.26-2.36v-16.2c0-1.06-.1-1.83-.29-2.33-.19-.49-.56-.84-1.08-1.03-.53-.19-1.36-.29-2.49-.29-.07,0-.11-.11-.11-.32s.03-.32.11-.32l2.38.05c1.34.07,2.38.11,3.12.11.88,0,1.99-.03,3.33-.11l2.22-.05c.11,0,.16.11.16.32s-.05.32-.16.32c-1.16,0-2.01.1-2.54.29-.53.19-.89.55-1.08,1.06-.19.51-.29,1.3-.29,2.36v15.93c0,1.02.1,1.78.29,2.28Z"/>
        <path class="cls-1" d="M173.5,40.79c.19.49.56.85,1.11,1.06s1.37.32,2.46.32h3.55c1.83,0,3.31-.58,4.42-1.75s1.86-2.77,2.25-4.82c0-.07.07-.11.21-.11.11,0,.2.02.29.05.09.04.13.09.13.16-.25,1.62-.37,3.79-.37,6.51,0,.28-.06.49-.19.61-.12.12-.33.19-.61.19h-20.7c-.07,0-.11-.11-.11-.32s.03-.32.11-.32c1.17,0,2.01-.09,2.54-.26.53-.18.88-.52,1.06-1.03.18-.51.26-1.3.26-2.36v-16.2c0-1.06-.1-1.83-.29-2.33-.19-.49-.56-.84-1.08-1.03-.53-.19-1.36-.29-2.49-.29-.07,0-.11-.11-.11-.32s.03-.32.11-.32l2.38.05c1.34.07,2.38.11,3.12.11.88,0,1.99-.03,3.33-.11l2.22-.05c.11,0,.16.11.16.32s-.05.32-.16.32c-1.16,0-2.01.1-2.54.29-.53.19-.89.55-1.08,1.06-.19.51-.29,1.3-.29,2.36v15.93c0,1.02.1,1.78.29,2.28Z"/>
        <path class="cls-1" d="M190.46,42.69c0-.21.03-.32.11-.32,1.17,0,2.01-.09,2.54-.26.53-.18.89-.52,1.08-1.03.19-.51.29-1.3.29-2.36v-16.2c0-1.06-.1-1.83-.29-2.33-.19-.49-.56-.84-1.08-1.03-.53-.19-1.38-.29-2.54-.29-.07,0-.11-.11-.11-.32s.03-.32.11-.32h18.42c.35,0,.53.14.53.42l.05,3.28c.04.67.05,1.52.05,2.54,0,.11-.11.16-.32.16s-.32-.05-.32-.16c-.14-1.62-.73-2.96-1.77-4-1.04-1.04-2.32-1.56-3.84-1.56h-1.48c-1.24,0-2.14.1-2.7.29-.57.19-.95.54-1.17,1.03-.21.49-.32,1.27-.32,2.33v15.93c0,1.02.11,1.79.32,2.3.21.51.61.87,1.19,1.06.58.19,1.47.29,2.67.29h2.54c1.45,0,2.73-.57,3.84-1.72,1.11-1.15,1.86-2.64,2.25-4.47,0-.11.1-.16.29-.16s.29.05.29.16c-.25,2.54-.37,4.62-.37,6.25,0,.28-.05.49-.16.61-.11.12-.32.19-.64.19h-19.37c-.07,0-.11-.11-.11-.32ZM204.57,31.28c-1.39-.23-4.12-.34-8.18-.34v-1.11c4.02,0,6.73-.09,8.12-.26,1.39-.18,2.18-.26,2.36-.26s.26.37.26,1.11c0,.81-.09,1.22-.26,1.22-.14,0-.91-.11-2.3-.34Z"/>
        <path class="cls-1" d="M226.4,42.69c0,.21-.04.32-.11.32-.99,0-1.75-.02-2.28-.05l-3.33-.05-3.12.05c-.6.04-1.41.05-2.44.05-.07,0-.11-.11-.11-.32s.03-.32.11-.32c1.17,0,2.02-.09,2.57-.26.55-.18.93-.52,1.14-1.03.21-.51.32-1.3.32-2.36v-16.2c0-1.06-.1-1.83-.29-2.33-.19-.49-.57-.84-1.11-1.03-.55-.19-1.4-.29-2.57-.29-.07,0-.11-.11-.11-.32s.04-.32.11-.32l2.44.05c1.27.07,2.29.11,3.07.11.63,0,1.23-.02,1.77-.05.55-.04,1.01-.07,1.4-.11,1.13-.11,2.17-.16,3.12-.16,2.29,0,4.04.44,5.24,1.32,1.2.88,1.8,2.15,1.8,3.81,0,1.45-.42,2.79-1.27,4.02-.85,1.24-2.01,2.21-3.49,2.94-1.48.72-3.11,1.09-4.87,1.09-1.13,0-2.1-.07-2.91-.21l-.05-1.06c.88.25,1.99.37,3.33.37,2.19,0,3.71-.48,4.58-1.46.86-.97,1.3-2.39,1.3-4.26,0-3.88-1.68-5.82-5.03-5.82-1.34,0-2.21.28-2.62.85-.41.56-.61,1.55-.61,2.96v16.09c0,1.09.09,1.89.26,2.38.18.49.53.83,1.06,1.01.53.18,1.39.26,2.59.26.07,0,.11.11.11.32ZM242.12,42.69c0,.21-.04.32-.11.32h-6.19c-.64,0-1.78-1.09-3.44-3.28-1.66-2.19-3.63-5.19-5.93-9l2.81-1.11c2.05,3.35,3.76,5.93,5.13,7.73s2.66,3.09,3.84,3.86c1.18.78,2.44,1.16,3.79,1.16.07,0,.11.11.11.32Z"/>
        <path class="cls-1" d="M249.38,40.44c.6.79.9,1.95.9,3.47s-.34,3.08-1.01,4.47c-.67,1.39-1.66,2.8-2.96,4.21-.04.04-.09.05-.16.05-.11,0-.19-.05-.26-.16-.07-.11-.07-.19,0-.27.78-1.09,1.31-2.14,1.59-3.12.28-.99.42-2.1.42-3.33,0-.95-.13-1.72-.4-2.3-.26-.58-.63-1.08-1.08-1.51l2.01-.37c.03.6-.12,1.06-.48,1.38-.35.32-.81.48-1.38.48-.67,0-1.19-.19-1.56-.56-.37-.37-.56-.87-.56-1.51,0-1.41.81-2.12,2.43-2.12,1.06,0,1.89.4,2.49,1.19Z"/>
        <path class="cls-1" d="M270.63,12.57c-1.11,1.13-1.91,3.05-2.41,5.77,0,.07-.1.11-.29.11s-.29-.03-.29-.11c.14-1.27.3-2.93.48-4.98.18-2.05.26-3.58.26-4.61,0-.18.1-.26.29-.26s.29.09.29.26c0,.78.95,1.16,2.86,1.16,3.04.11,6.58.16,10.64.16,2.08,0,4.29-.03,6.62-.11l3.6-.05c1.27,0,2.21-.09,2.83-.26.62-.18,1.01-.53,1.19-1.06.03-.14.14-.21.32-.21s.26.07.26.21c-.11,1.02-.21,2.58-.32,4.66-.11,2.08-.16,3.78-.16,5.08,0,.07-.11.11-.32.11s-.32-.03-.32-.11c-.11-2.75-.67-4.69-1.69-5.8-1.02-1.11-2.72-1.67-5.08-1.67-1.59,0-2.72.07-3.39.21-.67.14-1.13.44-1.38.9-.25.46-.37,1.24-.37,2.33v24.4c0,1.09.12,1.89.37,2.38.25.49.72.83,1.43,1.01.71.18,1.82.26,3.33.26.11,0,.16.11.16.32s-.05.32-.16.32c-1.16,0-2.1-.02-2.81-.05l-4.13-.05-3.97.05c-.71.04-1.68.05-2.91.05-.07,0-.11-.11-.11-.32s.04-.32.11-.32c1.52,0,2.63-.09,3.33-.26.71-.18,1.19-.52,1.46-1.03.26-.51.4-1.3.4-2.36V14.21c0-1.09-.12-1.86-.37-2.3-.25-.44-.71-.72-1.38-.85-.67-.12-1.82-.19-3.44-.19-2.19,0-3.84.56-4.95,1.69Z"/>
        <path class="cls-1" d="M299.08,42.69c0-.21.03-.32.11-.32,1.17,0,2.01-.09,2.54-.26.53-.18.89-.52,1.08-1.03.19-.51.29-1.3.29-2.36v-16.2c0-1.06-.1-1.83-.29-2.33-.19-.49-.56-.84-1.08-1.03-.53-.19-1.38-.29-2.54-.29-.07,0-.11-.11-.11-.32s.03-.32.11-.32h18.42c.35,0,.53.14.53.42l.05,3.28c.04.67.05,1.52.05,2.54,0,.11-.11.16-.32.16s-.32-.05-.32-.16c-.14-1.62-.73-2.96-1.77-4-1.04-1.04-2.32-1.56-3.84-1.56h-1.48c-1.24,0-2.14.1-2.7.29-.57.19-.95.54-1.17,1.03-.21.49-.32,1.27-.32,2.33v15.93c0,1.02.11,1.79.32,2.3.21.51.61.87,1.19,1.06.58.19,1.47.29,2.67.29h2.54c1.45,0,2.73-.57,3.84-1.72,1.11-1.15,1.86-2.64,2.25-4.47,0-.11.1-.16.29-.16s.29.05.29.16c-.25,2.54-.37,4.62-.37,6.25,0,.28-.05.49-.16.61-.11.12-.32.19-.64.19h-19.37c-.07,0-.11-.11-.11-.32ZM313.19,31.28c-1.39-.23-4.12-.34-8.18-.34v-1.11c4.02,0,6.73-.09,8.12-.26,1.39-.18,2.18-.26,2.36-.26s.26.37.26,1.11c0,.81-.09,1.22-.26,1.22-.14,0-.91-.11-2.3-.34Z"/>
        <path class="cls-1" d="M331.19,40.79c.19.49.56.85,1.11,1.06s1.37.32,2.46.32h3.55c1.83,0,3.31-.58,4.42-1.75s1.86-2.77,2.25-4.82c0-.07.07-.11.21-.11.11,0,.2.02.29.05.09.04.13.09.13.16-.25,1.62-.37,3.79-.37,6.51,0,.28-.06.49-.19.61-.12.12-.33.19-.61.19h-20.7c-.07,0-.11-.11-.11-.32s.03-.32.11-.32c1.17,0,2.01-.09,2.54-.26.53-.18.88-.52,1.06-1.03.18-.51.26-1.3.26-2.36v-16.2c0-1.06-.1-1.83-.29-2.33-.19-.49-.56-.84-1.08-1.03-.53-.19-1.36-.29-2.49-.29-.07,0-.11-.11-.11-.32s.03-.32.11-.32l2.38.05c1.34.07,2.38.11,3.12.11.88,0,1.99-.03,3.33-.11l2.22-.05c.11,0,.16.11.16.32s-.05.32-.16.32c-1.16,0-2.01.1-2.54.29-.53.19-.89.55-1.08,1.06-.19.51-.29,1.3-.29,2.36v15.93c0,1.02.1,1.78.29,2.28Z"/>
        <path class="cls-1" d="M355.69,40.79c.19.49.56.85,1.11,1.06s1.37.32,2.46.32h3.55c1.83,0,3.31-.58,4.42-1.75s1.86-2.77,2.25-4.82c0-.07.07-.11.21-.11.11,0,.2.02.29.05.09.04.13.09.13.16-.25,1.62-.37,3.79-.37,6.51,0,.28-.06.49-.19.61-.12.12-.33.19-.61.19h-20.7c-.07,0-.11-.11-.11-.32s.03-.32.11-.32c1.17,0,2.01-.09,2.54-.26.53-.18.88-.52,1.06-1.03.18-.51.26-1.3.26-2.36v-16.2c0-1.06-.1-1.83-.29-2.33-.19-.49-.56-.84-1.08-1.03-.53-.19-1.36-.29-2.49-.29-.07,0-.11-.11-.11-.32s.03-.32.11-.32l2.38.05c1.34.07,2.38.11,3.12.11.88,0,1.99-.03,3.33-.11l2.22-.05c.11,0,.16.11.16.32s-.05.32-.16.32c-1.16,0-2.01.1-2.54.29-.53.19-.89.55-1.08,1.06-.19.51-.29,1.3-.29,2.36v15.93c0,1.02.1,1.78.29,2.28Z"/>
        <path class="cls-1" d="M372.66,42.69c0-.21.03-.32.11-.32,1.17,0,2.01-.09,2.54-.26.53-.18.89-.52,1.08-1.03.19-.51.29-1.3.29-2.36v-16.2c0-1.06-.1-1.83-.29-2.33-.19-.49-.56-.84-1.08-1.03-.53-.19-1.38-.29-2.54-.29-.07,0-.11-.11-.11-.32s.03-.32.11-.32h18.42c.35,0,.53.14.53.42l.05,3.28c.04.67.05,1.52.05,2.54,0,.11-.11.16-.32.16s-.32-.05-.32-.16c-.14-1.62-.73-2.96-1.77-4-1.04-1.04-2.32-1.56-3.84-1.56h-1.48c-1.24,0-2.14.1-2.7.29-.57.19-.95.54-1.17,1.03-.21.49-.32,1.27-.32,2.33v15.93c0,1.02.11,1.79.32,2.3.21.51.61.87,1.19,1.06.58.19,1.47.29,2.67.29h2.54c1.45,0,2.73-.57,3.84-1.72,1.11-1.15,1.86-2.64,2.25-4.47,0-.11.1-.16.29-.16s.29.05.29.16c-.25,2.54-.37,4.62-.37,6.25,0,.28-.05.49-.16.61-.11.12-.32.19-.64.19h-19.37c-.07,0-.11-.11-.11-.32ZM386.77,31.28c-1.39-.23-4.12-.34-8.18-.34v-1.11c4.02,0,6.73-.09,8.12-.26,1.39-.18,2.18-.26,2.36-.26s.26.37.26,1.11c0,.81-.09,1.22-.26,1.22-.14,0-.91-.11-2.3-.34Z"/>
        <path class="cls-1" d="M403.2,26.2c1.02.94,2.56,1.91,4.61,2.94,1.45.74,2.6,1.41,3.47,2.01.86.6,1.6,1.34,2.2,2.22.6.88.9,1.94.9,3.18,0,1.31-.36,2.5-1.08,3.57-.72,1.08-1.76,1.93-3.1,2.57-1.34.63-2.91.95-4.71.95-2.51,0-4.62-.62-6.35-1.85-.18-.07-.29-.18-.34-.32-.05-.14-.1-.37-.13-.69l-.53-5.24c-.04-.14.04-.23.24-.26.19-.03.33.02.4.16.49,2.05,1.47,3.79,2.94,5.21,1.46,1.43,3.1,2.14,4.9,2.14,1.24,0,2.3-.36,3.2-1.08.9-.72,1.35-1.84,1.35-3.36,0-1.62-.53-2.95-1.59-3.97-1.06-1.02-2.59-2.06-4.61-3.12-1.41-.78-2.53-1.46-3.36-2.04-.83-.58-1.53-1.3-2.09-2.14-.57-.85-.85-1.87-.85-3.07,0-2.01.78-3.58,2.33-4.71,1.55-1.13,3.44-1.69,5.66-1.69,1.8,0,3.56.41,5.29,1.22.32.18.52.32.61.42.09.11.15.26.19.48l.32,4.61c0,.14-.1.23-.29.26-.19.04-.31-.02-.34-.16-.18-.88-.57-1.79-1.19-2.73-.62-.94-1.4-1.72-2.36-2.36s-2.01-.95-3.18-.95c-1.27,0-2.26.39-2.96,1.16-.71.78-1.06,1.77-1.06,2.96,0,1.52.51,2.74,1.54,3.68Z"/>
        <path class="cls-1" d="M444.09,18.53c1.01.62,1.51,1.7,1.51,3.26,0,1.09-.26,2.06-.79,2.91-.53.85-1.17,1.58-1.93,2.2-.76.62-1.79,1.35-3.1,2.2-1.31.88-2.35,1.64-3.12,2.28s-1.43,1.39-1.96,2.25c-.53.87-.79,1.84-.79,2.94,0,1.69.6,3.06,1.8,4.1,1.2,1.04,2.72,1.56,4.55,1.56s3.35-.46,4.76-1.38c1.41-.92,2.52-2.1,3.33-3.55.81-1.45,1.22-2.95,1.22-4.5,0-2.19-1.06-3.28-3.18-3.28-.11,0-.17-.11-.19-.32-.02-.21.04-.32.19-.32l9.1-.05c.14,0,.21.11.21.32s-.07.32-.21.32c-.92,0-1.6.11-2.04.32-.44.21-.74.49-.9.82-.16.34-.38.93-.66,1.77-.88,2.89-2.4,5.5-4.55,7.81-2.15,2.31-5.17,3.47-9.05,3.47-2.51,0-4.39-.53-5.64-1.59-1.25-1.06-1.88-2.36-1.88-3.92s.49-2.76,1.48-3.84c.99-1.08,2.47-2.32,4.45-3.73,2.01-1.45,3.54-2.73,4.58-3.86,1.04-1.13,1.56-2.49,1.56-4.08,0-1.23-.34-2.21-1.01-2.94-.67-.72-1.55-1.08-2.65-1.08-.92,0-1.63.3-2.14.9-.51.6-.77,1.48-.77,2.65,0,1.91.87,4.16,2.62,6.78,1.75,2.61,4.03,5.12,6.86,7.52,2.15,1.84,4.25,3.27,6.3,4.31,2.05,1.04,3.6,1.58,4.66,1.61.11,0,.16.11.16.32s-.05.32-.16.32h-5.45c-.78,0-1.9-.43-3.36-1.3-1.46-.86-3.12-2.13-4.95-3.78-1.69-1.48-3.37-3.16-5.03-5.03-1.66-1.87-2.84-3.56-3.55-5.08-.63-1.38-.95-2.65-.95-3.81,0-1.27.33-2.39,1.01-3.36.67-.97,1.56-1.72,2.67-2.25s2.28-.79,3.52-.79c1.3,0,2.46.31,3.47.93Z"/>
        <path class="cls-1" d="M18.42,94.17c-.28,0-.48-.07-.58-.21l-13.18-28.64c-.63-1.41-1.27-2.39-1.91-2.94-.64-.55-1.5-.82-2.59-.82-.11,0-.16-.11-.16-.32s.05-.32.16-.32l2.01.05c.99.07,1.78.11,2.38.11,1.27,0,2.65-.03,4.13-.11l2.17-.05c.11,0,.16.11.16.32s-.05.32-.16.32c-1.06,0-1.84.12-2.36.37-.51.25-.77.67-.77,1.27,0,.53.18,1.16.53,1.91l11.75,25.25-1.91,2.54,6.93-17.31.79,1.16-6.83,17.2c-.04.14-.23.21-.58.21ZM49.81,61.24c0,.21-.04.32-.11.32-1.2,0-2.24.32-3.12.95-.88.63-1.64,1.71-2.28,3.23l-11.28,28.21c-.04.14-.23.21-.58.21-.28,0-.48-.07-.58-.21l-13.13-28.64c-.64-1.38-1.27-2.35-1.91-2.91-.64-.56-1.46-.85-2.49-.85-.11,0-.16-.11-.16-.32s.05-.32.16-.32l2.01.05c.92.07,1.68.11,2.28.11.99,0,2.01-.03,3.07-.11l1.43-.05c.11,0,.16.11.16.32s-.05.32-.16.32c-.64,0-1.09.06-1.38.19-.28.12-.42.34-.42.66,0,.42.32,1.32.95,2.7l11.8,25.25-1.91,2.54,10.96-27.37c.28-.74.42-1.32.42-1.75,0-.78-.33-1.34-.98-1.69-.65-.35-1.67-.53-3.04-.53-.11,0-.16-.11-.16-.32s.05-.32.16-.32l2.22.05c1.2.07,2.28.11,3.23.11.71,0,1.52-.03,2.43-.11l2.28-.05c.07,0,.11.11.11.32ZM29.96,63.1c0-1.02-.76-1.54-2.28-1.54-.11,0-.16-.11-.16-.32s.05-.32.16-.32l1.22.05c.71.07,1.45.11,2.22.11.71,0,1.52-.03,2.43-.11l2.17-.05c.07,0,.11.11.11.32s-.04.32-.11.32c-1.2,0-2.21.31-3.04.93-.83.62-1.56,1.7-2.2,3.26l-4.39,11.01-.79-1.16,4.02-10.16c.42-.95.63-1.73.63-2.33Z"/>
        <path class="cls-1" d="M73.42,93.69c0,.21-.07.32-.21.32-.63,0-1.66-.03-3.07-.11-1.41-.07-2.43-.11-3.07-.11-.56,0-1.31.04-2.22.11-.92.07-1.62.11-2.12.11-.14,0-.21-.11-.21-.32s.07-.32.21-.32c.95,0,1.65-.11,2.09-.34.44-.23.66-.63.66-1.19,0-.49-.23-1.25-.69-2.28l-8.05-17.36,1.38-1.16-6.62,16.46c-.56,1.34-.85,2.45-.85,3.33s.32,1.57.95,1.96c.64.39,1.61.58,2.91.58.18,0,.26.11.26.32s-.09.32-.26.32c-.53,0-1.25-.03-2.17-.11-.99-.07-1.91-.11-2.75-.11s-1.92.04-3.12.11c-1.06.07-1.91.11-2.54.11-.18,0-.26-.11-.26-.32s.09-.32.26-.32c1.09,0,1.96-.15,2.59-.45.63-.3,1.23-.89,1.77-1.77.55-.88,1.21-2.26,1.98-4.13l7.62-18.58c.07-.14.18-.21.32-.21s.23.07.26.21l8.52,18.32c.92,1.98,1.65,3.41,2.2,4.29.55.88,1.11,1.49,1.69,1.83.58.34,1.35.5,2.3.5.14,0,.21.11.21.32ZM53.78,80.88h9.63l.37.95h-10.85l.85-.95Z"/>
        <path class="cls-1" d="M76.28,70.48c-.78.37-1.38,1-1.83,1.88-.44.88-.79,2.14-1.03,3.76,0,.07-.1.11-.29.11s-.29-.03-.29-.11c.11-.81.23-2.12.37-3.92.14-1.8.21-3.18.21-4.13,0-.18.11-.26.32-.26s.32.09.32.26c0,.46.26.75.79.87.53.12,1.18.19,1.96.19,3.1.07,5.77.11,7.99.11l4.6-.05c.64-.03,1.46-.05,2.49-.05,1.27,0,2.21-.08,2.81-.24.6-.16.99-.5,1.16-1.03.07-.11.19-.16.37-.16s.26.05.26.16c-.21,3.81-.32,6.56-.32,8.26,0,.07-.1.11-.29.11s-.29-.03-.29-.11c-.04-1.59-.22-2.82-.56-3.71-.34-.88-.89-1.52-1.67-1.91-.78-.39-1.85-.58-3.23-.58-1.52,0-2.53.24-3.04.71-.51.48-.77,1.44-.77,2.88v16.2c0,1.09.11,1.89.32,2.38.21.49.63.83,1.24,1.01.62.18,1.61.26,2.99.26.11,0,.16.11.16.32s-.05.32-.16.32c-1.09,0-1.94-.02-2.54-.05l-3.71-.05-3.55.05c-.63.04-1.52.05-2.65.05-.07,0-.11-.11-.11-.32s.03-.32.11-.32c1.34,0,2.33-.09,2.96-.26.64-.18,1.07-.52,1.3-1.03.23-.51.34-1.3.34-2.36v-16.3c0-1.02-.08-1.77-.24-2.25-.16-.48-.49-.8-.98-.98-.49-.18-1.29-.26-2.38-.26-1.34,0-2.4.19-3.18.56Z"/>
        <path class="cls-1" d="M105.5,77.2c1.02.94,2.56,1.91,4.61,2.94,1.45.74,2.6,1.41,3.47,2.01.86.6,1.6,1.34,2.2,2.22.6.88.9,1.94.9,3.18,0,1.31-.36,2.5-1.08,3.57-.72,1.08-1.76,1.93-3.1,2.57-1.34.63-2.91.95-4.71.95-2.51,0-4.62-.62-6.35-1.85-.18-.07-.29-.18-.34-.32-.05-.14-.1-.37-.13-.69l-.53-5.24c-.04-.14.04-.23.24-.26.19-.03.33.02.4.16.49,2.05,1.47,3.79,2.94,5.21,1.46,1.43,3.1,2.14,4.9,2.14,1.24,0,2.3-.36,3.2-1.08.9-.72,1.35-1.84,1.35-3.36,0-1.62-.53-2.95-1.59-3.97-1.06-1.02-2.59-2.06-4.61-3.12-1.41-.78-2.53-1.46-3.36-2.04-.83-.58-1.53-1.3-2.09-2.14-.57-.85-.85-1.87-.85-3.07,0-2.01.78-3.58,2.33-4.71,1.55-1.13,3.44-1.69,5.66-1.69,1.8,0,3.56.41,5.29,1.22.32.18.52.32.61.42.09.11.15.26.19.48l.32,4.61c0,.14-.1.23-.29.26-.19.04-.31-.02-.34-.16-.18-.88-.57-1.79-1.19-2.73-.62-.94-1.4-1.72-2.36-2.36s-2.01-.95-3.18-.95c-1.27,0-2.26.39-2.96,1.16-.71.78-1.06,1.77-1.06,2.96,0,1.52.51,2.74,1.54,3.68Z"/>
        <path class="cls-1" d="M126.49,92.9c-1.92-1.16-3.41-2.73-4.47-4.71-1.06-1.98-1.59-4.11-1.59-6.41,0-2.75.71-5.13,2.14-7.12,1.43-1.99,3.25-3.5,5.45-4.53,2.21-1.02,4.46-1.54,6.75-1.54,2.47,0,4.65.61,6.54,1.83s3.33,2.8,4.34,4.74c1.01,1.94,1.51,3.97,1.51,6.09,0,2.36-.63,4.58-1.91,6.64s-2.98,3.71-5.13,4.92c-2.15,1.22-4.5,1.83-7.04,1.83s-4.67-.58-6.59-1.75ZM141.04,90.62c1.64-1.94,2.46-4.62,2.46-8.05,0-2.36-.42-4.52-1.24-6.46-.83-1.94-2.04-3.49-3.63-4.66s-3.48-1.75-5.66-1.75c-2.82,0-5.01.94-6.56,2.83-1.55,1.89-2.33,4.53-2.33,7.91,0,2.44.41,4.64,1.24,6.62.83,1.98,2.03,3.55,3.6,4.71s3.42,1.75,5.53,1.75c2.75,0,4.95-.97,6.59-2.91Z"/>
        <path class="cls-1" d="M173.73,94.75c-.18.03-.3.02-.37-.05l-17.36-21.12c-1.13-1.34-2.11-2.29-2.94-2.86-.83-.56-1.63-.85-2.41-.85-.07,0-.11-.11-.11-.32s.03-.32.11-.32l2.96.05,2.81-.05c.25,0,.45.07.61.21.16.14.4.44.71.9.28.46.67,1.01,1.16,1.64l14.56,17.94.53,4.66c0,.07-.09.12-.26.16ZM154.25,70.4l1.06.16v17.68c0,1.87.26,3.19.79,3.97.53.78,1.45,1.16,2.75,1.16.07,0,.11.11.11.32s-.04.32-.11.32c-.78,0-1.38-.02-1.8-.05l-2.22-.05-2.28.05c-.46.04-1.09.05-1.91.05-.07,0-.11-.11-.11-.32s.03-.32.11-.32c1.31,0,2.23-.39,2.78-1.16.55-.78.82-2.1.82-3.97v-17.84ZM174,94.59l-1.06-1.64v-17.95c0-1.87-.26-3.19-.77-3.97-.51-.78-1.42-1.16-2.73-1.16-.11,0-.16-.11-.16-.32s.05-.32.16-.32l1.8.05c.92.07,1.66.11,2.22.11s1.34-.03,2.33-.11l1.85-.05c.11,0,.16.11.16.32s-.05.32-.16.32c-1.31,0-2.24.39-2.81,1.16-.56.78-.85,2.1-.85,3.97v19.59Z"/>
        <path class="cls-1" d="M228.84,93.69c0,.21-.07.32-.21.32-.67,0-1.71-.03-3.12-.11-1.41-.07-2.43-.11-3.07-.11-.78,0-1.77.04-2.96.11-1.13.07-1.99.11-2.59.11-.14,0-.21-.11-.21-.32s.07-.32.21-.32c1.34,0,2.3-.12,2.88-.37.58-.25.87-.69.87-1.32,0-.53-.21-1.27-.64-2.22l-11.75-24.83,1.32-1.64-10.27,24.3c-.5,1.2-.74,2.19-.74,2.96,0,2.08,1.73,3.12,5.19,3.12.18,0,.26.11.26.32s-.09.32-.26.32c-.63,0-1.55-.03-2.75-.11-1.34-.07-2.51-.11-3.49-.11-.92,0-1.98.04-3.18.11-1.06.07-1.94.11-2.65.11-.18,0-.26-.11-.26-.32s.09-.32.26-.32c.99,0,1.83-.19,2.51-.56s1.34-1.02,1.96-1.96c.62-.94,1.3-2.28,2.04-4.05l11.17-26.36c.07-.11.19-.16.37-.16s.28.05.32.16l12.49,26.31c1.2,2.61,2.22,4.37,3.07,5.27s1.85,1.35,3.02,1.35c.14,0,.21.11.21.32ZM203.69,75.38h10.9l.37,1.11h-12.07l.79-1.11Z"/>
        <path class="cls-1" d="M239.95,94.06c-.42-.04-.95-.07-1.59-.11-.63-.04-1.36-.05-2.17-.05l-3.12.05c-.6.04-1.41.05-2.44.05-.07,0-.11-.11-.11-.32s.03-.32.11-.32c1.2,0,2.07-.09,2.62-.26.55-.18.92-.52,1.11-1.03.19-.51.29-1.3.29-2.36v-16.2c0-1.06-.1-1.83-.29-2.33-.19-.49-.57-.84-1.11-1.03-.55-.19-1.4-.29-2.57-.29-.07,0-.11-.11-.11-.32s.04-.32.11-.32l2.38.05c1.34.07,2.38.11,3.12.11,1.09,0,2.19-.05,3.28-.16,1.41-.07,2.47-.11,3.18-.11,2.96,0,5.52.53,7.68,1.59,2.15,1.06,3.79,2.52,4.92,4.39,1.13,1.87,1.69,3.99,1.69,6.35s-.58,4.62-1.75,6.56c-1.17,1.94-2.78,3.46-4.84,4.55-2.06,1.09-4.42,1.64-7.07,1.64-.99,0-2.1-.05-3.33-.16ZM250.38,90.52c1.83-1.98,2.75-4.8,2.75-8.47s-.91-6.44-2.73-8.73c-1.82-2.29-4.54-3.44-8.18-3.44-1.62,0-2.76.26-3.41.79-.65.53-.98,1.52-.98,2.96v15.51c0,1.59.33,2.71.98,3.36.65.65,1.93.98,3.84.98,3.32,0,5.89-.99,7.73-2.96Z"/>
        <path class="cls-1" d="M286.22,69.55c0,.21-.04.32-.11.32-1.02,0-1.9.29-2.62.87-.72.58-1.37,1.58-1.93,2.99l-7.99,20.22c-.04.14-.23.21-.58.21s-.55-.07-.58-.21l-9.63-20.33c-.71-1.48-1.32-2.48-1.85-2.99-.53-.51-1.25-.77-2.17-.77-.11,0-.16-.11-.16-.32s.05-.32.16-.32l2.01.05c.99.07,1.76.11,2.33.11.88,0,1.96-.03,3.23-.11l2.12-.05c.07,0,.11.11.11.32s-.04.32-.11.32c-1.83,0-2.75.55-2.75,1.64,0,.39.14.92.42,1.59l8.36,17.31-1.64,2.96,7.62-19.96c.25-.74.37-1.27.37-1.59,0-1.31-1.18-1.96-3.55-1.96-.11,0-.16-.11-.16-.32s.05-.32.16-.32l1.91.05c1.06.07,2.01.11,2.86.11.56,0,1.27-.03,2.12-.11l1.96-.05c.07,0,.11.11.11.32Z"/>
        <path class="cls-1" d="M293.87,92.9c-1.92-1.16-3.41-2.73-4.47-4.71-1.06-1.98-1.59-4.11-1.59-6.41,0-2.75.71-5.13,2.14-7.12,1.43-1.99,3.25-3.5,5.45-4.53,2.21-1.02,4.46-1.54,6.75-1.54,2.47,0,4.65.61,6.54,1.83s3.33,2.8,4.34,4.74c1.01,1.94,1.51,3.97,1.51,6.09,0,2.36-.63,4.58-1.91,6.64s-2.98,3.71-5.13,4.92c-2.15,1.22-4.5,1.83-7.04,1.83s-4.67-.58-6.59-1.75ZM308.42,90.62c1.64-1.94,2.46-4.62,2.46-8.05,0-2.36-.42-4.52-1.24-6.46-.83-1.94-2.04-3.49-3.63-4.66s-3.48-1.75-5.66-1.75c-2.82,0-5.01.94-6.56,2.83-1.55,1.89-2.33,4.53-2.33,7.91,0,2.44.41,4.64,1.24,6.62.83,1.98,2.03,3.55,3.6,4.71s3.42,1.75,5.53,1.75c2.75,0,4.95-.97,6.59-2.91Z"/>
        <path class="cls-1" d="M324.78,92.87c-2.1-1.18-3.7-2.74-4.79-4.68-1.09-1.94-1.64-3.99-1.64-6.14,0-2.75.62-5.14,1.85-7.17,1.23-2.03,3-3.58,5.29-4.66,2.29-1.08,4.99-1.61,8.1-1.61,1.48,0,2.89.14,4.23.42,1.34.28,2.47.69,3.39,1.22.21.11.34.25.4.42.05.18.1.42.13.74l.53,4.98c0,.11-.1.17-.29.19-.19.02-.31-.03-.34-.13-.78-2.44-1.94-4.22-3.49-5.35-1.55-1.13-3.49-1.69-5.82-1.69-3.11,0-5.59,1.07-7.46,3.2-1.87,2.14-2.81,5.06-2.81,8.76,0,2.44.47,4.6,1.4,6.48.93,1.89,2.26,3.36,3.97,4.42,1.71,1.06,3.71,1.59,6.01,1.59,1.76,0,3.06-.16,3.89-.48.83-.32,1.39-.93,1.69-1.83.3-.9.45-2.3.45-4.21,0-.92-.1-1.56-.29-1.93-.19-.37-.6-.62-1.22-.74-.62-.12-1.7-.19-3.26-.19-.21,0-.32-.14-.32-.42,0-.11.03-.2.08-.29.05-.09.11-.13.19-.13,1.83.14,3.69.21,5.56.21.85,0,2.26-.03,4.24-.11.07,0,.13.04.18.13.05.09.08.17.08.24,0,.25-.09.37-.26.37-.71-.03-1.2.02-1.48.16-.28.14-.46.43-.53.87-.07.44-.11,1.23-.11,2.36,0,1.59.04,2.7.11,3.33.07.64.11,1.08.11,1.32,0,.21-.03.34-.08.4-.05.05-.22.13-.5.24-2.33.99-5.59,1.48-9.79,1.48-2.82,0-5.29-.59-7.38-1.77Z"/>
        <path class="cls-1" d="M375.57,93.69c0,.21-.07.32-.21.32-.63,0-1.66-.03-3.07-.11-1.41-.07-2.43-.11-3.07-.11-.56,0-1.31.04-2.22.11-.92.07-1.62.11-2.12.11-.14,0-.21-.11-.21-.32s.07-.32.21-.32c.95,0,1.65-.11,2.09-.34.44-.23.66-.63.66-1.19,0-.49-.23-1.25-.69-2.28l-8.05-17.36,1.38-1.16-6.62,16.46c-.56,1.34-.85,2.45-.85,3.33s.32,1.57.95,1.96c.64.39,1.61.58,2.91.58.18,0,.26.11.26.32s-.09.32-.26.32c-.53,0-1.25-.03-2.17-.11-.99-.07-1.91-.11-2.75-.11s-1.92.04-3.12.11c-1.06.07-1.91.11-2.54.11-.18,0-.26-.11-.26-.32s.09-.32.26-.32c1.09,0,1.96-.15,2.59-.45.63-.3,1.23-.89,1.77-1.77.55-.88,1.21-2.26,1.98-4.13l7.62-18.58c.07-.14.18-.21.32-.21s.23.07.26.21l8.52,18.32c.92,1.98,1.65,3.41,2.2,4.29.55.88,1.11,1.49,1.69,1.83.58.34,1.35.5,2.3.5.14,0,.21.11.21.32ZM355.93,80.88h9.63l.37.95h-10.85l.85-.95Z"/>
        <path class="cls-1" d="M386.69,94.06c-.42-.04-.95-.07-1.59-.11-.63-.04-1.36-.05-2.17-.05l-3.12.05c-.6.04-1.41.05-2.44.05-.07,0-.11-.11-.11-.32s.03-.32.11-.32c1.2,0,2.07-.09,2.62-.26.55-.18.92-.52,1.11-1.03.19-.51.29-1.3.29-2.36v-16.2c0-1.06-.1-1.83-.29-2.33-.19-.49-.57-.84-1.11-1.03-.55-.19-1.4-.29-2.57-.29-.07,0-.11-.11-.11-.32s.04-.32.11-.32l2.38.05c1.34.07,2.38.11,3.12.11,1.09,0,2.19-.05,3.28-.16,1.41-.07,2.47-.11,3.18-.11,2.96,0,5.52.53,7.68,1.59,2.15,1.06,3.79,2.52,4.92,4.39,1.13,1.87,1.69,3.99,1.69,6.35s-.58,4.62-1.75,6.56c-1.17,1.94-2.78,3.46-4.84,4.55-2.06,1.09-4.42,1.64-7.07,1.64-.99,0-2.1-.05-3.33-.16ZM397.12,90.52c1.83-1.98,2.75-4.8,2.75-8.47s-.91-6.44-2.73-8.73c-1.82-2.29-4.54-3.44-8.18-3.44-1.62,0-2.76.26-3.41.79-.65.53-.98,1.52-.98,2.96v15.51c0,1.59.33,2.71.98,3.36.65.65,1.93.98,3.84.98,3.32,0,5.89-.99,7.73-2.96Z"/>
        <path class="cls-1" d="M413.55,92.9c-1.92-1.16-3.41-2.73-4.47-4.71-1.06-1.98-1.59-4.11-1.59-6.41,0-2.75.71-5.13,2.14-7.12,1.43-1.99,3.25-3.5,5.45-4.53,2.21-1.02,4.46-1.54,6.75-1.54,2.47,0,4.65.61,6.54,1.83s3.33,2.8,4.34,4.74c1.01,1.94,1.51,3.97,1.51,6.09,0,2.36-.63,4.58-1.91,6.64s-2.98,3.71-5.13,4.92c-2.15,1.22-4.5,1.83-7.04,1.83s-4.67-.58-6.59-1.75ZM428.11,90.62c1.64-1.94,2.46-4.62,2.46-8.05,0-2.36-.42-4.52-1.24-6.46-.83-1.94-2.04-3.49-3.63-4.66s-3.48-1.75-5.66-1.75c-2.82,0-5.01.94-6.56,2.83-1.55,1.89-2.33,4.53-2.33,7.91,0,2.44.41,4.64,1.24,6.62.83,1.98,2.03,3.55,3.6,4.71s3.42,1.75,5.53,1.75c2.75,0,4.95-.97,6.59-2.91Z"/>
        <path class="cls-1" d="M443.86,77.2c1.02.94,2.56,1.91,4.61,2.94,1.45.74,2.6,1.41,3.47,2.01.86.6,1.6,1.34,2.2,2.22.6.88.9,1.94.9,3.18,0,1.31-.36,2.5-1.08,3.57-.72,1.08-1.76,1.93-3.1,2.57-1.34.63-2.91.95-4.71.95-2.51,0-4.62-.62-6.35-1.85-.18-.07-.29-.18-.34-.32-.05-.14-.1-.37-.13-.69l-.53-5.24c-.04-.14.04-.23.24-.26.19-.03.33.02.4.16.49,2.05,1.47,3.79,2.94,5.21,1.46,1.43,3.1,2.14,4.9,2.14,1.24,0,2.3-.36,3.2-1.08.9-.72,1.35-1.84,1.35-3.36,0-1.62-.53-2.95-1.59-3.97-1.06-1.02-2.59-2.06-4.61-3.12-1.41-.78-2.53-1.46-3.36-2.04-.83-.58-1.53-1.3-2.09-2.14-.57-.85-.85-1.87-.85-3.07,0-2.01.78-3.58,2.33-4.71,1.55-1.13,3.44-1.69,5.66-1.69,1.8,0,3.56.41,5.29,1.22.32.18.52.32.61.42.09.11.15.26.19.48l.32,4.61c0,.14-.1.23-.29.26-.19.04-.31-.02-.34-.16-.18-.88-.57-1.79-1.19-2.73-.62-.94-1.4-1.72-2.36-2.36s-2.01-.95-3.18-.95c-1.27,0-2.26.39-2.96,1.16-.71.78-1.06,1.77-1.06,2.96,0,1.52.51,2.74,1.54,3.68Z"/>
      </g>
    </g>
  </g>
</svg>