<?xml version="1.0" encoding="UTF-8"?>
<svg id="Camada_2" data-name="Camada 2" xmlns="http://www.w3.org/2000/svg" viewBox="0 0 1183.09 176.17">
  <defs>
    <style>
      .cls-1 {
        fill: #fff;
      }
    </style>
  </defs>
  <g id="Camada_1-2" data-name="Camada 1">
    <g>
      <g>
        <g>
          <path class="cls-1" d="M627.32,80.79c-.14-.33-.41-.55-.82-.68-.41-.13-1.05-.19-1.94-.19-.05,0-.07-.07-.07-.21s.02-.21.07-.21l1.75.03c.98.05,1.76.07,2.34.07.68,0,1.5-.02,2.48-.07l1.64-.03c.07,0,.11.07.11.21s-.04.21-.11.21c-.86,0-1.5.07-1.9.21-.41.14-.69.38-.84.72-.15.34-.23.86-.23,1.56v16.11c0,.72.07,1.25.21,1.57.14.33.41.55.82.66.41.12,1.05.17,1.94.17.07,0,.11.07.11.21s-.04.21-.11.21c-.7,0-1.26-.01-1.68-.04l-2.45-.03-2.38.03c-.42.02-1,.04-1.75.04-.05,0-.07-.07-.07-.21s.02-.21.07-.21c.88,0,1.53-.06,1.94-.17.41-.12.69-.34.84-.68.15-.34.23-.86.23-1.56v-16.18c0-.7-.07-1.21-.21-1.54ZM638.43,80.61c0-.47-.69-.7-2.06-.7-.05,0-.07-.07-.07-.21s.02-.21.07-.21l1.5.03c.93.05,1.78.07,2.55.07s1.57-.02,2.41-.07l1.29-.03c.07,0,.11.07.11.21s-.04.21-.11.21c-.96,0-1.97.21-3.04.63-1.07.42-2.07,1.08-3.01,1.99l-8.95,8.77h-.87l9.02-8.98c.77-.77,1.15-1.34,1.15-1.71ZM630.74,89.28l1.75-1.4,5.1,6.5c1.7,2.21,3,3.77,3.9,4.68s1.59,1.44,2.08,1.61c.49.16,1.2.24,2.13.24.07,0,.1.07.1.21s-.04.21-.1.21h-3.92c-.19,0-.52,0-1,.02-.48.01-1.15-.58-2.01-1.78-.86-1.2-1.69-2.3-2.48-3.3l-5.56-6.99Z"/>
          <path class="cls-1" d="M647.17,101.13c0-.14.02-.21.07-.21.77,0,1.33-.06,1.68-.17.35-.12.59-.34.72-.68s.19-.86.19-1.56v-10.69c0-.7-.06-1.21-.19-1.54-.13-.33-.37-.55-.72-.68s-.91-.19-1.68-.19c-.05,0-.07-.07-.07-.21s.02-.21.07-.21h12.16c.23,0,.35.09.35.28l.04,2.17c.02.44.04,1,.04,1.68,0,.07-.07.1-.21.1s-.21-.04-.21-.1c-.09-1.07-.48-1.95-1.17-2.64-.69-.69-1.53-1.03-2.53-1.03h-.98c-.82,0-1.41.06-1.78.19-.37.13-.63.36-.77.68-.14.33-.21.84-.21,1.54v10.52c0,.68.07,1.18.21,1.52.14.34.4.57.79.7.38.13.97.19,1.76.19h1.68c.96,0,1.8-.38,2.53-1.14.73-.76,1.23-1.74,1.49-2.95,0-.07.06-.1.19-.1s.19.03.19.1c-.16,1.68-.24,3.05-.24,4.12,0,.19-.04.32-.11.4-.07.08-.21.12-.42.12h-12.79s-.07-.07-.07-.21ZM656.48,93.59c-.92-.15-2.72-.23-5.4-.23v-.73c2.66,0,4.44-.06,5.37-.17.92-.12,1.44-.17,1.55-.17s.17.24.17.73c0,.54-.06.8-.17.8-.09,0-.6-.08-1.52-.23Z"/>
          <path class="cls-1" d="M668.36,99.87c.13.33.37.56.73.7.36.14.9.21,1.62.21h2.34c1.21,0,2.18-.38,2.92-1.15.73-.77,1.23-1.83,1.49-3.18,0-.05.05-.07.14-.07.07,0,.13.01.19.04.06.02.09.06.09.1-.16,1.07-.25,2.5-.25,4.3,0,.19-.04.32-.12.4s-.22.12-.4.12h-13.66s-.07-.07-.07-.21.02-.21.07-.21c.77,0,1.33-.06,1.68-.17.35-.12.58-.34.7-.68.12-.34.17-.86.17-1.56v-10.69c0-.7-.06-1.21-.19-1.54-.13-.33-.37-.55-.72-.68-.35-.13-.9-.19-1.64-.19-.05,0-.07-.07-.07-.21s.02-.21.07-.21l1.57.04c.88.05,1.57.07,2.06.07.58,0,1.32-.02,2.2-.07l1.47-.04c.07,0,.1.07.1.21s-.03.21-.1.21c-.77,0-1.33.06-1.68.19s-.59.36-.72.7c-.13.34-.19.86-.19,1.56v10.52c0,.68.06,1.18.19,1.5Z"/>
          <path class="cls-1" d="M684.54,99.87c.13.33.37.56.73.7.36.14.9.21,1.62.21h2.34c1.21,0,2.18-.38,2.92-1.15.73-.77,1.23-1.83,1.49-3.18,0-.05.05-.07.14-.07.07,0,.13.01.19.04.06.02.09.06.09.1-.16,1.07-.25,2.5-.25,4.3,0,.19-.04.32-.12.4s-.22.12-.4.12h-13.66s-.07-.07-.07-.21.02-.21.07-.21c.77,0,1.33-.06,1.68-.17.35-.12.58-.34.7-.68.12-.34.17-.86.17-1.56v-10.69c0-.7-.06-1.21-.19-1.54-.13-.33-.37-.55-.72-.68-.35-.13-.9-.19-1.64-.19-.05,0-.07-.07-.07-.21s.02-.21.07-.21l1.57.04c.88.05,1.57.07,2.06.07.58,0,1.32-.02,2.2-.07l1.47-.04c.07,0,.1.07.1.21s-.03.21-.1.21c-.77,0-1.33.06-1.68.19s-.59.36-.72.7c-.13.34-.19.86-.19,1.56v10.52c0,.68.06,1.18.19,1.5Z"/>
          <path class="cls-1" d="M695.74,101.13c0-.14.02-.21.07-.21.77,0,1.33-.06,1.68-.17.35-.12.59-.34.72-.68s.19-.86.19-1.56v-10.69c0-.7-.06-1.21-.19-1.54-.13-.33-.37-.55-.72-.68s-.91-.19-1.68-.19c-.05,0-.07-.07-.07-.21s.02-.21.07-.21h12.16c.23,0,.35.09.35.28l.04,2.17c.02.44.04,1,.04,1.68,0,.07-.07.1-.21.1s-.21-.04-.21-.1c-.09-1.07-.48-1.95-1.17-2.64-.69-.69-1.53-1.03-2.53-1.03h-.98c-.82,0-1.41.06-1.78.19-.37.13-.63.36-.77.68-.14.33-.21.84-.21,1.54v10.52c0,.68.07,1.18.21,1.52.14.34.4.57.79.7.38.13.97.19,1.76.19h1.68c.96,0,1.8-.38,2.53-1.14.73-.76,1.23-1.74,1.49-2.95,0-.07.06-.1.19-.1s.19.03.19.1c-.16,1.68-.24,3.05-.24,4.12,0,.19-.04.32-.11.4-.07.08-.21.12-.42.12h-12.79s-.07-.07-.07-.21ZM705.06,93.59c-.92-.15-2.72-.23-5.4-.23v-.73c2.66,0,4.44-.06,5.37-.17.92-.12,1.44-.17,1.55-.17s.17.24.17.73c0,.54-.06.8-.17.8-.09,0-.6-.08-1.52-.23Z"/>
          <path class="cls-1" d="M719.47,101.13c0,.14-.02.21-.07.21-.65,0-1.15-.01-1.5-.04l-2.2-.03-2.06.03c-.4.02-.93.04-1.61.04-.05,0-.07-.07-.07-.21s.02-.21.07-.21c.77,0,1.33-.06,1.69-.17.36-.12.61-.34.75-.68s.21-.86.21-1.56v-10.69c0-.7-.06-1.21-.19-1.54-.13-.33-.37-.55-.73-.68s-.93-.19-1.7-.19c-.05,0-.07-.07-.07-.21s.02-.21.07-.21l1.61.04c.84.05,1.51.07,2.03.07.42,0,.81-.01,1.17-.04.36-.02.67-.05.93-.07.75-.07,1.43-.1,2.06-.1,1.51,0,2.67.29,3.46.87.79.58,1.19,1.42,1.19,2.52,0,.96-.28,1.84-.84,2.66-.56.82-1.33,1.46-2.31,1.94-.98.48-2.05.72-3.22.72-.75,0-1.39-.05-1.92-.14l-.04-.7c.58.16,1.32.24,2.2.24,1.44,0,2.45-.32,3.02-.96.57-.64.86-1.58.86-2.81,0-2.56-1.11-3.84-3.32-3.84-.89,0-1.46.19-1.73.56-.27.37-.4,1.03-.4,1.96v10.62c0,.72.06,1.25.17,1.57.12.33.35.55.7.66.35.12.92.17,1.71.17.05,0,.07.07.07.21ZM729.85,101.13c0,.14-.02.21-.07.21h-4.09c-.42,0-1.18-.72-2.27-2.17-1.09-1.44-2.4-3.42-3.91-5.94l1.85-.73c1.35,2.21,2.48,3.91,3.39,5.1.91,1.19,1.75,2.04,2.53,2.55.78.51,1.61.77,2.5.77.05,0,.07.07.07.21Z"/>
          <path class="cls-1" d="M734.64,99.64c.4.52.59,1.29.59,2.29s-.22,2.03-.66,2.95c-.44.92-1.1,1.85-1.96,2.78-.02.02-.06.04-.11.04-.07,0-.13-.04-.17-.1s-.05-.13,0-.17c.51-.72.86-1.41,1.05-2.06.19-.65.28-1.39.28-2.2,0-.63-.09-1.14-.26-1.52-.17-.38-.41-.72-.72-1l1.33-.25c.02.4-.08.7-.31.91-.23.21-.54.31-.91.31-.44,0-.79-.12-1.03-.37-.25-.24-.37-.58-.37-1,0-.93.54-1.4,1.61-1.4.7,0,1.25.26,1.64.79Z"/>
          <path class="cls-1" d="M748.67,81.24c-.73.75-1.26,2.02-1.59,3.81,0,.05-.06.07-.19.07s-.19-.02-.19-.07c.09-.84.2-1.93.31-3.29.12-1.35.17-2.36.17-3.04,0-.12.06-.17.19-.17s.19.06.19.17c0,.51.63.77,1.89.77,2,.07,4.34.1,7.02.1,1.38,0,2.83-.02,4.37-.07l2.38-.03c.84,0,1.46-.06,1.87-.17.41-.12.67-.35.79-.7.02-.09.09-.14.21-.14s.17.05.17.14c-.07.68-.14,1.7-.21,3.08-.07,1.38-.1,2.49-.1,3.35,0,.05-.07.07-.21.07s-.21-.02-.21-.07c-.07-1.82-.44-3.09-1.12-3.83s-1.79-1.1-3.35-1.1c-1.05,0-1.79.05-2.24.14-.44.09-.75.29-.91.59-.16.3-.25.82-.25,1.54v16.11c0,.72.08,1.25.25,1.57.16.33.48.55.94.66.47.12,1.2.17,2.2.17.07,0,.1.07.1.21s-.04.21-.1.21c-.77,0-1.39-.01-1.85-.04l-2.73-.03-2.62.03c-.47.02-1.11.04-1.92.04-.05,0-.07-.07-.07-.21s.02-.21.07-.21c1,0,1.74-.06,2.2-.17.47-.12.79-.34.96-.68s.26-.86.26-1.56v-16.18c0-.72-.08-1.23-.24-1.52-.16-.29-.47-.48-.91-.56s-1.2-.12-2.27-.12c-1.45,0-2.53.37-3.27,1.12Z"/>
          <path class="cls-1" d="M767.46,101.13c0-.14.02-.21.07-.21.77,0,1.33-.06,1.68-.17.35-.12.59-.34.72-.68s.19-.86.19-1.56v-10.69c0-.7-.06-1.21-.19-1.54-.13-.33-.37-.55-.72-.68s-.91-.19-1.68-.19c-.05,0-.07-.07-.07-.21s.02-.21.07-.21h12.16c.23,0,.35.09.35.28l.04,2.17c.02.44.04,1,.04,1.68,0,.07-.07.1-.21.1s-.21-.04-.21-.1c-.09-1.07-.48-1.95-1.17-2.64-.69-.69-1.53-1.03-2.53-1.03h-.98c-.82,0-1.41.06-1.78.19-.37.13-.63.36-.77.68-.14.33-.21.84-.21,1.54v10.52c0,.68.07,1.18.21,1.52.14.34.4.57.79.7.38.13.97.19,1.76.19h1.68c.96,0,1.8-.38,2.53-1.14.73-.76,1.23-1.74,1.49-2.95,0-.07.06-.1.19-.1s.19.03.19.1c-.16,1.68-.24,3.05-.24,4.12,0,.19-.04.32-.11.4-.07.08-.21.12-.42.12h-12.79s-.07-.07-.07-.21ZM776.77,93.59c-.92-.15-2.72-.23-5.4-.23v-.73c2.66,0,4.44-.06,5.37-.17.92-.12,1.44-.17,1.55-.17s.17.24.17.73c0,.54-.06.8-.17.8-.09,0-.6-.08-1.52-.23Z"/>
          <path class="cls-1" d="M788.65,99.87c.13.33.37.56.73.7.36.14.9.21,1.62.21h2.34c1.21,0,2.18-.38,2.92-1.15.73-.77,1.23-1.83,1.49-3.18,0-.05.05-.07.14-.07.07,0,.13.01.19.04.06.02.09.06.09.1-.16,1.07-.25,2.5-.25,4.3,0,.19-.04.32-.12.4s-.22.12-.4.12h-13.66s-.07-.07-.07-.21.02-.21.07-.21c.77,0,1.33-.06,1.68-.17.35-.12.58-.34.7-.68.12-.34.17-.86.17-1.56v-10.69c0-.7-.06-1.21-.19-1.54-.13-.33-.37-.55-.72-.68-.35-.13-.9-.19-1.64-.19-.05,0-.07-.07-.07-.21s.02-.21.07-.21l1.57.04c.88.05,1.57.07,2.06.07.58,0,1.32-.02,2.2-.07l1.47-.04c.07,0,.1.07.1.21s-.03.21-.1.21c-.77,0-1.33.06-1.68.19s-.59.36-.72.7c-.13.34-.19.86-.19,1.56v10.52c0,.68.06,1.18.19,1.5Z"/>
          <path class="cls-1" d="M804.83,99.87c.13.33.37.56.73.7.36.14.9.21,1.62.21h2.34c1.21,0,2.18-.38,2.92-1.15.73-.77,1.23-1.83,1.49-3.18,0-.05.05-.07.14-.07.07,0,.13.01.19.04.06.02.09.06.09.1-.16,1.07-.25,2.5-.25,4.3,0,.19-.04.32-.12.4s-.22.12-.4.12h-13.66s-.07-.07-.07-.21.02-.21.07-.21c.77,0,1.33-.06,1.68-.17.35-.12.58-.34.7-.68.12-.34.17-.86.17-1.56v-10.69c0-.7-.06-1.21-.19-1.54-.13-.33-.37-.55-.72-.68-.35-.13-.9-.19-1.64-.19-.05,0-.07-.07-.07-.21s.02-.21.07-.21l1.57.04c.88.05,1.57.07,2.06.07.58,0,1.32-.02,2.2-.07l1.47-.04c.07,0,.1.07.1.21s-.03.21-.1.21c-.77,0-1.33.06-1.68.19s-.59.36-.72.7c-.13.34-.19.86-.19,1.56v10.52c0,.68.06,1.18.19,1.5Z"/>
          <path class="cls-1" d="M816.04,101.13c0-.14.02-.21.07-.21.77,0,1.33-.06,1.68-.17.35-.12.59-.34.72-.68s.19-.86.19-1.56v-10.69c0-.7-.06-1.21-.19-1.54-.13-.33-.37-.55-.72-.68s-.91-.19-1.68-.19c-.05,0-.07-.07-.07-.21s.02-.21.07-.21h12.16c.23,0,.35.09.35.28l.04,2.17c.02.44.04,1,.04,1.68,0,.07-.07.1-.21.1s-.21-.04-.21-.1c-.09-1.07-.48-1.95-1.17-2.64-.69-.69-1.53-1.03-2.53-1.03h-.98c-.82,0-1.41.06-1.78.19-.37.13-.63.36-.77.68-.14.33-.21.84-.21,1.54v10.52c0,.68.07,1.18.21,1.52.14.34.4.57.79.7.38.13.97.19,1.76.19h1.68c.96,0,1.8-.38,2.53-1.14.73-.76,1.23-1.74,1.49-2.95,0-.07.06-.1.19-.1s.19.03.19.1c-.16,1.68-.24,3.05-.24,4.12,0,.19-.04.32-.11.4-.07.08-.21.12-.42.12h-12.79s-.07-.07-.07-.21ZM825.35,93.59c-.92-.15-2.72-.23-5.4-.23v-.73c2.66,0,4.44-.06,5.37-.17.92-.12,1.44-.17,1.55-.17s.17.24.17.73c0,.54-.06.8-.17.8-.09,0-.6-.08-1.52-.23Z"/>
          <path class="cls-1" d="M836.2,90.24c.68.62,1.69,1.26,3.04,1.94.96.49,1.72.93,2.29,1.33.57.4,1.05.89,1.45,1.47.4.58.59,1.28.59,2.1,0,.86-.24,1.65-.72,2.36-.48.71-1.16,1.28-2.04,1.7-.89.42-1.92.63-3.11.63-1.66,0-3.05-.41-4.19-1.22-.12-.05-.19-.12-.23-.21-.04-.09-.06-.24-.09-.45l-.35-3.46c-.02-.09.03-.15.16-.17.13-.02.22.01.26.1.33,1.35.97,2.5,1.94,3.44.97.94,2.04,1.42,3.23,1.42.82,0,1.52-.24,2.11-.72.59-.48.89-1.22.89-2.22,0-1.07-.35-1.94-1.05-2.62-.7-.68-1.71-1.36-3.04-2.06-.93-.51-1.67-.96-2.22-1.35-.55-.38-1.01-.86-1.38-1.42-.37-.56-.56-1.23-.56-2.03,0-1.33.51-2.36,1.54-3.11,1.02-.75,2.27-1.12,3.74-1.12,1.19,0,2.35.27,3.5.8.21.12.34.21.4.28.06.07.1.17.12.31l.21,3.04c0,.09-.06.15-.19.17-.13.02-.21-.01-.23-.1-.12-.58-.38-1.18-.79-1.8-.41-.62-.93-1.14-1.56-1.56s-1.33-.63-2.1-.63c-.84,0-1.49.26-1.96.77-.47.51-.7,1.17-.7,1.96,0,1,.34,1.81,1.01,2.43Z"/>
          <path class="cls-1" d="M863.2,85.17c.66.41,1,1.12,1,2.15,0,.72-.17,1.36-.52,1.92s-.78,1.04-1.28,1.45c-.5.41-1.18.89-2.04,1.45-.86.58-1.55,1.08-2.06,1.5-.51.42-.94.91-1.29,1.49-.35.57-.52,1.22-.52,1.94,0,1.12.4,2.02,1.19,2.71.79.69,1.79,1.03,3,1.03s2.21-.3,3.15-.91c.93-.61,1.67-1.39,2.2-2.34.54-.96.8-1.95.8-2.97,0-1.44-.7-2.17-2.1-2.17-.07,0-.11-.07-.12-.21s.03-.21.12-.21l6.01-.04c.09,0,.14.07.14.21s-.05.21-.14.21c-.61,0-1.05.07-1.35.21-.29.14-.49.32-.59.54-.11.22-.25.61-.44,1.17-.58,1.91-1.58,3.63-3,5.16-1.42,1.53-3.41,2.29-5.98,2.29-1.65,0-2.9-.35-3.72-1.05-.83-.7-1.24-1.56-1.24-2.59s.33-1.82.98-2.53c.65-.71,1.63-1.53,2.94-2.46,1.33-.96,2.34-1.81,3.02-2.55.69-.75,1.03-1.64,1.03-2.69,0-.82-.22-1.46-.66-1.94-.44-.48-1.03-.72-1.75-.72-.61,0-1.08.2-1.42.59-.34.4-.51.98-.51,1.75,0,1.26.58,2.75,1.73,4.47,1.15,1.72,2.66,3.38,4.53,4.96,1.42,1.21,2.81,2.16,4.16,2.85,1.35.69,2.38,1.04,3.08,1.07.07,0,.1.07.1.21s-.03.21-.1.21h-3.6c-.51,0-1.25-.29-2.22-.86-.97-.57-2.06-1.4-3.27-2.5-1.12-.98-2.22-2.08-3.32-3.32-1.1-1.23-1.88-2.35-2.34-3.35-.42-.91-.63-1.75-.63-2.52,0-.84.22-1.58.66-2.22.44-.64,1.03-1.14,1.76-1.49.73-.35,1.51-.52,2.32-.52.86,0,1.62.2,2.29.61Z"/>
          <path class="cls-1" d="M891.84,101.44c-.19,0-.31-.05-.38-.14l-8.7-18.91c-.42-.93-.84-1.58-1.26-1.94-.42-.36-.99-.54-1.71-.54-.07,0-.1-.07-.1-.21s.04-.21.1-.21l1.33.03c.65.05,1.18.07,1.57.07.84,0,1.75-.02,2.73-.07l1.43-.03c.07,0,.11.07.11.21s-.04.21-.11.21c-.7,0-1.22.08-1.55.24-.34.16-.51.44-.51.84,0,.35.12.77.35,1.26l7.76,16.67-1.26,1.68,4.58-11.43.52.77-4.51,11.36c-.02.09-.15.14-.38.14ZM912.56,79.7c0,.14-.02.21-.07.21-.79,0-1.48.21-2.06.63-.58.42-1.08,1.13-1.5,2.13l-7.44,18.63c-.02.09-.15.14-.38.14-.19,0-.31-.05-.38-.14l-8.67-18.91c-.42-.91-.84-1.55-1.26-1.92-.42-.37-.97-.56-1.64-.56-.07,0-.1-.07-.1-.21s.04-.21.1-.21l1.33.03c.61.05,1.11.07,1.5.07.65,0,1.33-.02,2.03-.07l.94-.03c.07,0,.1.07.1.21s-.04.21-.1.21c-.42,0-.72.04-.91.12-.19.08-.28.23-.28.44,0,.28.21.87.63,1.78l7.79,16.67-1.26,1.68,7.23-18.07c.19-.49.28-.87.28-1.15,0-.51-.22-.89-.65-1.12-.43-.23-1.1-.35-2.01-.35-.07,0-.1-.07-.1-.21s.03-.21.1-.21l1.47.03c.79.05,1.5.07,2.13.07.47,0,1-.02,1.61-.07l1.5-.03s.07.07.07.21ZM899.46,80.93c0-.68-.5-1.01-1.5-1.01-.07,0-.11-.07-.11-.21s.04-.21.11-.21l.8.03c.47.05.96.07,1.47.07.47,0,1-.02,1.61-.07l1.43-.03s.07.07.07.21-.02.21-.07.21c-.79,0-1.46.2-2.01.61-.55.41-1.03,1.12-1.45,2.15l-2.9,7.27-.52-.77,2.66-6.71c.28-.63.42-1.14.42-1.54Z"/>
          <path class="cls-1" d="M928.15,101.13c0,.14-.05.21-.14.21-.42,0-1.1-.02-2.03-.07-.93-.05-1.61-.07-2.03-.07-.37,0-.86.02-1.47.07-.61.05-1.07.07-1.4.07-.09,0-.14-.07-.14-.21s.05-.21.14-.21c.63,0,1.09-.08,1.38-.23.29-.15.44-.41.44-.79,0-.33-.15-.83-.45-1.5l-5.31-11.46.91-.77-4.37,10.87c-.37.89-.56,1.62-.56,2.2s.21,1.04.63,1.29c.42.26,1.06.38,1.92.38.12,0,.17.07.17.21s-.06.21-.17.21c-.35,0-.83-.02-1.43-.07-.65-.05-1.26-.07-1.82-.07s-1.27.02-2.06.07c-.7.05-1.26.07-1.68.07-.12,0-.17-.07-.17-.21s.06-.21.17-.21c.72,0,1.29-.1,1.71-.3.42-.2.81-.59,1.17-1.17.36-.58.8-1.49,1.31-2.73l5.03-12.27c.05-.09.12-.14.21-.14s.15.05.17.14l5.63,12.09c.61,1.31,1.09,2.25,1.45,2.83.36.58.73.98,1.12,1.21.38.22.89.33,1.52.33.09,0,.14.07.14.21ZM915.18,92.67h6.36l.25.63h-7.17l.56-.63Z"/>
          <path class="cls-1" d="M930.04,85.8c-.51.24-.92.66-1.21,1.24-.29.58-.52,1.41-.68,2.48,0,.05-.06.07-.19.07s-.19-.02-.19-.07c.07-.54.15-1.4.24-2.59.09-1.19.14-2.1.14-2.73,0-.12.07-.17.21-.17s.21.06.21.17c0,.3.17.5.52.58.35.08.78.12,1.29.12,2.05.05,3.81.07,5.28.07l3.04-.04c.42-.02.97-.03,1.64-.03.84,0,1.46-.05,1.85-.16.4-.1.65-.33.77-.68.05-.07.13-.1.25-.1s.17.04.17.1c-.14,2.52-.21,4.33-.21,5.45,0,.05-.06.07-.19.07s-.19-.02-.19-.07c-.02-1.05-.15-1.86-.37-2.45s-.59-1-1.1-1.26-1.22-.38-2.13-.38c-1,0-1.67.16-2.01.47s-.51.95-.51,1.9v10.69c0,.72.07,1.25.21,1.57.14.33.41.55.82.66.41.12,1.07.17,1.97.17.07,0,.11.07.11.21s-.04.21-.11.21c-.72,0-1.28-.01-1.68-.04l-2.45-.03-2.34.03c-.42.02-1,.04-1.75.04-.05,0-.07-.07-.07-.21s.02-.21.07-.21c.89,0,1.54-.06,1.96-.17.42-.12.71-.34.86-.68s.23-.86.23-1.56v-10.76c0-.68-.05-1.17-.16-1.48-.11-.31-.32-.53-.65-.65-.33-.12-.85-.17-1.57-.17-.89,0-1.58.12-2.1.37Z"/>
          <path class="cls-1" d="M949.33,90.24c.68.62,1.69,1.26,3.04,1.94.96.49,1.72.93,2.29,1.33.57.4,1.05.89,1.45,1.47.4.58.59,1.28.59,2.1,0,.86-.24,1.65-.72,2.36-.48.71-1.16,1.28-2.04,1.7-.89.42-1.92.63-3.11.63-1.66,0-3.05-.41-4.19-1.22-.12-.05-.19-.12-.23-.21-.04-.09-.06-.24-.09-.45l-.35-3.46c-.02-.09.03-.15.16-.17.13-.02.22.01.26.1.33,1.35.97,2.5,1.94,3.44.97.94,2.04,1.42,3.23,1.42.82,0,1.52-.24,2.11-.72.59-.48.89-1.22.89-2.22,0-1.07-.35-1.94-1.05-2.62-.7-.68-1.71-1.36-3.04-2.06-.93-.51-1.67-.96-2.22-1.35-.55-.38-1.01-.86-1.38-1.42-.37-.56-.56-1.23-.56-2.03,0-1.33.51-2.36,1.54-3.11,1.02-.75,2.27-1.12,3.74-1.12,1.19,0,2.35.27,3.5.8.21.12.34.21.4.28.06.07.1.17.12.31l.21,3.04c0,.09-.06.15-.19.17-.13.02-.21-.01-.23-.1-.12-.58-.38-1.18-.79-1.8-.41-.62-.93-1.14-1.56-1.56s-1.33-.63-2.1-.63c-.84,0-1.49.26-1.96.77-.47.51-.7,1.17-.7,1.96,0,1,.34,1.81,1.01,2.43Z"/>
          <path class="cls-1" d="M963.19,100.6c-1.27-.77-2.25-1.81-2.95-3.11-.7-1.3-1.05-2.71-1.05-4.23,0-1.82.47-3.38,1.42-4.7.94-1.32,2.14-2.31,3.6-2.99,1.46-.68,2.94-1.01,4.46-1.01,1.63,0,3.07.4,4.32,1.21,1.25.8,2.2,1.85,2.87,3.13.66,1.28,1,2.62,1,4.02,0,1.56-.42,3.02-1.26,4.39-.84,1.36-1.97,2.45-3.39,3.25-1.42.8-2.97,1.21-4.65,1.21s-3.08-.38-4.35-1.15ZM972.8,99.1c1.08-1.28,1.62-3.05,1.62-5.31,0-1.56-.27-2.98-.82-4.26-.55-1.28-1.35-2.31-2.39-3.08-1.05-.77-2.29-1.15-3.74-1.15-1.86,0-3.31.62-4.33,1.87-1.03,1.25-1.54,2.99-1.54,5.23,0,1.61.27,3.06.82,4.37.55,1.31,1.34,2.34,2.38,3.11s2.25,1.15,3.65,1.15c1.82,0,3.27-.64,4.35-1.92Z"/>
          <path class="cls-1" d="M994.38,101.82c-.12.02-.2.01-.25-.04l-11.46-13.94c-.75-.89-1.39-1.51-1.94-1.89-.55-.37-1.08-.56-1.59-.56-.05,0-.07-.07-.07-.21s.02-.21.07-.21l1.96.04,1.85-.04c.16,0,.3.05.4.14.1.09.26.29.47.59.19.3.44.66.77,1.08l9.61,11.85.35,3.08s-.06.08-.17.1ZM981.52,85.75l.7.1v11.67c0,1.24.17,2.11.52,2.62.35.51.96.77,1.82.77.05,0,.07.07.07.21s-.02.21-.07.21c-.51,0-.91-.01-1.19-.04l-1.47-.03-1.5.03c-.3.02-.72.04-1.26.04-.05,0-.07-.07-.07-.21s.02-.21.07-.21c.86,0,1.47-.26,1.83-.77.36-.51.54-1.39.54-2.62v-11.78ZM994.55,101.72l-.7-1.08v-11.85c0-1.23-.17-2.11-.51-2.62-.34-.51-.94-.77-1.8-.77-.07,0-.1-.07-.1-.21s.04-.21.1-.21l1.19.04c.61.05,1.09.07,1.47.07s.88-.02,1.54-.07l1.22-.04c.07,0,.11.07.11.21s-.04.21-.11.21c-.86,0-1.48.26-1.85.77-.37.51-.56,1.39-.56,2.62v12.93Z"/>
          <path class="cls-1" d="M1030.76,101.13c0,.14-.05.21-.14.21-.44,0-1.13-.02-2.06-.07-.93-.05-1.61-.07-2.03-.07-.51,0-1.17.02-1.96.07-.75.05-1.32.07-1.71.07-.09,0-.14-.07-.14-.21s.05-.21.14-.21c.88,0,1.52-.08,1.9-.24.38-.16.58-.45.58-.87,0-.35-.14-.84-.42-1.47l-7.76-16.39.87-1.08-6.78,16.04c-.33.79-.49,1.44-.49,1.96,0,1.38,1.14,2.06,3.42,2.06.12,0,.17.07.17.21s-.06.21-.17.21c-.42,0-1.03-.02-1.82-.07-.89-.05-1.65-.07-2.31-.07-.61,0-1.3.02-2.1.07-.7.05-1.28.07-1.75.07-.12,0-.17-.07-.17-.21s.06-.21.17-.21c.65,0,1.21-.12,1.66-.37.45-.24.88-.68,1.29-1.29.41-.62.86-1.51,1.35-2.67l7.37-17.4c.05-.07.13-.1.24-.1s.19.04.21.1l8.25,17.37c.79,1.72,1.47,2.88,2.03,3.48.56.59,1.22.89,1.99.89.09,0,.14.07.14.21ZM1014.16,89.03h7.2l.24.73h-7.97l.52-.73Z"/>
          <path class="cls-1" d="M1038.1,101.37c-.28-.02-.63-.05-1.05-.07-.42-.02-.9-.03-1.43-.03l-2.06.03c-.4.02-.93.04-1.61.04-.05,0-.07-.07-.07-.21s.02-.21.07-.21c.79,0,1.37-.06,1.73-.17.36-.12.61-.34.73-.68.13-.34.19-.86.19-1.56v-10.69c0-.7-.06-1.21-.19-1.54-.13-.33-.37-.55-.73-.68s-.93-.19-1.7-.19c-.05,0-.07-.07-.07-.21s.02-.21.07-.21l1.57.04c.88.05,1.57.07,2.06.07.72,0,1.44-.04,2.17-.1.93-.05,1.63-.07,2.1-.07,1.96,0,3.65.35,5.07,1.05,1.42.7,2.5,1.67,3.25,2.9.75,1.24,1.12,2.63,1.12,4.19s-.38,3.05-1.15,4.33c-.77,1.28-1.83,2.28-3.2,3.01-1.36.72-2.92,1.08-4.67,1.08-.65,0-1.39-.03-2.2-.1ZM1044.98,99.03c1.21-1.3,1.82-3.17,1.82-5.59s-.6-4.25-1.8-5.77c-1.2-1.51-3-2.27-5.4-2.27-1.07,0-1.82.17-2.25.52-.43.35-.65,1-.65,1.96v10.24c0,1.05.21,1.79.65,2.22.43.43,1.28.65,2.53.65,2.19,0,3.89-.65,5.1-1.96Z"/>
          <path class="cls-1" d="M1068.64,85.19c0,.14-.02.21-.07.21-.68,0-1.25.19-1.73.58s-.9,1.04-1.28,1.97l-5.28,13.35c-.02.09-.15.14-.38.14s-.36-.05-.38-.14l-6.36-13.42c-.47-.98-.87-1.64-1.22-1.97-.35-.34-.83-.51-1.43-.51-.07,0-.1-.07-.1-.21s.04-.21.1-.21l1.33.04c.65.05,1.17.07,1.54.07.58,0,1.29-.02,2.13-.07l1.4-.04s.07.07.07.21-.02.21-.07.21c-1.21,0-1.82.36-1.82,1.08,0,.26.09.61.28,1.05l5.52,11.43-1.08,1.96,5.03-13.18c.16-.49.25-.84.25-1.05,0-.86-.78-1.29-2.34-1.29-.07,0-.1-.07-.1-.21s.03-.21.1-.21l1.26.04c.7.05,1.33.07,1.89.07.37,0,.84-.02,1.4-.07l1.29-.04s.07.07.07.21Z"/>
          <path class="cls-1" d="M1073.69,100.6c-1.27-.77-2.25-1.81-2.95-3.11-.7-1.3-1.05-2.71-1.05-4.23,0-1.82.47-3.38,1.42-4.7.94-1.32,2.14-2.31,3.6-2.99,1.46-.68,2.94-1.01,4.46-1.01,1.63,0,3.07.4,4.32,1.21,1.25.8,2.2,1.85,2.87,3.13.66,1.28,1,2.62,1,4.02,0,1.56-.42,3.02-1.26,4.39-.84,1.36-1.97,2.45-3.39,3.25-1.42.8-2.97,1.21-4.65,1.21s-3.08-.38-4.35-1.15ZM1083.3,99.1c1.08-1.28,1.62-3.05,1.62-5.31,0-1.56-.27-2.98-.82-4.26-.55-1.28-1.35-2.31-2.39-3.08-1.05-.77-2.29-1.15-3.74-1.15-1.86,0-3.31.62-4.33,1.87-1.03,1.25-1.54,2.99-1.54,5.23,0,1.61.27,3.06.82,4.37.55,1.31,1.34,2.34,2.38,3.11s2.25,1.15,3.65,1.15c1.82,0,3.27-.64,4.35-1.92Z"/>
          <path class="cls-1" d="M1094.1,100.58c-1.39-.78-2.44-1.81-3.16-3.09-.72-1.28-1.08-2.63-1.08-4.05,0-1.82.41-3.4,1.22-4.74.82-1.34,1.98-2.36,3.5-3.08,1.51-.71,3.3-1.07,5.35-1.07.98,0,1.91.09,2.8.28s1.63.45,2.24.8c.14.07.23.16.26.28s.06.28.09.49l.35,3.29c0,.07-.06.11-.19.12-.13.01-.2-.02-.23-.09-.51-1.61-1.28-2.78-2.31-3.53-1.03-.75-2.31-1.12-3.84-1.12-2.05,0-3.69.71-4.93,2.11-1.24,1.41-1.85,3.34-1.85,5.78,0,1.61.31,3.03.93,4.28.62,1.25,1.49,2.22,2.62,2.92,1.13.7,2.45,1.05,3.97,1.05,1.16,0,2.02-.1,2.57-.31.55-.21.92-.61,1.12-1.21s.3-1.52.3-2.78c0-.61-.06-1.03-.19-1.28-.13-.24-.4-.41-.8-.49-.41-.08-1.12-.12-2.15-.12-.14,0-.21-.09-.21-.28,0-.07.02-.13.05-.19.03-.06.08-.09.12-.09,1.21.09,2.43.14,3.67.14.56,0,1.49-.02,2.79-.07.05,0,.09.03.12.09.04.06.05.11.05.16,0,.16-.06.24-.17.24-.47-.02-.79.01-.98.1-.19.09-.3.29-.35.58-.05.29-.07.81-.07,1.56,0,1.05.02,1.78.07,2.2.05.42.07.71.07.87,0,.14-.02.23-.05.26-.03.03-.15.09-.33.16-1.54.65-3.69.98-6.46.98-1.86,0-3.49-.39-4.88-1.17Z"/>
          <path class="cls-1" d="M1127.63,101.13c0,.14-.05.21-.14.21-.42,0-1.1-.02-2.03-.07-.93-.05-1.61-.07-2.03-.07-.37,0-.86.02-1.47.07-.61.05-1.07.07-1.4.07-.09,0-.14-.07-.14-.21s.05-.21.14-.21c.63,0,1.09-.08,1.38-.23.29-.15.44-.41.44-.79,0-.33-.15-.83-.45-1.5l-5.31-11.46.91-.77-4.37,10.87c-.37.89-.56,1.62-.56,2.2s.21,1.04.63,1.29c.42.26,1.06.38,1.92.38.12,0,.17.07.17.21s-.06.21-.17.21c-.35,0-.83-.02-1.43-.07-.65-.05-1.26-.07-1.82-.07s-1.27.02-2.06.07c-.7.05-1.26.07-1.68.07-.12,0-.17-.07-.17-.21s.06-.21.17-.21c.72,0,1.29-.1,1.71-.3.42-.2.81-.59,1.17-1.17.36-.58.8-1.49,1.31-2.73l5.03-12.27c.05-.09.12-.14.21-.14s.15.05.17.14l5.63,12.09c.61,1.31,1.09,2.25,1.45,2.83.36.58.73.98,1.12,1.21.38.22.89.33,1.52.33.09,0,.14.07.14.21ZM1114.67,92.67h6.36l.25.63h-7.17l.56-.63Z"/>
          <path class="cls-1" d="M1134.97,101.37c-.28-.02-.63-.05-1.05-.07-.42-.02-.9-.03-1.43-.03l-2.06.03c-.4.02-.93.04-1.61.04-.05,0-.07-.07-.07-.21s.02-.21.07-.21c.79,0,1.37-.06,1.73-.17.36-.12.61-.34.73-.68.13-.34.19-.86.19-1.56v-10.69c0-.7-.06-1.21-.19-1.54-.13-.33-.37-.55-.73-.68s-.93-.19-1.7-.19c-.05,0-.07-.07-.07-.21s.02-.21.07-.21l1.57.04c.88.05,1.57.07,2.06.07.72,0,1.44-.04,2.17-.1.93-.05,1.63-.07,2.1-.07,1.96,0,3.65.35,5.07,1.05,1.42.7,2.5,1.67,3.25,2.9.75,1.24,1.12,2.63,1.12,4.19s-.38,3.05-1.15,4.33c-.77,1.28-1.83,2.28-3.2,3.01-1.36.72-2.92,1.08-4.67,1.08-.65,0-1.39-.03-2.2-.1ZM1141.86,99.03c1.21-1.3,1.82-3.17,1.82-5.59s-.6-4.25-1.8-5.77c-1.2-1.51-3-2.27-5.4-2.27-1.07,0-1.82.17-2.25.52-.43.35-.65,1-.65,1.96v10.24c0,1.05.21,1.79.65,2.22.43.43,1.28.65,2.53.65,2.19,0,3.89-.65,5.1-1.96Z"/>
          <path class="cls-1" d="M1152.71,100.6c-1.27-.77-2.25-1.81-2.95-3.11-.7-1.3-1.05-2.71-1.05-4.23,0-1.82.47-3.38,1.42-4.7.94-1.32,2.14-2.31,3.6-2.99,1.46-.68,2.94-1.01,4.46-1.01,1.63,0,3.07.4,4.32,1.21,1.25.8,2.2,1.85,2.87,3.13.66,1.28,1,2.62,1,4.02,0,1.56-.42,3.02-1.26,4.39-.84,1.36-1.97,2.45-3.39,3.25-1.42.8-2.97,1.21-4.65,1.21s-3.08-.38-4.35-1.15ZM1162.32,99.1c1.08-1.28,1.62-3.05,1.62-5.31,0-1.56-.27-2.98-.82-4.26-.55-1.28-1.35-2.31-2.39-3.08-1.05-.77-2.29-1.15-3.74-1.15-1.86,0-3.31.62-4.33,1.87-1.03,1.25-1.54,2.99-1.54,5.23,0,1.61.27,3.06.82,4.37.55,1.31,1.34,2.34,2.38,3.11s2.25,1.15,3.65,1.15c1.82,0,3.27-.64,4.35-1.92Z"/>
          <path class="cls-1" d="M1172.72,90.24c.68.62,1.69,1.26,3.04,1.94.96.49,1.72.93,2.29,1.33.57.4,1.05.89,1.45,1.47.4.58.59,1.28.59,2.1,0,.86-.24,1.65-.72,2.36-.48.71-1.16,1.28-2.04,1.7-.89.42-1.92.63-3.11.63-1.66,0-3.05-.41-4.19-1.22-.12-.05-.19-.12-.23-.21-.04-.09-.06-.24-.09-.45l-.35-3.46c-.02-.09.03-.15.16-.17.13-.02.22.01.26.1.33,1.35.97,2.5,1.94,3.44.97.94,2.04,1.42,3.23,1.42.82,0,1.52-.24,2.11-.72.59-.48.89-1.22.89-2.22,0-1.07-.35-1.94-1.05-2.62-.7-.68-1.71-1.36-3.04-2.06-.93-.51-1.67-.96-2.22-1.35-.55-.38-1.01-.86-1.38-1.42-.37-.56-.56-1.23-.56-2.03,0-1.33.51-2.36,1.54-3.11,1.02-.75,2.27-1.12,3.74-1.12,1.19,0,2.35.27,3.5.8.21.12.34.21.4.28.06.07.1.17.12.31l.21,3.04c0,.09-.06.15-.19.17-.13.02-.21-.01-.23-.1-.12-.58-.38-1.18-.79-1.8-.41-.62-.93-1.14-1.56-1.56s-1.33-.63-2.1-.63c-.84,0-1.49.26-1.96.77-.47.51-.7,1.17-.7,1.96,0,1,.34,1.81,1.01,2.43Z"/>
        </g>
        <g>
          <path class="cls-1" d="M679,34.69c0-4.93.53-8.59,1.6-10.97,1.07-2.38,3.12-4.07,6.17-5.06,3.04-.99,7.77-1.48,14.18-1.48.33,0,.49-.49.49-1.48s-.17-1.48-.49-1.48l-11.59.25c-6.91.33-12.58.49-17.02.49-3.95,0-9.37-.16-16.28-.49l-12.08-.25c-.33,0-.49.49-.49,1.48s.16,1.48.49,1.48c6.41,0,11.14.45,14.18,1.36,3.04.91,5.09,2.51,6.17,4.81,1.07,2.3,1.6,5.92,1.6,10.85v31.4h13.07v-30.9Z"/>
          <path class="cls-1" d="M879.99,34.69c0-5.43.62-9.21,1.85-11.34,1.23-2.14,3.58-3.49,7.03-4.07,3.45-.57,9.45-.86,18-.86,7.73,0,13.73,1.07,18,3.21,4.27,2.14,7.31,5.59,9.12,10.36,1.81,4.77,2.71,11.51,2.71,20.22,0,.33.49.49,1.48.49s1.48-.16,1.48-.49c0-5.92.25-13.6.74-23.06.49-9.45.99-16.48,1.48-21.09,0-.66-.41-.99-1.23-.99s-1.32.33-1.48.99c-.83,2.47-2.63,4.11-5.43,4.93-2.8.82-7.15,1.23-13.07,1.23l-16.77.25c-10.85.33-21.13.49-30.83.49-18.91,0-35.43-.25-49.57-.74-8.72,0-13.07-1.81-13.07-5.43,0-.82-.49-1.23-1.48-1.23s-1.48.41-1.48,1.23c0,4.93-.41,12.29-1.23,22.07-.83,9.78-1.56,16.89-2.22,21.33,0,.33.49.49,1.48.49s1.48-.16,1.48-.49c1.64-12.66,4.85-21.46,9.62-26.39,4.77-4.93,12.33-7.4,22.69-7.4,8.88,0,15,.25,18.37.74,3.37.49,5.71,1.77,7.03,3.82,1.31,2.06,1.97,5.8,1.97,11.22v31.4h13.32v-30.9Z"/>
          <path class="cls-1" d="M1093.32,34.2c2.63-6.57,5.83-11.06,9.62-13.44,3.78-2.38,8.47-3.58,14.06-3.58.33,0,.49-.49.49-1.48s-.17-1.48-.49-1.48l-10.61.25c-4.28.33-8.06.49-11.34.49-2.96,0-6.08-.16-9.37-.49l-6.91-.25c-.33,0-.49.49-.49,1.48s.16,1.48.49,1.48c4.11,0,7.11.54,9,1.6,1.89,1.07,2.84,2.84,2.84,5.3,0,2.3-.74,5.18-2.22,8.63l-13.31,32.88h5.48l12.76-31.4Z"/>
          <path class="cls-1" d="M985.3,32.23c-1.32-3.12-1.97-5.51-1.97-7.15,0-2.96,1.31-5.01,3.95-6.17,2.63-1.15,6.49-1.73,11.59-1.73.49,0,.74-.49.74-1.48s-.25-1.48-.74-1.48l-10.6.25c-6.58.33-12.25.49-17.02.49-2.3,0-5.76-.16-10.36-.49l-10.6-.25c-.49,0-.74.49-.74,1.48s.25,1.48.74,1.48c5.09,0,9.25,1.32,12.45,3.95,3.21,2.63,6.2,7.15,9,13.56l14.11,30.9h14.93l-15.47-33.37Z"/>
          <path class="cls-1" d="M1051.64,32.23c-2.63-6.08-3.95-9.86-3.95-11.34s.66-2.47,1.97-2.96c1.31-.49,3.62-.74,6.91-.74.49,0,.74-.49.74-1.48s-.25-1.48-.74-1.48l-6.91.25c-4.6.33-8.63.49-12.08.49-2.3,0-5.76-.16-10.36-.49l-10.6-.25c-.49,0-.74.49-.74,1.48s.25,1.48.74,1.48c5.09,0,9.25,1.32,12.45,3.95,3.21,2.63,6.2,7.15,9,13.56l14.11,30.9h14.93l-15.47-33.37Z"/>
          <path class="cls-1" d="M738.93,34.2c6.25-6.25,12.95-10.64,20.1-13.19,7.15-2.55,14.1-3.82,20.84-3.82.49,0,.74-.49.74-1.48s-.25-1.48-.74-1.48l-8.63.25c-5.59.33-10.94.49-16.03.49-5.43,0-11.26-.16-17.51-.49l-10.36-.25c-.33,0-.49.49-.49,1.48s.16,1.48.49,1.48c5.09,0,8.75.29,10.97.86,2.22.58,3.33,1.6,3.33,3.08,0,2.14-2.8,6-8.39,11.59l-33.01,32.88h6.4l32.28-31.4Z"/>
          <path class="cls-1" d="M866.67,148.39c0,4.93-.62,8.59-1.85,10.97-1.23,2.39-3.58,3.99-7.03,4.81-3.45.82-8.88,1.23-16.28,1.23-.33,0-.49.49-.49,1.48s.16,1.48.49,1.48c5.75,0,10.27-.08,13.56-.25l18-.25,18.99.25c3.12.17,7.4.25,12.82.25.33,0,.49-.49.49-1.48s-.17-1.48-.49-1.48c-7.4,0-12.82-.41-16.28-1.23-3.45-.82-5.76-2.38-6.91-4.69-1.15-2.3-1.73-6-1.73-11.1v-31.59h-13.32v31.59Z"/>
          <path class="cls-1" d="M726.84,132.6c6.91,8.72,12.78,16.52,17.63,23.43,4.85,6.91,7.85,10.69,9,11.34,1.15.66,4.6.99,10.36.99h27.62c.49,0,.74-.49.74-1.48s-.25-1.48-.74-1.48c-6.91,0-12.08-.53-15.54-1.6-3.45-1.07-8.47-4.81-15.04-11.22-6.58-6.41-16.12-17.43-28.61-33.05l-2.17-2.73h-15.96l12.71,15.8Z"/>
          <path class="cls-1" d="M1182.35,14.22l-10.36.25c-4.28.33-8.14.49-11.59.49-4.28,0-9.21-.16-14.8-.49l-9.86-.25c-.49,0-.74.49-.74,1.48s.25,1.48.74,1.48c7.07,0,12.12.66,15.17,1.97,3.04,1.32,4.56,3.45,4.56,6.41,0,2.3-.58,4.69-1.73,7.15l-13.35,32.88h5.56l12.72-31.4c2.79-6.57,6.04-11.06,9.74-13.44,3.7-2.38,8.34-3.58,13.93-3.58.49,0,.74-.49.74-1.48s-.25-1.48-.74-1.48Z"/>
          <path class="cls-1" d="M1106.18,149.86l-15.33-33.06h-15.3l23.43,51.32c.49.66,1.4.99,2.71.99,1.64,0,2.55-.33,2.71-.99l20.79-51.32h-5.6l-13.42,33.06Z"/>
          <path class="cls-1" d="M1039.85,149.87l-15.34-33.07h-15.3l23.43,51.32c.49.66,1.4.99,2.71.99,1.64,0,2.55-.33,2.71-.99l20.75-51.32h-5.52l-13.45,33.07Z"/>
          <path class="cls-1" d="M665.93,148.39c0,4.93-.58,8.59-1.73,10.97-1.15,2.39-3.25,3.99-6.29,4.81-3.04.82-7.77,1.23-14.18,1.23-.33,0-.49.49-.49,1.48s.16,1.48.49,1.48c5.26,0,9.37-.08,12.33-.25l16.28-.25,16.77.25c2.96.17,6.91.25,11.84.25.33,0,.49-.49.49-1.48s-.17-1.48-.49-1.48c-6.58,0-11.34-.41-14.3-1.23-2.96-.82-4.97-2.38-6.04-4.69-1.07-2.3-1.6-6-1.6-11.1v-31.59h-13.07v31.59Z"/>
        </g>
      </g>
      <g>
        <path class="cls-1" d="M2.87,75.78c-.14-.33-.41-.55-.82-.68-.41-.13-1.05-.19-1.94-.19-.05,0-.07-.07-.07-.21s.02-.21.07-.21l1.75.03c.98.05,1.76.07,2.34.07.68,0,1.5-.02,2.48-.07l1.64-.03c.07,0,.11.07.11.21s-.04.21-.11.21c-.86,0-1.5.07-1.9.21-.41.14-.69.38-.84.72-.15.34-.23.86-.23,1.56v16.11c0,.72.07,1.25.21,1.57.14.33.41.55.82.66.41.12,1.05.17,1.94.17.07,0,.11.07.11.21s-.04.21-.11.21c-.7,0-1.26-.01-1.68-.04l-2.45-.03-2.38.03c-.42.02-1,.04-1.75.04-.05,0-.07-.07-.07-.21s.02-.21.07-.21c.88,0,1.53-.06,1.94-.17.41-.12.69-.34.84-.68.15-.34.23-.86.23-1.56v-16.18c0-.7-.07-1.21-.21-1.54ZM13.98,75.61c0-.47-.69-.7-2.06-.7-.05,0-.07-.07-.07-.21s.02-.21.07-.21l1.5.03c.93.05,1.78.07,2.55.07s1.57-.02,2.41-.07l1.29-.03c.07,0,.11.07.11.21s-.04.21-.11.21c-.96,0-1.97.21-3.04.63-1.07.42-2.07,1.08-3.01,1.99l-8.95,8.77h-.87l9.02-8.98c.77-.77,1.15-1.34,1.15-1.71ZM6.29,84.28l1.75-1.4,5.1,6.5c1.7,2.21,3,3.77,3.9,4.68s1.59,1.44,2.08,1.61c.49.16,1.2.24,2.13.24.07,0,.1.07.1.21s-.04.21-.1.21h-3.92c-.19,0-.52,0-1,.02-.48.01-1.15-.58-2.01-1.78-.86-1.2-1.69-2.3-2.48-3.3l-5.56-6.99Z"/>
        <path class="cls-1" d="M22.72,96.12c0-.14.02-.21.07-.21.77,0,1.33-.06,1.68-.17.35-.12.59-.34.72-.68s.19-.86.19-1.56v-10.69c0-.7-.06-1.21-.19-1.54-.13-.33-.37-.55-.72-.68s-.91-.19-1.68-.19c-.05,0-.07-.07-.07-.21s.02-.21.07-.21h12.16c.23,0,.35.09.35.28l.04,2.17c.02.44.04,1,.04,1.68,0,.07-.07.1-.21.1s-.21-.04-.21-.1c-.09-1.07-.48-1.95-1.17-2.64-.69-.69-1.53-1.03-2.53-1.03h-.98c-.82,0-1.41.06-1.78.19-.37.13-.63.36-.77.68-.14.33-.21.84-.21,1.54v10.52c0,.68.07,1.18.21,1.52.14.34.4.57.79.7.38.13.97.19,1.76.19h1.68c.96,0,1.8-.38,2.53-1.14.73-.76,1.23-1.74,1.49-2.95,0-.07.06-.1.19-.1s.19.03.19.1c-.16,1.68-.24,3.05-.24,4.12,0,.19-.04.32-.11.4-.07.08-.21.12-.42.12h-12.79s-.07-.07-.07-.21ZM32.03,88.59c-.92-.15-2.72-.23-5.4-.23v-.73c2.66,0,4.44-.06,5.37-.17.92-.12,1.44-.17,1.55-.17s.17.24.17.73c0,.54-.06.8-.17.8-.09,0-.6-.08-1.52-.23Z"/>
        <path class="cls-1" d="M43.91,94.87c.13.33.37.56.73.7.36.14.9.21,1.62.21h2.34c1.21,0,2.18-.38,2.92-1.15.73-.77,1.23-1.83,1.49-3.18,0-.05.05-.07.14-.07.07,0,.13.01.19.04.06.02.09.06.09.1-.16,1.07-.25,2.5-.25,4.3,0,.19-.04.32-.12.4s-.22.12-.4.12h-13.66s-.07-.07-.07-.21.02-.21.07-.21c.77,0,1.33-.06,1.68-.17.35-.12.58-.34.7-.68.12-.34.17-.86.17-1.56v-10.69c0-.7-.06-1.21-.19-1.54-.13-.33-.37-.55-.72-.68-.35-.13-.9-.19-1.64-.19-.05,0-.07-.07-.07-.21s.02-.21.07-.21l1.57.04c.88.05,1.57.07,2.06.07.58,0,1.32-.02,2.2-.07l1.47-.04c.07,0,.1.07.1.21s-.03.21-.1.21c-.77,0-1.33.06-1.68.19s-.59.36-.72.7c-.13.34-.19.86-.19,1.56v10.52c0,.68.06,1.18.19,1.5Z"/>
        <path class="cls-1" d="M60.09,94.87c.13.33.37.56.73.7.36.14.9.21,1.62.21h2.34c1.21,0,2.18-.38,2.92-1.15.73-.77,1.23-1.83,1.49-3.18,0-.05.05-.07.14-.07.07,0,.13.01.19.04.06.02.09.06.09.1-.16,1.07-.25,2.5-.25,4.3,0,.19-.04.32-.12.4s-.22.12-.4.12h-13.66s-.07-.07-.07-.21.02-.21.07-.21c.77,0,1.33-.06,1.68-.17.35-.12.58-.34.7-.68.12-.34.17-.86.17-1.56v-10.69c0-.7-.06-1.21-.19-1.54-.13-.33-.37-.55-.72-.68-.35-.13-.9-.19-1.64-.19-.05,0-.07-.07-.07-.21s.02-.21.07-.21l1.57.04c.88.05,1.57.07,2.06.07.58,0,1.32-.02,2.2-.07l1.47-.04c.07,0,.1.07.1.21s-.03.21-.1.21c-.77,0-1.33.06-1.68.19s-.59.36-.72.7c-.13.34-.19.86-.19,1.56v10.52c0,.68.06,1.18.19,1.5Z"/>
        <path class="cls-1" d="M71.29,96.12c0-.14.02-.21.07-.21.77,0,1.33-.06,1.68-.17.35-.12.59-.34.72-.68s.19-.86.19-1.56v-10.69c0-.7-.06-1.21-.19-1.54-.13-.33-.37-.55-.72-.68s-.91-.19-1.68-.19c-.05,0-.07-.07-.07-.21s.02-.21.07-.21h12.16c.23,0,.35.09.35.28l.04,2.17c.02.44.04,1,.04,1.68,0,.07-.07.1-.21.1s-.21-.04-.21-.1c-.09-1.07-.48-1.95-1.17-2.64-.69-.69-1.53-1.03-2.53-1.03h-.98c-.82,0-1.41.06-1.78.19-.37.13-.63.36-.77.68-.14.33-.21.84-.21,1.54v10.52c0,.68.07,1.18.21,1.52.14.34.4.57.79.7.38.13.97.19,1.76.19h1.68c.96,0,1.8-.38,2.53-1.14.73-.76,1.23-1.74,1.49-2.95,0-.07.06-.1.19-.1s.19.03.19.1c-.16,1.68-.24,3.05-.24,4.12,0,.19-.04.32-.11.4-.07.08-.21.12-.42.12h-12.79s-.07-.07-.07-.21ZM80.61,88.59c-.92-.15-2.72-.23-5.4-.23v-.73c2.66,0,4.44-.06,5.37-.17.92-.12,1.44-.17,1.55-.17s.17.24.17.73c0,.54-.06.8-.17.8-.09,0-.6-.08-1.52-.23Z"/>
        <path class="cls-1" d="M95.02,96.12c0,.14-.02.21-.07.21-.65,0-1.15-.01-1.5-.04l-2.2-.03-2.06.03c-.4.02-.93.04-1.61.04-.05,0-.07-.07-.07-.21s.02-.21.07-.21c.77,0,1.33-.06,1.69-.17.36-.12.61-.34.75-.68s.21-.86.21-1.56v-10.69c0-.7-.06-1.21-.19-1.54-.13-.33-.37-.55-.73-.68s-.93-.19-1.7-.19c-.05,0-.07-.07-.07-.21s.02-.21.07-.21l1.61.04c.84.05,1.51.07,2.03.07.42,0,.81-.01,1.17-.04.36-.02.67-.05.93-.07.75-.07,1.43-.1,2.06-.1,1.51,0,2.67.29,3.46.87.79.58,1.19,1.42,1.19,2.52,0,.96-.28,1.84-.84,2.66-.56.82-1.33,1.46-2.31,1.94-.98.48-2.05.72-3.22.72-.75,0-1.39-.05-1.92-.14l-.04-.7c.58.16,1.32.24,2.2.24,1.44,0,2.45-.32,3.02-.96.57-.64.86-1.58.86-2.81,0-2.56-1.11-3.84-3.32-3.84-.89,0-1.46.19-1.73.56-.27.37-.4,1.03-.4,1.96v10.62c0,.72.06,1.25.17,1.57.12.33.35.55.7.66.35.12.92.17,1.71.17.05,0,.07.07.07.21ZM105.4,96.12c0,.14-.02.21-.07.21h-4.09c-.42,0-1.18-.72-2.27-2.17-1.09-1.44-2.4-3.42-3.91-5.94l1.85-.73c1.35,2.21,2.48,3.91,3.39,5.1.91,1.19,1.75,2.04,2.53,2.55.78.51,1.61.77,2.5.77.05,0,.07.07.07.21Z"/>
        <path class="cls-1" d="M110.19,94.64c.4.52.59,1.29.59,2.29s-.22,2.03-.66,2.95c-.44.92-1.1,1.85-1.96,2.78-.02.02-.06.04-.11.04-.07,0-.13-.04-.17-.1s-.05-.13,0-.17c.51-.72.86-1.41,1.05-2.06.19-.65.28-1.39.28-2.2,0-.63-.09-1.14-.26-1.52-.17-.38-.41-.72-.72-1l1.33-.25c.02.4-.08.7-.31.91-.23.21-.54.31-.91.31-.44,0-.79-.12-1.03-.37-.25-.24-.37-.58-.37-1,0-.93.54-1.4,1.61-1.4.7,0,1.25.26,1.64.79Z"/>
        <path class="cls-1" d="M124.22,76.24c-.73.75-1.26,2.02-1.59,3.81,0,.05-.06.07-.19.07s-.19-.02-.19-.07c.09-.84.2-1.93.31-3.29.12-1.35.17-2.36.17-3.04,0-.12.06-.17.19-.17s.19.06.19.17c0,.51.63.77,1.89.77,2,.07,4.34.1,7.02.1,1.38,0,2.83-.02,4.37-.07l2.38-.03c.84,0,1.46-.06,1.87-.17.41-.12.67-.35.79-.7.02-.09.09-.14.21-.14s.17.05.17.14c-.07.68-.14,1.7-.21,3.08-.07,1.38-.1,2.49-.1,3.35,0,.05-.07.07-.21.07s-.21-.02-.21-.07c-.07-1.82-.44-3.09-1.12-3.83s-1.79-1.1-3.35-1.1c-1.05,0-1.79.05-2.24.14-.44.09-.75.29-.91.59-.16.3-.25.82-.25,1.54v16.11c0,.72.08,1.25.25,1.57.16.33.48.55.94.66.47.12,1.2.17,2.2.17.07,0,.1.07.1.21s-.04.21-.1.21c-.77,0-1.39-.01-1.85-.04l-2.73-.03-2.62.03c-.47.02-1.11.04-1.92.04-.05,0-.07-.07-.07-.21s.02-.21.07-.21c1,0,1.74-.06,2.2-.17.47-.12.79-.34.96-.68s.26-.86.26-1.56v-16.18c0-.72-.08-1.23-.24-1.52-.16-.29-.47-.48-.91-.56s-1.2-.12-2.27-.12c-1.45,0-2.53.37-3.27,1.12Z"/>
        <path class="cls-1" d="M143.01,96.12c0-.14.02-.21.07-.21.77,0,1.33-.06,1.68-.17.35-.12.59-.34.72-.68s.19-.86.19-1.56v-10.69c0-.7-.06-1.21-.19-1.54-.13-.33-.37-.55-.72-.68s-.91-.19-1.68-.19c-.05,0-.07-.07-.07-.21s.02-.21.07-.21h12.16c.23,0,.35.09.35.28l.04,2.17c.02.44.04,1,.04,1.68,0,.07-.07.1-.21.1s-.21-.04-.21-.1c-.09-1.07-.48-1.95-1.17-2.64-.69-.69-1.53-1.03-2.53-1.03h-.98c-.82,0-1.41.06-1.78.19-.37.13-.63.36-.77.68-.14.33-.21.84-.21,1.54v10.52c0,.68.07,1.18.21,1.52.14.34.4.57.79.7.38.13.97.19,1.76.19h1.68c.96,0,1.8-.38,2.53-1.14.73-.76,1.23-1.74,1.49-2.95,0-.07.06-.1.19-.1s.19.03.19.1c-.16,1.68-.24,3.05-.24,4.12,0,.19-.04.32-.11.4-.07.08-.21.12-.42.12h-12.79s-.07-.07-.07-.21ZM152.32,88.59c-.92-.15-2.72-.23-5.4-.23v-.73c2.66,0,4.44-.06,5.37-.17.92-.12,1.44-.17,1.55-.17s.17.24.17.73c0,.54-.06.8-.17.8-.09,0-.6-.08-1.52-.23Z"/>
        <path class="cls-1" d="M164.2,94.87c.13.33.37.56.73.7.36.14.9.21,1.62.21h2.34c1.21,0,2.18-.38,2.92-1.15.73-.77,1.23-1.83,1.49-3.18,0-.05.05-.07.14-.07.07,0,.13.01.19.04.06.02.09.06.09.1-.16,1.07-.25,2.5-.25,4.3,0,.19-.04.32-.12.4s-.22.12-.4.12h-13.66s-.07-.07-.07-.21.02-.21.07-.21c.77,0,1.33-.06,1.68-.17.35-.12.58-.34.7-.68.12-.34.17-.86.17-1.56v-10.69c0-.7-.06-1.21-.19-1.54-.13-.33-.37-.55-.72-.68-.35-.13-.9-.19-1.64-.19-.05,0-.07-.07-.07-.21s.02-.21.07-.21l1.57.04c.88.05,1.57.07,2.06.07.58,0,1.32-.02,2.2-.07l1.47-.04c.07,0,.1.07.1.21s-.03.21-.1.21c-.77,0-1.33.06-1.68.19s-.59.36-.72.7c-.13.34-.19.86-.19,1.56v10.52c0,.68.06,1.18.19,1.5Z"/>
        <path class="cls-1" d="M180.38,94.87c.13.33.37.56.73.7.36.14.9.21,1.62.21h2.34c1.21,0,2.18-.38,2.92-1.15.73-.77,1.23-1.83,1.49-3.18,0-.05.05-.07.14-.07.07,0,.13.01.19.04.06.02.09.06.09.1-.16,1.07-.25,2.5-.25,4.3,0,.19-.04.32-.12.4s-.22.12-.4.12h-13.66s-.07-.07-.07-.21.02-.21.07-.21c.77,0,1.33-.06,1.68-.17.35-.12.58-.34.7-.68.12-.34.17-.86.17-1.56v-10.69c0-.7-.06-1.21-.19-1.54-.13-.33-.37-.55-.72-.68-.35-.13-.9-.19-1.64-.19-.05,0-.07-.07-.07-.21s.02-.21.07-.21l1.57.04c.88.05,1.57.07,2.06.07.58,0,1.32-.02,2.2-.07l1.47-.04c.07,0,.1.07.1.21s-.03.21-.1.21c-.77,0-1.33.06-1.68.19s-.59.36-.72.7c-.13.34-.19.86-.19,1.56v10.52c0,.68.06,1.18.19,1.5Z"/>
        <path class="cls-1" d="M191.58,96.12c0-.14.02-.21.07-.21.77,0,1.33-.06,1.68-.17.35-.12.59-.34.72-.68s.19-.86.19-1.56v-10.69c0-.7-.06-1.21-.19-1.54-.13-.33-.37-.55-.72-.68s-.91-.19-1.68-.19c-.05,0-.07-.07-.07-.21s.02-.21.07-.21h12.16c.23,0,.35.09.35.28l.04,2.17c.02.44.04,1,.04,1.68,0,.07-.07.1-.21.1s-.21-.04-.21-.1c-.09-1.07-.48-1.95-1.17-2.64-.69-.69-1.53-1.03-2.53-1.03h-.98c-.82,0-1.41.06-1.78.19-.37.13-.63.36-.77.68-.14.33-.21.84-.21,1.54v10.52c0,.68.07,1.18.21,1.52.14.34.4.57.79.7.38.13.97.19,1.76.19h1.68c.96,0,1.8-.38,2.53-1.14.73-.76,1.23-1.74,1.49-2.95,0-.07.06-.1.19-.1s.19.03.19.1c-.16,1.68-.24,3.05-.24,4.12,0,.19-.04.32-.11.4-.07.08-.21.12-.42.12h-12.79s-.07-.07-.07-.21ZM200.9,88.59c-.92-.15-2.72-.23-5.4-.23v-.73c2.66,0,4.44-.06,5.37-.17.92-.12,1.44-.17,1.55-.17s.17.24.17.73c0,.54-.06.8-.17.8-.09,0-.6-.08-1.52-.23Z"/>
        <path class="cls-1" d="M211.75,85.24c.68.62,1.69,1.26,3.04,1.94.96.49,1.72.93,2.29,1.33.57.4,1.05.89,1.45,1.47.4.58.59,1.28.59,2.1,0,.86-.24,1.65-.72,2.36-.48.71-1.16,1.28-2.04,1.7-.89.42-1.92.63-3.11.63-1.66,0-3.05-.41-4.19-1.22-.12-.05-.19-.12-.23-.21-.04-.09-.06-.24-.09-.45l-.35-3.46c-.02-.09.03-.15.16-.17.13-.02.22.01.26.1.33,1.35.97,2.5,1.94,3.44.97.94,2.04,1.42,3.23,1.42.82,0,1.52-.24,2.11-.72.59-.48.89-1.22.89-2.22,0-1.07-.35-1.94-1.05-2.62-.7-.68-1.71-1.36-3.04-2.06-.93-.51-1.67-.96-2.22-1.35-.55-.38-1.01-.86-1.38-1.42-.37-.56-.56-1.23-.56-2.03,0-1.33.51-2.36,1.54-3.11,1.02-.75,2.27-1.12,3.74-1.12,1.19,0,2.35.27,3.5.8.21.12.34.21.4.28.06.07.1.17.12.31l.21,3.04c0,.09-.06.15-.19.17-.13.02-.21-.01-.23-.1-.12-.58-.38-1.18-.79-1.8-.41-.62-.93-1.14-1.56-1.56s-1.33-.63-2.1-.63c-.84,0-1.49.26-1.96.77-.47.51-.7,1.17-.7,1.96,0,1,.34,1.81,1.01,2.43Z"/>
        <path class="cls-1" d="M238.75,80.17c.66.41,1,1.12,1,2.15,0,.72-.17,1.36-.52,1.92s-.78,1.04-1.28,1.45c-.5.41-1.18.89-2.04,1.45-.86.58-1.55,1.08-2.06,1.5-.51.42-.94.91-1.29,1.49-.35.57-.52,1.22-.52,1.94,0,1.12.4,2.02,1.19,2.71.79.69,1.79,1.03,3,1.03s2.21-.3,3.15-.91c.93-.61,1.67-1.39,2.2-2.34.54-.96.8-1.95.8-2.97,0-1.44-.7-2.17-2.1-2.17-.07,0-.11-.07-.12-.21s.03-.21.12-.21l6.01-.04c.09,0,.14.07.14.21s-.05.21-.14.21c-.61,0-1.05.07-1.35.21-.29.14-.49.32-.59.54-.11.22-.25.61-.44,1.17-.58,1.91-1.58,3.63-3,5.16-1.42,1.53-3.41,2.29-5.98,2.29-1.65,0-2.9-.35-3.72-1.05-.83-.7-1.24-1.56-1.24-2.59s.33-1.82.98-2.53c.65-.71,1.63-1.53,2.94-2.46,1.33-.96,2.34-1.81,3.02-2.55.69-.75,1.03-1.64,1.03-2.69,0-.82-.22-1.46-.66-1.94-.44-.48-1.03-.72-1.75-.72-.61,0-1.08.2-1.42.59-.34.4-.51.98-.51,1.75,0,1.26.58,2.75,1.73,4.47,1.15,1.72,2.66,3.38,4.53,4.96,1.42,1.21,2.81,2.16,4.16,2.85,1.35.69,2.38,1.04,3.08,1.07.07,0,.1.07.1.21s-.03.21-.1.21h-3.6c-.51,0-1.25-.29-2.22-.86-.97-.57-2.06-1.4-3.27-2.5-1.12-.98-2.22-2.08-3.32-3.32-1.1-1.23-1.88-2.35-2.34-3.35-.42-.91-.63-1.75-.63-2.52,0-.84.22-1.58.66-2.22.44-.64,1.03-1.14,1.76-1.49.73-.35,1.51-.52,2.32-.52.86,0,1.62.2,2.29.61Z"/>
        <path class="cls-1" d="M267.39,96.44c-.19,0-.31-.05-.38-.14l-8.7-18.91c-.42-.93-.84-1.58-1.26-1.94-.42-.36-.99-.54-1.71-.54-.07,0-.1-.07-.1-.21s.04-.21.1-.21l1.33.03c.65.05,1.18.07,1.57.07.84,0,1.75-.02,2.73-.07l1.43-.03c.07,0,.11.07.11.21s-.04.21-.11.21c-.7,0-1.22.08-1.55.24-.34.16-.51.44-.51.84,0,.35.12.77.35,1.26l7.76,16.67-1.26,1.68,4.58-11.43.52.77-4.51,11.36c-.02.09-.15.14-.38.14ZM288.11,74.7c0,.14-.02.21-.07.21-.79,0-1.48.21-2.06.63-.58.42-1.08,1.13-1.5,2.13l-7.44,18.63c-.02.09-.15.14-.38.14-.19,0-.31-.05-.38-.14l-8.67-18.91c-.42-.91-.84-1.55-1.26-1.92-.42-.37-.97-.56-1.64-.56-.07,0-.1-.07-.1-.21s.04-.21.1-.21l1.33.03c.61.05,1.11.07,1.5.07.65,0,1.33-.02,2.03-.07l.94-.03c.07,0,.1.07.1.21s-.04.21-.1.21c-.42,0-.72.04-.91.12-.19.08-.28.23-.28.44,0,.28.21.87.63,1.78l7.79,16.67-1.26,1.68,7.23-18.07c.19-.49.28-.87.28-1.15,0-.51-.22-.89-.65-1.12-.43-.23-1.1-.35-2.01-.35-.07,0-.1-.07-.1-.21s.03-.21.1-.21l1.47.03c.79.05,1.5.07,2.13.07.47,0,1-.02,1.61-.07l1.5-.03s.07.07.07.21ZM275.01,75.92c0-.68-.5-1.01-1.5-1.01-.07,0-.11-.07-.11-.21s.04-.21.11-.21l.8.03c.47.05.96.07,1.47.07.47,0,1-.02,1.61-.07l1.43-.03s.07.07.07.21-.02.21-.07.21c-.79,0-1.46.2-2.01.61-.55.41-1.03,1.12-1.45,2.15l-2.9,7.27-.52-.77,2.66-6.71c.28-.63.42-1.14.42-1.54Z"/>
        <path class="cls-1" d="M303.7,96.12c0,.14-.05.21-.14.21-.42,0-1.1-.02-2.03-.07-.93-.05-1.61-.07-2.03-.07-.37,0-.86.02-1.47.07-.61.05-1.07.07-1.4.07-.09,0-.14-.07-.14-.21s.05-.21.14-.21c.63,0,1.09-.08,1.38-.23.29-.15.44-.41.44-.79,0-.33-.15-.83-.45-1.5l-5.31-11.46.91-.77-4.37,10.87c-.37.89-.56,1.62-.56,2.2s.21,1.04.63,1.29c.42.26,1.06.38,1.92.38.12,0,.17.07.17.21s-.06.21-.17.21c-.35,0-.83-.02-1.43-.07-.65-.05-1.26-.07-1.82-.07s-1.27.02-2.06.07c-.7.05-1.26.07-1.68.07-.12,0-.17-.07-.17-.21s.06-.21.17-.21c.72,0,1.29-.1,1.71-.3.42-.2.81-.59,1.17-1.17.36-.58.8-1.49,1.31-2.73l5.03-12.27c.05-.09.12-.14.21-.14s.15.05.17.14l5.63,12.09c.61,1.31,1.09,2.25,1.45,2.83.36.58.73.98,1.12,1.21.38.22.89.33,1.52.33.09,0,.14.07.14.21ZM290.73,87.67h6.36l.25.63h-7.17l.56-.63Z"/>
        <path class="cls-1" d="M305.59,80.8c-.51.24-.92.66-1.21,1.24-.29.58-.52,1.41-.68,2.48,0,.05-.06.07-.19.07s-.19-.02-.19-.07c.07-.54.15-1.4.24-2.59.09-1.19.14-2.1.14-2.73,0-.12.07-.17.21-.17s.21.06.21.17c0,.3.17.5.52.58.35.08.78.12,1.29.12,2.05.05,3.81.07,5.28.07l3.04-.04c.42-.02.97-.03,1.64-.03.84,0,1.46-.05,1.85-.16.4-.1.65-.33.77-.68.05-.07.13-.1.25-.1s.17.04.17.1c-.14,2.52-.21,4.33-.21,5.45,0,.05-.06.07-.19.07s-.19-.02-.19-.07c-.02-1.05-.15-1.86-.37-2.45s-.59-1-1.1-1.26-1.22-.38-2.13-.38c-1,0-1.67.16-2.01.47s-.51.95-.51,1.9v10.69c0,.72.07,1.25.21,1.57.14.33.41.55.82.66.41.12,1.07.17,1.97.17.07,0,.11.07.11.21s-.04.21-.11.21c-.72,0-1.28-.01-1.68-.04l-2.45-.03-2.34.03c-.42.02-1,.04-1.75.04-.05,0-.07-.07-.07-.21s.02-.21.07-.21c.89,0,1.54-.06,1.96-.17.42-.12.71-.34.86-.68s.23-.86.23-1.56v-10.76c0-.68-.05-1.17-.16-1.48-.11-.31-.32-.53-.65-.65-.33-.12-.85-.17-1.57-.17-.89,0-1.58.12-2.1.37Z"/>
        <path class="cls-1" d="M324.88,85.24c.68.62,1.69,1.26,3.04,1.94.96.49,1.72.93,2.29,1.33.57.4,1.05.89,1.45,1.47.4.58.59,1.28.59,2.1,0,.86-.24,1.65-.72,2.36-.48.71-1.16,1.28-2.04,1.7-.89.42-1.92.63-3.11.63-1.66,0-3.05-.41-4.19-1.22-.12-.05-.19-.12-.23-.21-.04-.09-.06-.24-.09-.45l-.35-3.46c-.02-.09.03-.15.16-.17.13-.02.22.01.26.1.33,1.35.97,2.5,1.94,3.44.97.94,2.04,1.42,3.23,1.42.82,0,1.52-.24,2.11-.72.59-.48.89-1.22.89-2.22,0-1.07-.35-1.94-1.05-2.62-.7-.68-1.71-1.36-3.04-2.06-.93-.51-1.67-.96-2.22-1.35-.55-.38-1.01-.86-1.38-1.42-.37-.56-.56-1.23-.56-2.03,0-1.33.51-2.36,1.54-3.11,1.02-.75,2.27-1.12,3.74-1.12,1.19,0,2.35.27,3.5.8.21.12.34.21.4.28.06.07.1.17.12.31l.21,3.04c0,.09-.06.15-.19.17-.13.02-.21-.01-.23-.1-.12-.58-.38-1.18-.79-1.8-.41-.62-.93-1.14-1.56-1.56s-1.33-.63-2.1-.63c-.84,0-1.49.26-1.96.77-.47.51-.7,1.17-.7,1.96,0,1,.34,1.81,1.01,2.43Z"/>
        <path class="cls-1" d="M338.74,95.6c-1.27-.77-2.25-1.81-2.95-3.11-.7-1.3-1.05-2.71-1.05-4.23,0-1.82.47-3.38,1.42-4.7.94-1.32,2.14-2.31,3.6-2.99,1.46-.68,2.94-1.01,4.46-1.01,1.63,0,3.07.4,4.32,1.21,1.25.8,2.2,1.85,2.87,3.13.66,1.28,1,2.62,1,4.02,0,1.56-.42,3.02-1.26,4.39-.84,1.36-1.97,2.45-3.39,3.25-1.42.8-2.97,1.21-4.65,1.21s-3.08-.38-4.35-1.15ZM348.35,94.1c1.08-1.28,1.62-3.05,1.62-5.31,0-1.56-.27-2.98-.82-4.26-.55-1.28-1.35-2.31-2.39-3.08-1.05-.77-2.29-1.15-3.74-1.15-1.86,0-3.31.62-4.33,1.87-1.03,1.25-1.54,2.99-1.54,5.23,0,1.61.27,3.06.82,4.37.55,1.31,1.34,2.34,2.38,3.11s2.25,1.15,3.65,1.15c1.82,0,3.27-.64,4.35-1.92Z"/>
        <path class="cls-1" d="M369.93,96.82c-.12.02-.2.01-.25-.04l-11.46-13.94c-.75-.89-1.39-1.51-1.94-1.89-.55-.37-1.08-.56-1.59-.56-.05,0-.07-.07-.07-.21s.02-.21.07-.21l1.96.04,1.85-.04c.16,0,.3.05.4.14.1.09.26.29.47.59.19.3.44.66.77,1.08l9.61,11.85.35,3.08s-.06.08-.17.1ZM357.07,80.75l.7.1v11.67c0,1.24.17,2.11.52,2.62.35.51.96.77,1.82.77.05,0,.07.07.07.21s-.02.21-.07.21c-.51,0-.91-.01-1.19-.04l-1.47-.03-1.5.03c-.3.02-.72.04-1.26.04-.05,0-.07-.07-.07-.21s.02-.21.07-.21c.86,0,1.47-.26,1.83-.77.36-.51.54-1.39.54-2.62v-11.78ZM370.1,96.72l-.7-1.08v-11.85c0-1.23-.17-2.11-.51-2.62-.34-.51-.94-.77-1.8-.77-.07,0-.1-.07-.1-.21s.04-.21.1-.21l1.19.04c.61.05,1.09.07,1.47.07s.88-.02,1.54-.07l1.22-.04c.07,0,.11.07.11.21s-.04.21-.11.21c-.86,0-1.48.26-1.85.77-.37.51-.56,1.39-.56,2.62v12.93Z"/>
        <path class="cls-1" d="M406.31,96.12c0,.14-.05.21-.14.21-.44,0-1.13-.02-2.06-.07-.93-.05-1.61-.07-2.03-.07-.51,0-1.17.02-1.96.07-.75.05-1.32.07-1.71.07-.09,0-.14-.07-.14-.21s.05-.21.14-.21c.88,0,1.52-.08,1.9-.24.38-.16.58-.45.58-.87,0-.35-.14-.84-.42-1.47l-7.76-16.39.87-1.08-6.78,16.04c-.33.79-.49,1.44-.49,1.96,0,1.38,1.14,2.06,3.42,2.06.12,0,.17.07.17.21s-.06.21-.17.21c-.42,0-1.03-.02-1.82-.07-.89-.05-1.65-.07-2.31-.07-.61,0-1.3.02-2.1.07-.7.05-1.28.07-1.75.07-.12,0-.17-.07-.17-.21s.06-.21.17-.21c.65,0,1.21-.12,1.66-.37.45-.24.88-.68,1.29-1.29.41-.62.86-1.51,1.35-2.67l7.37-17.4c.05-.07.13-.1.24-.1s.19.04.21.1l8.25,17.37c.79,1.72,1.47,2.88,2.03,3.48.56.59,1.22.89,1.99.89.09,0,.14.07.14.21ZM389.71,84.03h7.2l.24.73h-7.97l.52-.73Z"/>
        <path class="cls-1" d="M413.65,96.37c-.28-.02-.63-.05-1.05-.07-.42-.02-.9-.03-1.43-.03l-2.06.03c-.4.02-.93.04-1.61.04-.05,0-.07-.07-.07-.21s.02-.21.07-.21c.79,0,1.37-.06,1.73-.17.36-.12.61-.34.73-.68.13-.34.19-.86.19-1.56v-10.69c0-.7-.06-1.21-.19-1.54-.13-.33-.37-.55-.73-.68s-.93-.19-1.7-.19c-.05,0-.07-.07-.07-.21s.02-.21.07-.21l1.57.04c.88.05,1.57.07,2.06.07.72,0,1.44-.04,2.17-.1.93-.05,1.63-.07,2.1-.07,1.96,0,3.65.35,5.07,1.05,1.42.7,2.5,1.67,3.25,2.9.75,1.24,1.12,2.63,1.12,4.19s-.38,3.05-1.15,4.33c-.77,1.28-1.83,2.28-3.2,3.01-1.36.72-2.92,1.08-4.67,1.08-.65,0-1.39-.03-2.2-.1ZM420.53,94.03c1.21-1.3,1.82-3.17,1.82-5.59s-.6-4.25-1.8-5.77c-1.2-1.51-3-2.27-5.4-2.27-1.07,0-1.82.17-2.25.52-.43.35-.65,1-.65,1.96v10.24c0,1.05.21,1.79.65,2.22.43.43,1.28.65,2.53.65,2.19,0,3.89-.65,5.1-1.96Z"/>
        <path class="cls-1" d="M444.19,80.19c0,.14-.02.21-.07.21-.68,0-1.25.19-1.73.58s-.9,1.04-1.28,1.97l-5.28,13.35c-.02.09-.15.14-.38.14s-.36-.05-.38-.14l-6.36-13.42c-.47-.98-.87-1.64-1.22-1.97-.35-.34-.83-.51-1.43-.51-.07,0-.1-.07-.1-.21s.04-.21.1-.21l1.33.04c.65.05,1.17.07,1.54.07.58,0,1.29-.02,2.13-.07l1.4-.04s.07.07.07.21-.02.21-.07.21c-1.21,0-1.82.36-1.82,1.08,0,.26.09.61.28,1.05l5.52,11.43-1.08,1.96,5.03-13.18c.16-.49.25-.84.25-1.05,0-.86-.78-1.29-2.34-1.29-.07,0-.1-.07-.1-.21s.03-.21.1-.21l1.26.04c.7.05,1.33.07,1.89.07.37,0,.84-.02,1.4-.07l1.29-.04s.07.07.07.21Z"/>
        <path class="cls-1" d="M449.24,95.6c-1.27-.77-2.25-1.81-2.95-3.11-.7-1.3-1.05-2.71-1.05-4.23,0-1.82.47-3.38,1.42-4.7.94-1.32,2.14-2.31,3.6-2.99,1.46-.68,2.94-1.01,4.46-1.01,1.63,0,3.07.4,4.32,1.21,1.25.8,2.2,1.85,2.87,3.13.66,1.28,1,2.62,1,4.02,0,1.56-.42,3.02-1.26,4.39-.84,1.36-1.97,2.45-3.39,3.25-1.42.8-2.97,1.21-4.65,1.21s-3.08-.38-4.35-1.15ZM458.85,94.1c1.08-1.28,1.62-3.05,1.62-5.31,0-1.56-.27-2.98-.82-4.26-.55-1.28-1.35-2.31-2.39-3.08-1.05-.77-2.29-1.15-3.74-1.15-1.86,0-3.31.62-4.33,1.87-1.03,1.25-1.54,2.99-1.54,5.23,0,1.61.27,3.06.82,4.37.55,1.31,1.34,2.34,2.38,3.11s2.25,1.15,3.65,1.15c1.82,0,3.27-.64,4.35-1.92Z"/>
        <path class="cls-1" d="M469.65,95.58c-1.39-.78-2.44-1.81-3.16-3.09-.72-1.28-1.08-2.63-1.08-4.05,0-1.82.41-3.4,1.22-4.74.82-1.34,1.98-2.36,3.5-3.08,1.51-.71,3.3-1.07,5.35-1.07.98,0,1.91.09,2.8.28s1.63.45,2.24.8c.14.07.23.16.26.28s.06.28.09.49l.35,3.29c0,.07-.06.11-.19.12-.13.01-.2-.02-.23-.09-.51-1.61-1.28-2.78-2.31-3.53-1.03-.75-2.31-1.12-3.84-1.12-2.05,0-3.69.71-4.93,2.11-1.24,1.41-1.85,3.34-1.85,5.78,0,1.61.31,3.03.93,4.28.62,1.25,1.49,2.22,2.62,2.92,1.13.7,2.45,1.05,3.97,1.05,1.16,0,2.02-.1,2.57-.31.55-.21.92-.61,1.12-1.21s.3-1.52.3-2.78c0-.61-.06-1.03-.19-1.28-.13-.24-.4-.41-.8-.49-.41-.08-1.12-.12-2.15-.12-.14,0-.21-.09-.21-.28,0-.07.02-.13.05-.19.03-.06.08-.09.12-.09,1.21.09,2.43.14,3.67.14.56,0,1.49-.02,2.79-.07.05,0,.09.03.12.09.04.06.05.11.05.16,0,.16-.06.24-.17.24-.47-.02-.79.01-.98.1-.19.09-.3.29-.35.58-.05.29-.07.81-.07,1.56,0,1.05.02,1.78.07,2.2.05.42.07.71.07.87,0,.14-.02.23-.05.26-.03.03-.15.09-.33.16-1.54.65-3.69.98-6.46.98-1.86,0-3.49-.39-4.88-1.17Z"/>
        <path class="cls-1" d="M503.18,96.12c0,.14-.05.21-.14.21-.42,0-1.1-.02-2.03-.07-.93-.05-1.61-.07-2.03-.07-.37,0-.86.02-1.47.07-.61.05-1.07.07-1.4.07-.09,0-.14-.07-.14-.21s.05-.21.14-.21c.63,0,1.09-.08,1.38-.23.29-.15.44-.41.44-.79,0-.33-.15-.83-.45-1.5l-5.31-11.46.91-.77-4.37,10.87c-.37.89-.56,1.62-.56,2.2s.21,1.04.63,1.29c.42.26,1.06.38,1.92.38.12,0,.17.07.17.21s-.06.21-.17.21c-.35,0-.83-.02-1.43-.07-.65-.05-1.26-.07-1.82-.07s-1.27.02-2.06.07c-.7.05-1.26.07-1.68.07-.12,0-.17-.07-.17-.21s.06-.21.17-.21c.72,0,1.29-.1,1.71-.3.42-.2.81-.59,1.17-1.17.36-.58.8-1.49,1.31-2.73l5.03-12.27c.05-.09.12-.14.21-.14s.15.05.17.14l5.63,12.09c.61,1.31,1.09,2.25,1.45,2.83.36.58.73.98,1.12,1.21.38.22.89.33,1.52.33.09,0,.14.07.14.21ZM490.22,87.67h6.36l.25.63h-7.17l.56-.63Z"/>
        <path class="cls-1" d="M510.52,96.37c-.28-.02-.63-.05-1.05-.07-.42-.02-.9-.03-1.43-.03l-2.06.03c-.4.02-.93.04-1.61.04-.05,0-.07-.07-.07-.21s.02-.21.07-.21c.79,0,1.37-.06,1.73-.17.36-.12.61-.34.73-.68.13-.34.19-.86.19-1.56v-10.69c0-.7-.06-1.21-.19-1.54-.13-.33-.37-.55-.73-.68s-.93-.19-1.7-.19c-.05,0-.07-.07-.07-.21s.02-.21.07-.21l1.57.04c.88.05,1.57.07,2.06.07.72,0,1.44-.04,2.17-.1.93-.05,1.63-.07,2.1-.07,1.96,0,3.65.35,5.07,1.05,1.42.7,2.5,1.67,3.25,2.9.75,1.24,1.12,2.63,1.12,4.19s-.38,3.05-1.15,4.33c-.77,1.28-1.83,2.28-3.2,3.01-1.36.72-2.92,1.08-4.67,1.08-.65,0-1.39-.03-2.2-.1ZM517.41,94.03c1.21-1.3,1.82-3.17,1.82-5.59s-.6-4.25-1.8-5.77c-1.2-1.51-3-2.27-5.4-2.27-1.07,0-1.82.17-2.25.52-.43.35-.65,1-.65,1.96v10.24c0,1.05.21,1.79.65,2.22.43.43,1.28.65,2.53.65,2.19,0,3.89-.65,5.1-1.96Z"/>
        <path class="cls-1" d="M528.26,95.6c-1.27-.77-2.25-1.81-2.95-3.11-.7-1.3-1.05-2.71-1.05-4.23,0-1.82.47-3.38,1.42-4.7.94-1.32,2.14-2.31,3.6-2.99,1.46-.68,2.94-1.01,4.46-1.01,1.63,0,3.07.4,4.32,1.21,1.25.8,2.2,1.85,2.87,3.13.66,1.28,1,2.62,1,4.02,0,1.56-.42,3.02-1.26,4.39-.84,1.36-1.97,2.45-3.39,3.25-1.42.8-2.97,1.21-4.65,1.21s-3.08-.38-4.35-1.15ZM537.87,94.1c1.08-1.28,1.62-3.05,1.62-5.31,0-1.56-.27-2.98-.82-4.26-.55-1.28-1.35-2.31-2.39-3.08-1.05-.77-2.29-1.15-3.74-1.15-1.86,0-3.31.62-4.33,1.87-1.03,1.25-1.54,2.99-1.54,5.23,0,1.61.27,3.06.82,4.37.55,1.31,1.34,2.34,2.38,3.11s2.25,1.15,3.65,1.15c1.82,0,3.27-.64,4.35-1.92Z"/>
        <path class="cls-1" d="M548.27,85.24c.68.62,1.69,1.26,3.04,1.94.96.49,1.72.93,2.29,1.33.57.4,1.05.89,1.45,1.47.4.58.59,1.28.59,2.1,0,.86-.24,1.65-.72,2.36-.48.71-1.16,1.28-2.04,1.7-.89.42-1.92.63-3.11.63-1.66,0-3.05-.41-4.19-1.22-.12-.05-.19-.12-.23-.21-.04-.09-.06-.24-.09-.45l-.35-3.46c-.02-.09.03-.15.16-.17.13-.02.22.01.26.1.33,1.35.97,2.5,1.94,3.44.97.94,2.04,1.42,3.23,1.42.82,0,1.52-.24,2.11-.72.59-.48.89-1.22.89-2.22,0-1.07-.35-1.94-1.05-2.62-.7-.68-1.71-1.36-3.04-2.06-.93-.51-1.67-.96-2.22-1.35-.55-.38-1.01-.86-1.38-1.42-.37-.56-.56-1.23-.56-2.03,0-1.33.51-2.36,1.54-3.11,1.02-.75,2.27-1.12,3.74-1.12,1.19,0,2.35.27,3.5.8.21.12.34.21.4.28.06.07.1.17.12.31l.21,3.04c0,.09-.06.15-.19.17-.13.02-.21-.01-.23-.1-.12-.58-.38-1.18-.79-1.8-.41-.62-.93-1.14-1.56-1.56s-1.33-.63-2.1-.63c-.84,0-1.49.26-1.96.77-.47.51-.7,1.17-.7,1.96,0,1,.34,1.81,1.01,2.43Z"/>
      </g>
      <rect class="cls-1" x="591.19" width="5.14" height="176.17"/>
    </g>
  </g>
</svg>