<svg id="Layer_1" enable-background="new 0 0 180 180" height="180" viewBox="0 0 180 180" width="180" xmlns="http://www.w3.org/2000/svg" xmlns:xlink="http://www.w3.org/1999/xlink"><linearGradient id="SVGID_1_" gradientUnits="userSpaceOnUse" x1="8.029" x2="171.959" y1="171.959" y2="8.029"><stop offset="0" stop-color="#334bff"/><stop offset="1" stop-color="#00aeff"/></linearGradient><path d="m90.004 97.773-33.346-33.345h66.691zm0 9.657c-1.023 0-2.048-.391-2.828-1.171l-36.174-36.174v41.452c0 2.218 1.792 4.022 3.994 4.022h69.986c2.219 0 4.023-1.805 4.023-4.022v-41.452l-36.174 36.174c-.779.781-1.804 1.171-2.827 1.171zm88.982-82.434v129.997c0 13.24-10.76 24.012-23.984 24.012h-129.996c-13.241 0-24.014-10.772-24.014-24.012v-129.997c0-13.241 10.772-24.013 24.014-24.013h129.996c13.225 0 23.984 10.772 23.984 24.013zm-41.98 35.432c0-.263-.027-.525-.079-.784-.023-.118-.067-.227-.101-.34-.04-.136-.071-.274-.126-.406-.056-.134-.132-.256-.201-.382-.056-.103-.101-.208-.167-.307-.146-.219-.313-.424-.498-.61-.002-.001-.004-.003-.006-.004-.184-.184-.386-.348-.604-.493-.101-.067-.21-.114-.315-.171-.124-.067-.242-.142-.373-.196s-.267-.085-.401-.125c-.115-.034-.227-.079-.346-.102-.243-.048-.489-.071-.735-.074-.017 0-.031-.005-.048-.005h-86.004c-.017 0-.031.004-.048.005-.246.003-.492.026-.735.074-.119.023-.229.068-.345.102-.135.04-.271.071-.402.125s-.249.128-.372.196c-.105.057-.216.104-.316.172-.218.145-.42.31-.604.493-.002.001-.004.003-.006.004-.186.186-.352.391-.498.61-.066.099-.111.206-.168.309-.068.125-.145.246-.199.379-.056.133-.087.271-.127.408-.033.113-.077.222-.101.338-.052.259-.079.521-.079.784v51.108c0 6.629 5.381 12.022 11.994 12.022h69.986c6.63 0 12.023-5.393 12.023-12.022v-51.108z" fill="url(#SVGID_1_)"/></svg>