<svg id="Warstwa_1" enable-background="new 0 0 283.46 283.46" height="283.46" viewBox="0 0 283.46 283.46" width="283.46" xmlns="http://www.w3.org/2000/svg"><g><path d="m2.833 48.375h277.797v186.714h-277.797z" fill="#d6d4d1"/><g><path d="m5.124 50.666h273.239v182.166h-273.239z" fill="#162b74"/><path d="m278.363 50.682h-32.837l-103.783 69.188-103.782-69.188h-32.837v21.885l103.783 69.188-103.783 69.19v21.887h32.837l103.782-69.189 103.783 69.189h32.837v-21.887l-103.781-69.19 103.781-69.188z" fill="#fff"/><g fill="#ce102a"><path d="m5.124 50.682v10.934l136.619 91.091v-10.952z"/><path d="m278.363 221.896-136.62-91.09v10.949l136.62 91.077z"/><path d="m5.124 232.832h16.411l120.208-80.125v-10.952z"/><path d="m261.953 50.682-120.21 80.138v10.951l136.605-91.089z"/></g><g><path d="m278.363 125.816h-125.229v-75.134h-22.78v75.134h-125.23v31.881h125.23v75.135h22.78v-75.135h125.229z" fill="#ce142b"/><g fill="#fff"><path d="m121.238 50.682v66.018h-116.114v9.116h125.23v-75.134z"/><path d="m5.124 166.795h116.114v66.037h9.116v-75.135h-125.23z"/><path d="m278.363 157.697h-125.229v75.135h9.116v-66.037h116.113z"/><path d="m278.363 116.7h-116.113v-66.018h-9.116v75.134h125.229z"/></g></g></g></g></svg>